M48
;GenerationSoftware,Autodesk,EAGLE,9.5.1*%
;CreationDate,2019-10-19T09:53:58Z*%
FMAT,2
ICI,OFF
METRIC,TZ,000.000
T5C0.600
T4C1.016
T3C1.118
T2C1.321
T1C3.302
%
G90
M71
T1
X69620Y69256
X12330Y26996
X37200Y94126
X37860Y68776
X70850Y94386
T2
X15600Y74298
X15600Y96802
X48085Y93130
X53089Y93130
X15880Y67265
X15880Y62261
T3
X28660Y29710
X28660Y19550
X42280Y20300
X32120Y20300
X51870Y30150
X51870Y19990
X65340Y21020
X55180Y21020
X54250Y85180
X40680Y17200
X30520Y17200
X64080Y17450
X53920Y17450
X48450Y49420
X48450Y59580
X46550Y74720
X46550Y84880
X53150Y49220
X53150Y59380
X54250Y75020
T4
X6310Y2500
X3770Y33570
X8850Y33570
X6310Y5040
X6310Y7580
X21750Y18790
X21750Y13710
T5
X26100Y68200
X26900Y64300
X26100Y60800
X47100Y63100
X59450Y32200
X51550Y26100
X59600Y63800
X59600Y77400
X29000Y5500
X59900Y69400
X65622Y8278
X65700Y6500
X50300Y8000
X67349Y8551
X72846Y8354
X60700Y86900
X35350Y31900
X27850Y14100
X13800Y54700
X54900Y63700
X25200Y46600
X28400Y41100
X64000Y46600
X50500Y40700
X70300Y46800
X59400Y40700
X47000Y34100
X47000Y27000
X19100Y5900
X3000Y3900
X5400Y16300
X4700Y21800
X5000Y28500
X71200Y20500
X75800Y23000
X71200Y25700
X35150Y29500
X49350Y29900
X38250Y20800
X69500Y13700
X44950Y11500
X29650Y11500
X30650Y34600
X58850Y14500
X45150Y13300
X24400Y95400
X24600Y90100
X24800Y84500
X61100Y91400
X60200Y95700
X65450Y29400
X64950Y33500
X28600Y24750
X39600Y76100
M30