G04 EAGLE Gerber RS-274X export*
G75*
%MOMM*%
%FSLAX34Y34*%
%LPD*%
%INTop Copper*%
%IPPOS*%
%AMOC8*
5,1,8,0,0,1.08239X$1,22.5*%
G01*
%ADD10R,1.780000X0.720000*%
%ADD11R,13.000000X17.000000*%
%ADD12R,3.000000X4.000000*%
%ADD13R,2.200000X0.600000*%
%ADD14R,1.500000X2.000000*%
%ADD15R,2.000000X1.500000*%
%ADD16R,2.000000X1.600000*%
%ADD17R,1.600000X2.000000*%
%ADD18C,2.540000*%
%ADD19P,2.749271X8X22.500000*%
%ADD20R,1.500000X1.500000*%
%ADD21C,1.676400*%
%ADD22C,1.524000*%
%ADD23C,1.981200*%
%ADD24C,1.676400*%
%ADD25P,2.749271X8X112.500000*%
%ADD26C,2.540000*%
%ADD27R,1.803000X1.600000*%
%ADD28R,1.600000X1.803000*%
%ADD29R,1.400000X1.000000*%
%ADD30R,1.000000X1.400000*%
%ADD31C,4.000000*%
%ADD32C,0.609600*%
%ADD33C,1.006400*%
%ADD34C,0.600000*%
%ADD35C,1.016000*%
%ADD36C,1.270000*%

G36*
X739550Y370242D02*
X739550Y370242D01*
X739569Y370240D01*
X739671Y370262D01*
X739773Y370279D01*
X739790Y370288D01*
X739810Y370292D01*
X739899Y370345D01*
X739990Y370394D01*
X740004Y370408D01*
X740021Y370418D01*
X740088Y370497D01*
X740160Y370572D01*
X740168Y370590D01*
X740181Y370605D01*
X740220Y370701D01*
X740263Y370795D01*
X740265Y370815D01*
X740273Y370833D01*
X740291Y371000D01*
X740291Y495771D01*
X740284Y495818D01*
X740285Y495866D01*
X740264Y495939D01*
X740252Y496014D01*
X740229Y496056D01*
X740215Y496102D01*
X740172Y496164D01*
X740136Y496231D01*
X740102Y496264D01*
X740074Y496303D01*
X740013Y496348D01*
X739958Y496401D01*
X739914Y496421D01*
X739876Y496449D01*
X739804Y496472D01*
X739735Y496504D01*
X739687Y496509D01*
X739642Y496524D01*
X739566Y496523D01*
X739491Y496531D01*
X739444Y496521D01*
X739396Y496520D01*
X739324Y496495D01*
X739250Y496479D01*
X739209Y496454D01*
X739164Y496438D01*
X739104Y496392D01*
X739039Y496353D01*
X739008Y496316D01*
X738970Y496287D01*
X738894Y496183D01*
X738879Y496166D01*
X738877Y496160D01*
X738871Y496152D01*
X738633Y495740D01*
X738160Y495267D01*
X737581Y494932D01*
X736934Y494759D01*
X723123Y494759D01*
X723123Y516538D01*
X723120Y516558D01*
X723122Y516577D01*
X723100Y516679D01*
X723083Y516781D01*
X723074Y516798D01*
X723070Y516818D01*
X723017Y516907D01*
X722968Y516998D01*
X722954Y517012D01*
X722944Y517029D01*
X722865Y517096D01*
X722790Y517167D01*
X722772Y517176D01*
X722757Y517189D01*
X722661Y517228D01*
X722567Y517271D01*
X722547Y517273D01*
X722529Y517281D01*
X722362Y517299D01*
X721599Y517299D01*
X721599Y517301D01*
X722362Y517301D01*
X722382Y517304D01*
X722401Y517302D01*
X722503Y517324D01*
X722605Y517341D01*
X722622Y517350D01*
X722642Y517354D01*
X722731Y517407D01*
X722822Y517456D01*
X722836Y517470D01*
X722853Y517480D01*
X722920Y517559D01*
X722991Y517634D01*
X723000Y517652D01*
X723013Y517667D01*
X723052Y517763D01*
X723095Y517857D01*
X723097Y517877D01*
X723105Y517895D01*
X723123Y518062D01*
X723123Y539841D01*
X736934Y539841D01*
X737581Y539668D01*
X738160Y539333D01*
X738633Y538860D01*
X738871Y538448D01*
X738901Y538411D01*
X738924Y538369D01*
X738979Y538317D01*
X739027Y538258D01*
X739067Y538233D01*
X739102Y538199D01*
X739171Y538168D01*
X739235Y538127D01*
X739281Y538116D01*
X739325Y538096D01*
X739400Y538088D01*
X739474Y538070D01*
X739522Y538074D01*
X739569Y538069D01*
X739644Y538085D01*
X739719Y538092D01*
X739763Y538111D01*
X739810Y538121D01*
X739875Y538160D01*
X739944Y538190D01*
X739980Y538223D01*
X740021Y538247D01*
X740070Y538305D01*
X740126Y538356D01*
X740150Y538398D01*
X740181Y538434D01*
X740209Y538505D01*
X740246Y538571D01*
X740255Y538618D01*
X740273Y538662D01*
X740287Y538791D01*
X740291Y538812D01*
X740290Y538819D01*
X740291Y538829D01*
X740291Y546030D01*
X740288Y546050D01*
X740290Y546069D01*
X740268Y546171D01*
X740252Y546273D01*
X740242Y546290D01*
X740238Y546310D01*
X740185Y546399D01*
X740136Y546490D01*
X740122Y546504D01*
X740112Y546521D01*
X740033Y546588D01*
X739958Y546660D01*
X739940Y546668D01*
X739925Y546681D01*
X739829Y546720D01*
X739735Y546763D01*
X739715Y546765D01*
X739697Y546773D01*
X739530Y546791D01*
X690198Y546791D01*
X690102Y546776D01*
X690005Y546766D01*
X689981Y546756D01*
X689956Y546752D01*
X689870Y546706D01*
X689781Y546666D01*
X689761Y546649D01*
X689738Y546636D01*
X689671Y546566D01*
X689599Y546500D01*
X689587Y546477D01*
X689569Y546458D01*
X689528Y546370D01*
X689481Y546284D01*
X689476Y546259D01*
X689465Y546235D01*
X689454Y546138D01*
X689437Y546042D01*
X689441Y546016D01*
X689438Y545991D01*
X689459Y545895D01*
X689473Y545799D01*
X689485Y545776D01*
X689490Y545750D01*
X689540Y545667D01*
X689584Y545580D01*
X689603Y545561D01*
X689616Y545539D01*
X689690Y545476D01*
X689760Y545408D01*
X689789Y545392D01*
X689803Y545379D01*
X689834Y545367D01*
X689907Y545327D01*
X691556Y544644D01*
X694414Y541786D01*
X695961Y538051D01*
X695961Y494009D01*
X694414Y490274D01*
X691556Y487416D01*
X687821Y485869D01*
X653779Y485869D01*
X650044Y487416D01*
X647186Y490274D01*
X645639Y494009D01*
X645639Y501327D01*
X645639Y501328D01*
X645620Y501444D01*
X645600Y501570D01*
X645599Y501570D01*
X645537Y501688D01*
X645484Y501787D01*
X645484Y501788D01*
X645396Y501870D01*
X645306Y501956D01*
X645306Y501957D01*
X645305Y501957D01*
X645200Y502006D01*
X645083Y502060D01*
X645082Y502060D01*
X644917Y502087D01*
X642795Y502195D01*
X642780Y502193D01*
X642756Y502196D01*
X640132Y502196D01*
X639883Y502299D01*
X639838Y502310D01*
X639795Y502329D01*
X639662Y502351D01*
X639643Y502355D01*
X639638Y502355D01*
X639630Y502356D01*
X639361Y502370D01*
X636990Y503496D01*
X636976Y503500D01*
X636955Y503512D01*
X634530Y504516D01*
X634339Y504707D01*
X634302Y504734D01*
X634270Y504768D01*
X634156Y504839D01*
X634140Y504850D01*
X634135Y504852D01*
X634128Y504856D01*
X633884Y504972D01*
X632125Y506920D01*
X632113Y506929D01*
X632098Y506948D01*
X631330Y507716D01*
X631256Y507769D01*
X631187Y507829D01*
X631157Y507841D01*
X631130Y507860D01*
X631043Y507887D01*
X630958Y507921D01*
X630918Y507925D01*
X630895Y507932D01*
X630863Y507931D01*
X630792Y507939D01*
X622479Y507939D01*
X618744Y509486D01*
X615886Y512344D01*
X614339Y516079D01*
X614339Y536121D01*
X615867Y539809D01*
X615888Y539897D01*
X615916Y539984D01*
X615916Y540017D01*
X615923Y540048D01*
X615914Y540139D01*
X615913Y540230D01*
X615902Y540270D01*
X615900Y540293D01*
X615887Y540322D01*
X615867Y540391D01*
X614339Y544079D01*
X614339Y548000D01*
X614336Y548020D01*
X614338Y548039D01*
X614316Y548141D01*
X614300Y548243D01*
X614290Y548260D01*
X614286Y548280D01*
X614233Y548369D01*
X614184Y548460D01*
X614170Y548474D01*
X614160Y548491D01*
X614081Y548558D01*
X614006Y548630D01*
X613988Y548638D01*
X613973Y548651D01*
X613877Y548690D01*
X613783Y548733D01*
X613763Y548735D01*
X613745Y548743D01*
X613578Y548761D01*
X326022Y548761D01*
X326002Y548758D01*
X325983Y548760D01*
X325881Y548738D01*
X325779Y548722D01*
X325762Y548712D01*
X325742Y548708D01*
X325653Y548655D01*
X325562Y548606D01*
X325548Y548592D01*
X325531Y548582D01*
X325464Y548503D01*
X325392Y548428D01*
X325384Y548410D01*
X325371Y548395D01*
X325332Y548299D01*
X325289Y548205D01*
X325287Y548185D01*
X325279Y548167D01*
X325261Y548000D01*
X325261Y531179D01*
X323733Y527491D01*
X323712Y527403D01*
X323684Y527316D01*
X323684Y527283D01*
X323677Y527252D01*
X323686Y527161D01*
X323687Y527070D01*
X323698Y527030D01*
X323700Y527007D01*
X323713Y526978D01*
X323733Y526909D01*
X323746Y526879D01*
X323787Y526812D01*
X323800Y526782D01*
X323815Y526766D01*
X323867Y526679D01*
X323872Y526675D01*
X323875Y526670D01*
X323965Y526595D01*
X324054Y526519D01*
X324060Y526517D01*
X324065Y526513D01*
X324173Y526471D01*
X324282Y526427D01*
X324290Y526426D01*
X324294Y526425D01*
X324313Y526424D01*
X324449Y526409D01*
X327278Y526409D01*
X327298Y526412D01*
X327317Y526410D01*
X327419Y526432D01*
X327521Y526448D01*
X327538Y526458D01*
X327558Y526462D01*
X327647Y526515D01*
X327738Y526564D01*
X327752Y526578D01*
X327769Y526588D01*
X327836Y526667D01*
X327908Y526742D01*
X327916Y526760D01*
X327929Y526775D01*
X327968Y526871D01*
X328011Y526965D01*
X328013Y526985D01*
X328021Y527003D01*
X328039Y527170D01*
X328039Y533251D01*
X329586Y536986D01*
X332444Y539844D01*
X336179Y541391D01*
X370221Y541391D01*
X373956Y539844D01*
X376814Y536986D01*
X378361Y533251D01*
X378361Y489209D01*
X376814Y485474D01*
X373956Y482616D01*
X370221Y481069D01*
X336179Y481069D01*
X332444Y482616D01*
X329586Y485474D01*
X328039Y489209D01*
X328039Y499230D01*
X328036Y499250D01*
X328038Y499269D01*
X328016Y499371D01*
X328000Y499473D01*
X327990Y499490D01*
X327986Y499510D01*
X327933Y499599D01*
X327884Y499690D01*
X327870Y499704D01*
X327860Y499721D01*
X327781Y499788D01*
X327706Y499860D01*
X327688Y499868D01*
X327673Y499881D01*
X327577Y499920D01*
X327483Y499963D01*
X327463Y499965D01*
X327445Y499973D01*
X327278Y499991D01*
X324449Y499991D01*
X324335Y499973D01*
X324218Y499955D01*
X324212Y499953D01*
X324206Y499952D01*
X324103Y499897D01*
X323999Y499844D01*
X323994Y499839D01*
X323989Y499836D01*
X323908Y499751D01*
X323827Y499668D01*
X323823Y499662D01*
X323820Y499658D01*
X323812Y499641D01*
X323746Y499521D01*
X323714Y499444D01*
X320856Y496586D01*
X317121Y495039D01*
X293079Y495039D01*
X289344Y496586D01*
X286486Y499444D01*
X284939Y503179D01*
X284939Y523221D01*
X286467Y526909D01*
X286488Y526997D01*
X286516Y527084D01*
X286516Y527117D01*
X286523Y527148D01*
X286514Y527239D01*
X286513Y527330D01*
X286502Y527370D01*
X286500Y527393D01*
X286487Y527422D01*
X286467Y527491D01*
X284939Y531179D01*
X284939Y539030D01*
X284936Y539050D01*
X284938Y539069D01*
X284916Y539171D01*
X284900Y539273D01*
X284890Y539290D01*
X284886Y539310D01*
X284833Y539399D01*
X284784Y539490D01*
X284770Y539504D01*
X284760Y539521D01*
X284681Y539588D01*
X284606Y539660D01*
X284588Y539668D01*
X284573Y539681D01*
X284477Y539720D01*
X284383Y539763D01*
X284363Y539765D01*
X284345Y539773D01*
X284178Y539791D01*
X238873Y539791D01*
X234018Y541802D01*
X227282Y548538D01*
X227208Y548591D01*
X227138Y548651D01*
X227108Y548663D01*
X227082Y548682D01*
X226995Y548709D01*
X226910Y548743D01*
X226869Y548747D01*
X226847Y548754D01*
X226815Y548753D01*
X226743Y548761D01*
X225261Y548761D01*
X225261Y550243D01*
X225247Y550334D01*
X225239Y550424D01*
X225227Y550454D01*
X225222Y550486D01*
X225179Y550567D01*
X225143Y550651D01*
X225117Y550683D01*
X225106Y550704D01*
X225083Y550726D01*
X225038Y550782D01*
X221125Y554695D01*
X217302Y558518D01*
X215291Y563373D01*
X215291Y642000D01*
X215288Y642020D01*
X215290Y642039D01*
X215268Y642141D01*
X215252Y642243D01*
X215242Y642260D01*
X215238Y642280D01*
X215185Y642369D01*
X215136Y642460D01*
X215122Y642474D01*
X215112Y642491D01*
X215033Y642558D01*
X214958Y642630D01*
X214940Y642638D01*
X214925Y642651D01*
X214829Y642690D01*
X214735Y642733D01*
X214715Y642735D01*
X214697Y642743D01*
X214530Y642761D01*
X163901Y642761D01*
X163885Y642759D01*
X163870Y642761D01*
X163704Y642735D01*
X162771Y642485D01*
X154829Y642485D01*
X153896Y642735D01*
X153880Y642737D01*
X153866Y642743D01*
X153699Y642761D01*
X108500Y642761D01*
X108410Y642747D01*
X108319Y642739D01*
X108289Y642727D01*
X108257Y642722D01*
X108177Y642679D01*
X108093Y642643D01*
X108061Y642617D01*
X108040Y642606D01*
X108018Y642583D01*
X107962Y642538D01*
X102932Y637508D01*
X102879Y637434D01*
X102819Y637365D01*
X102807Y637335D01*
X102788Y637309D01*
X102761Y637222D01*
X102727Y637137D01*
X102723Y637096D01*
X102716Y637073D01*
X102717Y637041D01*
X102709Y636970D01*
X102709Y422287D01*
X102723Y422196D01*
X102731Y422106D01*
X102743Y422076D01*
X102748Y422044D01*
X102791Y421963D01*
X102827Y421879D01*
X102853Y421847D01*
X102864Y421826D01*
X102887Y421804D01*
X102932Y421748D01*
X151748Y372932D01*
X151822Y372879D01*
X151892Y372819D01*
X151922Y372807D01*
X151948Y372788D01*
X152035Y372761D01*
X152120Y372727D01*
X152161Y372723D01*
X152183Y372716D01*
X152215Y372717D01*
X152287Y372709D01*
X407627Y372709D01*
X412482Y370698D01*
X412718Y370462D01*
X412792Y370409D01*
X412862Y370349D01*
X412892Y370337D01*
X412918Y370318D01*
X413005Y370291D01*
X413090Y370257D01*
X413131Y370253D01*
X413153Y370246D01*
X413185Y370247D01*
X413257Y370239D01*
X739530Y370239D01*
X739550Y370242D01*
G37*
G36*
X64834Y808254D02*
X64834Y808254D01*
X64924Y808261D01*
X64954Y808273D01*
X64986Y808279D01*
X65067Y808321D01*
X65151Y808357D01*
X65183Y808383D01*
X65204Y808394D01*
X65226Y808417D01*
X65282Y808462D01*
X75018Y818198D01*
X79873Y820209D01*
X239047Y820209D01*
X239074Y820213D01*
X239127Y820213D01*
X241010Y820411D01*
X241589Y820240D01*
X241614Y820237D01*
X241638Y820227D01*
X241805Y820209D01*
X242408Y820209D01*
X244157Y819484D01*
X244184Y819478D01*
X244233Y819457D01*
X246048Y818920D01*
X246518Y818540D01*
X246540Y818528D01*
X246558Y818510D01*
X246705Y818429D01*
X247263Y818198D01*
X248602Y816859D01*
X248624Y816843D01*
X248661Y816806D01*
X259036Y808408D01*
X259081Y808383D01*
X259120Y808349D01*
X259187Y808322D01*
X259250Y808286D01*
X259301Y808277D01*
X259349Y808257D01*
X259465Y808244D01*
X259491Y808239D01*
X259501Y808240D01*
X259515Y808239D01*
X293133Y808239D01*
X293198Y808249D01*
X293263Y808250D01*
X293343Y808273D01*
X293376Y808279D01*
X293393Y808288D01*
X293424Y808297D01*
X293579Y808361D01*
X317621Y808361D01*
X317776Y808297D01*
X317839Y808282D01*
X317900Y808257D01*
X317983Y808248D01*
X318015Y808241D01*
X318034Y808242D01*
X318067Y808239D01*
X628743Y808239D01*
X628834Y808254D01*
X628924Y808261D01*
X628954Y808273D01*
X628986Y808279D01*
X629067Y808321D01*
X629151Y808357D01*
X629183Y808383D01*
X629204Y808394D01*
X629226Y808417D01*
X629282Y808462D01*
X638018Y817198D01*
X640489Y818222D01*
X640589Y818283D01*
X640689Y818343D01*
X640693Y818348D01*
X640698Y818351D01*
X640773Y818441D01*
X640849Y818530D01*
X640851Y818536D01*
X640855Y818541D01*
X640897Y818649D01*
X640941Y818758D01*
X640942Y818766D01*
X640943Y818770D01*
X640944Y818789D01*
X640959Y818925D01*
X640959Y900577D01*
X676486Y900577D01*
X676534Y900585D01*
X676582Y900583D01*
X676654Y900604D01*
X676729Y900617D01*
X676771Y900639D01*
X676817Y900653D01*
X676879Y900696D01*
X676946Y900732D01*
X676979Y900766D01*
X677019Y900794D01*
X677064Y900855D01*
X677116Y900910D01*
X677136Y900954D01*
X677164Y900992D01*
X677187Y901064D01*
X677219Y901133D01*
X677225Y901181D01*
X677239Y901226D01*
X677238Y901302D01*
X677246Y901378D01*
X677236Y901424D01*
X677236Y901472D01*
X677210Y901544D01*
X677194Y901618D01*
X677170Y901659D01*
X677154Y901704D01*
X677107Y901764D01*
X677068Y901829D01*
X677032Y901860D01*
X677002Y901898D01*
X676898Y901974D01*
X676881Y901989D01*
X676875Y901991D01*
X676867Y901997D01*
X676528Y902193D01*
X675321Y903400D01*
X675247Y903453D01*
X675177Y903513D01*
X675147Y903525D01*
X675121Y903544D01*
X675034Y903571D01*
X674949Y903605D01*
X674908Y903609D01*
X674886Y903616D01*
X674854Y903615D01*
X674782Y903623D01*
X640959Y903623D01*
X640959Y987434D01*
X641143Y988119D01*
X641155Y988238D01*
X641168Y988355D01*
X641167Y988360D01*
X641167Y988364D01*
X641141Y988479D01*
X641115Y988596D01*
X641113Y988599D01*
X641112Y988603D01*
X641050Y988705D01*
X640989Y988807D01*
X640986Y988810D01*
X640984Y988813D01*
X640893Y988889D01*
X640802Y988967D01*
X640798Y988968D01*
X640795Y988971D01*
X640686Y989014D01*
X640574Y989059D01*
X640569Y989059D01*
X640566Y989061D01*
X640552Y989061D01*
X640407Y989077D01*
X396161Y989077D01*
X396113Y989070D01*
X396065Y989071D01*
X395993Y989050D01*
X395918Y989038D01*
X395875Y989015D01*
X395829Y989001D01*
X395767Y988958D01*
X395700Y988922D01*
X395667Y988888D01*
X395628Y988860D01*
X395583Y988799D01*
X395531Y988744D01*
X395511Y988701D01*
X395482Y988662D01*
X395459Y988590D01*
X395427Y988521D01*
X395422Y988473D01*
X395407Y988428D01*
X395409Y988352D01*
X395400Y988277D01*
X395410Y988230D01*
X395411Y988182D01*
X395436Y988110D01*
X395453Y988036D01*
X395477Y987995D01*
X395493Y987950D01*
X395540Y987890D01*
X395579Y987825D01*
X395615Y987794D01*
X395645Y987756D01*
X395749Y987680D01*
X395766Y987665D01*
X395772Y987663D01*
X395780Y987657D01*
X396670Y987143D01*
X396778Y987102D01*
X396884Y987059D01*
X396894Y987058D01*
X396900Y987056D01*
X396923Y987055D01*
X397051Y987041D01*
X437334Y987041D01*
X437981Y986868D01*
X438560Y986533D01*
X439033Y986060D01*
X439368Y985481D01*
X439541Y984834D01*
X439541Y901023D01*
X405718Y901023D01*
X405628Y901008D01*
X405537Y901001D01*
X405507Y900989D01*
X405475Y900983D01*
X405394Y900941D01*
X405310Y900905D01*
X405278Y900879D01*
X405258Y900868D01*
X405235Y900845D01*
X405179Y900800D01*
X403972Y899593D01*
X403633Y899397D01*
X403596Y899367D01*
X403554Y899344D01*
X403502Y899290D01*
X403443Y899242D01*
X403417Y899201D01*
X403384Y899166D01*
X403352Y899097D01*
X403312Y899033D01*
X403301Y898987D01*
X403281Y898943D01*
X403272Y898868D01*
X403255Y898794D01*
X403259Y898746D01*
X403254Y898699D01*
X403270Y898624D01*
X403276Y898549D01*
X403296Y898505D01*
X403306Y898458D01*
X403345Y898393D01*
X403375Y898324D01*
X403407Y898288D01*
X403432Y898247D01*
X403489Y898198D01*
X403540Y898142D01*
X403582Y898118D01*
X403619Y898087D01*
X403689Y898059D01*
X403755Y898022D01*
X403802Y898013D01*
X403847Y897995D01*
X403975Y897981D01*
X403997Y897977D01*
X404004Y897978D01*
X404014Y897977D01*
X439541Y897977D01*
X439541Y814166D01*
X439368Y813519D01*
X439033Y812940D01*
X438560Y812467D01*
X437981Y812132D01*
X437334Y811959D01*
X373523Y811959D01*
X373523Y888428D01*
X373520Y888448D01*
X373522Y888467D01*
X373500Y888569D01*
X373483Y888671D01*
X373474Y888688D01*
X373470Y888708D01*
X373417Y888797D01*
X373368Y888888D01*
X373354Y888902D01*
X373344Y888919D01*
X373265Y888986D01*
X373190Y889058D01*
X373172Y889066D01*
X373157Y889079D01*
X373061Y889118D01*
X372967Y889161D01*
X372947Y889163D01*
X372929Y889171D01*
X372762Y889189D01*
X371238Y889189D01*
X371218Y889186D01*
X371199Y889188D01*
X371097Y889166D01*
X370995Y889150D01*
X370978Y889140D01*
X370958Y889136D01*
X370869Y889083D01*
X370778Y889034D01*
X370764Y889020D01*
X370747Y889010D01*
X370680Y888931D01*
X370609Y888856D01*
X370600Y888838D01*
X370587Y888823D01*
X370548Y888727D01*
X370505Y888633D01*
X370503Y888613D01*
X370495Y888595D01*
X370477Y888428D01*
X370477Y811959D01*
X306666Y811959D01*
X306019Y812132D01*
X305440Y812467D01*
X304967Y812940D01*
X304632Y813519D01*
X304459Y814166D01*
X304459Y897977D01*
X339986Y897977D01*
X340034Y897985D01*
X340082Y897983D01*
X340154Y898004D01*
X340229Y898017D01*
X340271Y898039D01*
X340317Y898053D01*
X340379Y898096D01*
X340446Y898132D01*
X340479Y898166D01*
X340519Y898194D01*
X340564Y898255D01*
X340616Y898310D01*
X340636Y898353D01*
X340664Y898392D01*
X340687Y898464D01*
X340719Y898533D01*
X340725Y898581D01*
X340739Y898626D01*
X340738Y898702D01*
X340746Y898778D01*
X340736Y898824D01*
X340736Y898872D01*
X340710Y898944D01*
X340694Y899018D01*
X340670Y899059D01*
X340654Y899104D01*
X340607Y899164D01*
X340568Y899229D01*
X340532Y899260D01*
X340502Y899298D01*
X340398Y899374D01*
X340381Y899389D01*
X340375Y899391D01*
X340367Y899397D01*
X340028Y899593D01*
X338821Y900800D01*
X338747Y900853D01*
X338677Y900913D01*
X338647Y900925D01*
X338621Y900944D01*
X338534Y900971D01*
X338449Y901005D01*
X338408Y901009D01*
X338386Y901016D01*
X338354Y901015D01*
X338282Y901023D01*
X304459Y901023D01*
X304459Y984834D01*
X304632Y985481D01*
X304967Y986060D01*
X305440Y986533D01*
X306019Y986868D01*
X306666Y987041D01*
X346949Y987041D01*
X347062Y987059D01*
X347176Y987075D01*
X347185Y987079D01*
X347192Y987080D01*
X347212Y987091D01*
X347330Y987143D01*
X348220Y987657D01*
X348257Y987687D01*
X348300Y987710D01*
X348352Y987764D01*
X348410Y987813D01*
X348436Y987853D01*
X348469Y987888D01*
X348501Y987957D01*
X348541Y988021D01*
X348552Y988068D01*
X348573Y988111D01*
X348581Y988186D01*
X348599Y988260D01*
X348594Y988308D01*
X348600Y988355D01*
X348584Y988430D01*
X348577Y988505D01*
X348558Y988549D01*
X348547Y988596D01*
X348509Y988661D01*
X348478Y988730D01*
X348446Y988766D01*
X348421Y988807D01*
X348364Y988856D01*
X348313Y988912D01*
X348271Y988936D01*
X348234Y988967D01*
X348164Y988995D01*
X348098Y989032D01*
X348051Y989041D01*
X348006Y989059D01*
X347878Y989073D01*
X347856Y989077D01*
X347850Y989076D01*
X347839Y989077D01*
X13000Y989077D01*
X12980Y989074D01*
X12961Y989076D01*
X12859Y989054D01*
X12757Y989038D01*
X12740Y989028D01*
X12720Y989024D01*
X12631Y988971D01*
X12540Y988922D01*
X12526Y988908D01*
X12509Y988898D01*
X12442Y988819D01*
X12370Y988744D01*
X12362Y988726D01*
X12349Y988711D01*
X12310Y988615D01*
X12267Y988521D01*
X12265Y988501D01*
X12257Y988483D01*
X12239Y988316D01*
X12239Y809000D01*
X12242Y808980D01*
X12240Y808961D01*
X12262Y808859D01*
X12279Y808757D01*
X12288Y808740D01*
X12292Y808720D01*
X12345Y808631D01*
X12394Y808540D01*
X12408Y808526D01*
X12418Y808509D01*
X12497Y808442D01*
X12572Y808371D01*
X12590Y808362D01*
X12605Y808349D01*
X12701Y808310D01*
X12795Y808267D01*
X12815Y808265D01*
X12833Y808257D01*
X13000Y808239D01*
X64743Y808239D01*
X64834Y808254D01*
G37*
G36*
X474858Y38780D02*
X474858Y38780D01*
X474904Y38778D01*
X474979Y38800D01*
X475056Y38812D01*
X475096Y38834D01*
X475141Y38847D01*
X475205Y38891D01*
X475273Y38928D01*
X475305Y38961D01*
X475343Y38987D01*
X475389Y39050D01*
X475443Y39106D01*
X475462Y39148D01*
X475489Y39184D01*
X475514Y39258D01*
X475546Y39329D01*
X475551Y39375D01*
X475566Y39418D01*
X475565Y39496D01*
X475573Y39573D01*
X475564Y39618D01*
X475563Y39664D01*
X475525Y39796D01*
X475521Y39814D01*
X475519Y39818D01*
X475517Y39825D01*
X474871Y41383D01*
X474871Y53007D01*
X474857Y53097D01*
X474849Y53188D01*
X474837Y53218D01*
X474832Y53250D01*
X474789Y53331D01*
X474753Y53414D01*
X474727Y53447D01*
X474716Y53467D01*
X474693Y53489D01*
X474648Y53545D01*
X463776Y64418D01*
X461840Y66353D01*
X461782Y66395D01*
X461730Y66445D01*
X461683Y66467D01*
X461641Y66497D01*
X461572Y66518D01*
X461507Y66548D01*
X461455Y66554D01*
X461405Y66569D01*
X461334Y66567D01*
X461263Y66575D01*
X461212Y66564D01*
X461160Y66563D01*
X461092Y66538D01*
X461022Y66523D01*
X460977Y66496D01*
X460929Y66479D01*
X460873Y66434D01*
X460811Y66397D01*
X460777Y66357D01*
X460737Y66325D01*
X460698Y66265D01*
X460651Y66210D01*
X460632Y66162D01*
X460604Y66118D01*
X460586Y66048D01*
X460559Y65982D01*
X460551Y65911D01*
X460543Y65879D01*
X460545Y65856D01*
X460541Y65815D01*
X460541Y59666D01*
X460368Y59019D01*
X460033Y58440D01*
X459560Y57967D01*
X458981Y57632D01*
X458334Y57459D01*
X449523Y57459D01*
X449523Y66738D01*
X449520Y66758D01*
X449522Y66777D01*
X449500Y66879D01*
X449483Y66981D01*
X449474Y66998D01*
X449470Y67018D01*
X449417Y67107D01*
X449368Y67198D01*
X449354Y67212D01*
X449344Y67229D01*
X449265Y67296D01*
X449190Y67367D01*
X449172Y67376D01*
X449157Y67389D01*
X449061Y67428D01*
X448967Y67471D01*
X448947Y67473D01*
X448929Y67481D01*
X448762Y67499D01*
X447999Y67499D01*
X447999Y67501D01*
X448762Y67501D01*
X448782Y67504D01*
X448801Y67502D01*
X448903Y67524D01*
X449005Y67541D01*
X449022Y67550D01*
X449042Y67554D01*
X449131Y67607D01*
X449222Y67656D01*
X449236Y67670D01*
X449253Y67680D01*
X449320Y67759D01*
X449391Y67834D01*
X449400Y67852D01*
X449413Y67867D01*
X449452Y67963D01*
X449495Y68057D01*
X449497Y68077D01*
X449505Y68095D01*
X449523Y68262D01*
X449523Y77541D01*
X458062Y77541D01*
X458082Y77544D01*
X458101Y77542D01*
X458203Y77564D01*
X458305Y77580D01*
X458322Y77590D01*
X458342Y77594D01*
X458431Y77647D01*
X458522Y77696D01*
X458536Y77710D01*
X458553Y77720D01*
X458620Y77799D01*
X458692Y77874D01*
X458700Y77892D01*
X458713Y77907D01*
X458752Y78003D01*
X458795Y78097D01*
X458797Y78117D01*
X458805Y78135D01*
X458823Y78302D01*
X458823Y81110D01*
X458820Y81130D01*
X458822Y81149D01*
X458800Y81251D01*
X458784Y81353D01*
X458774Y81370D01*
X458770Y81390D01*
X458717Y81479D01*
X458668Y81570D01*
X458654Y81584D01*
X458644Y81601D01*
X458565Y81668D01*
X458490Y81740D01*
X458472Y81748D01*
X458457Y81761D01*
X458361Y81800D01*
X458267Y81843D01*
X458247Y81845D01*
X458229Y81853D01*
X458062Y81871D01*
X436383Y81871D01*
X433395Y83109D01*
X431109Y85395D01*
X429871Y88383D01*
X429871Y89612D01*
X429868Y89632D01*
X429870Y89651D01*
X429848Y89753D01*
X429832Y89855D01*
X429822Y89872D01*
X429818Y89892D01*
X429765Y89981D01*
X429716Y90072D01*
X429702Y90086D01*
X429692Y90103D01*
X429613Y90170D01*
X429538Y90242D01*
X429520Y90250D01*
X429505Y90263D01*
X429409Y90302D01*
X429315Y90345D01*
X429295Y90347D01*
X429277Y90355D01*
X429110Y90373D01*
X423802Y90373D01*
X423782Y90370D01*
X423763Y90372D01*
X423661Y90350D01*
X423655Y90349D01*
X410238Y90349D01*
X410219Y90346D01*
X410199Y90348D01*
X410097Y90326D01*
X409995Y90310D01*
X409978Y90300D01*
X409958Y90296D01*
X409869Y90243D01*
X409778Y90194D01*
X409764Y90180D01*
X409747Y90170D01*
X409680Y90091D01*
X409609Y90016D01*
X409600Y89998D01*
X409587Y89983D01*
X409549Y89887D01*
X409505Y89793D01*
X409503Y89773D01*
X409495Y89755D01*
X409477Y89588D01*
X409477Y88873D01*
X408762Y88873D01*
X408742Y88870D01*
X408722Y88872D01*
X408621Y88850D01*
X408519Y88833D01*
X408502Y88824D01*
X408482Y88820D01*
X408393Y88767D01*
X408302Y88718D01*
X408288Y88704D01*
X408271Y88694D01*
X408204Y88615D01*
X408132Y88540D01*
X408124Y88522D01*
X408111Y88507D01*
X408072Y88410D01*
X408029Y88317D01*
X408027Y88297D01*
X408019Y88279D01*
X408001Y88112D01*
X408001Y83309D01*
X398166Y83309D01*
X397519Y83482D01*
X396940Y83817D01*
X396467Y84290D01*
X396278Y84617D01*
X396204Y84707D01*
X396129Y84802D01*
X396125Y84804D01*
X396122Y84807D01*
X396024Y84869D01*
X395922Y84935D01*
X395918Y84936D01*
X395914Y84938D01*
X395799Y84965D01*
X395683Y84995D01*
X395679Y84994D01*
X395675Y84995D01*
X395556Y84985D01*
X395438Y84976D01*
X395434Y84974D01*
X395430Y84974D01*
X395320Y84926D01*
X395212Y84879D01*
X395208Y84876D01*
X395205Y84875D01*
X395194Y84865D01*
X395081Y84774D01*
X392735Y82428D01*
X392693Y82370D01*
X392643Y82318D01*
X392621Y82271D01*
X392591Y82229D01*
X392570Y82160D01*
X392540Y82095D01*
X392534Y82043D01*
X392519Y81993D01*
X392521Y81922D01*
X392513Y81851D01*
X392524Y81800D01*
X392525Y81748D01*
X392550Y81680D01*
X392565Y81610D01*
X392592Y81566D01*
X392609Y81517D01*
X392654Y81461D01*
X392691Y81399D01*
X392731Y81365D01*
X392763Y81325D01*
X392823Y81286D01*
X392878Y81239D01*
X392926Y81220D01*
X392970Y81192D01*
X393040Y81174D01*
X393106Y81147D01*
X393177Y81139D01*
X393209Y81131D01*
X393232Y81133D01*
X393273Y81129D01*
X394117Y81129D01*
X397105Y79891D01*
X399391Y77605D01*
X400629Y74617D01*
X400629Y51383D01*
X399391Y48395D01*
X397105Y46109D01*
X394117Y44871D01*
X375883Y44871D01*
X372895Y46109D01*
X370609Y48395D01*
X369936Y50019D01*
X369898Y50080D01*
X369869Y50146D01*
X369834Y50184D01*
X369807Y50228D01*
X369751Y50274D01*
X369703Y50327D01*
X369657Y50352D01*
X369617Y50385D01*
X369550Y50411D01*
X369487Y50446D01*
X369436Y50455D01*
X369387Y50473D01*
X369316Y50476D01*
X369245Y50489D01*
X369194Y50482D01*
X369142Y50484D01*
X369073Y50464D01*
X369002Y50453D01*
X368955Y50430D01*
X368905Y50415D01*
X368847Y50375D01*
X368783Y50342D01*
X368746Y50305D01*
X368703Y50275D01*
X368661Y50218D01*
X368610Y50166D01*
X368576Y50104D01*
X368557Y50078D01*
X368549Y50055D01*
X368530Y50019D01*
X367691Y47995D01*
X365405Y45709D01*
X362417Y44471D01*
X343183Y44471D01*
X340195Y45709D01*
X339338Y46566D01*
X339322Y46578D01*
X339310Y46593D01*
X339222Y46649D01*
X339139Y46709D01*
X339120Y46715D01*
X339103Y46726D01*
X339002Y46751D01*
X338903Y46782D01*
X338884Y46781D01*
X338864Y46786D01*
X338761Y46778D01*
X338658Y46775D01*
X338639Y46769D01*
X338619Y46767D01*
X338524Y46727D01*
X338427Y46691D01*
X338411Y46679D01*
X338393Y46671D01*
X338262Y46566D01*
X337405Y45709D01*
X334417Y44471D01*
X315183Y44471D01*
X312195Y45709D01*
X309909Y47995D01*
X308671Y50983D01*
X308671Y69360D01*
X308652Y69475D01*
X308635Y69591D01*
X308633Y69597D01*
X308632Y69603D01*
X308577Y69706D01*
X308524Y69811D01*
X308519Y69815D01*
X308516Y69821D01*
X308432Y69900D01*
X308348Y69983D01*
X308342Y69986D01*
X308338Y69990D01*
X308321Y69998D01*
X308201Y70064D01*
X305195Y71309D01*
X302909Y73595D01*
X301671Y76583D01*
X301671Y95817D01*
X302909Y98805D01*
X303766Y99662D01*
X303778Y99678D01*
X303793Y99690D01*
X303849Y99778D01*
X303909Y99861D01*
X303915Y99880D01*
X303926Y99897D01*
X303951Y99998D01*
X303982Y100097D01*
X303981Y100116D01*
X303986Y100136D01*
X303978Y100239D01*
X303975Y100342D01*
X303969Y100361D01*
X303967Y100381D01*
X303927Y100476D01*
X303891Y100573D01*
X303879Y100589D01*
X303871Y100607D01*
X303766Y100738D01*
X302909Y101595D01*
X302559Y102441D01*
X302548Y102458D01*
X302543Y102477D01*
X302484Y102561D01*
X302429Y102650D01*
X302414Y102662D01*
X302402Y102679D01*
X302320Y102740D01*
X302240Y102806D01*
X302221Y102814D01*
X302205Y102825D01*
X302107Y102858D01*
X302010Y102895D01*
X301990Y102895D01*
X301971Y102902D01*
X301868Y102901D01*
X301764Y102905D01*
X301745Y102899D01*
X301725Y102899D01*
X301564Y102853D01*
X299118Y101839D01*
X293882Y101839D01*
X289045Y103843D01*
X285343Y107545D01*
X283339Y112382D01*
X283339Y117618D01*
X285343Y122455D01*
X288709Y125821D01*
X288721Y125837D01*
X288736Y125850D01*
X288792Y125937D01*
X288853Y126021D01*
X288858Y126040D01*
X288869Y126057D01*
X288895Y126157D01*
X288925Y126256D01*
X288924Y126276D01*
X288929Y126295D01*
X288921Y126398D01*
X288919Y126502D01*
X288912Y126521D01*
X288910Y126540D01*
X288870Y126635D01*
X288834Y126733D01*
X288822Y126749D01*
X288814Y126767D01*
X288709Y126898D01*
X288167Y127440D01*
X287832Y128019D01*
X287659Y128666D01*
X287659Y137477D01*
X296938Y137477D01*
X296958Y137480D01*
X296977Y137478D01*
X297079Y137500D01*
X297181Y137517D01*
X297198Y137526D01*
X297218Y137530D01*
X297307Y137583D01*
X297398Y137632D01*
X297412Y137646D01*
X297429Y137656D01*
X297496Y137735D01*
X297567Y137810D01*
X297576Y137828D01*
X297589Y137843D01*
X297628Y137939D01*
X297671Y138033D01*
X297673Y138053D01*
X297681Y138071D01*
X297699Y138238D01*
X297699Y139001D01*
X297701Y139001D01*
X297701Y138238D01*
X297704Y138218D01*
X297702Y138199D01*
X297724Y138097D01*
X297741Y137995D01*
X297750Y137978D01*
X297754Y137958D01*
X297807Y137869D01*
X297856Y137778D01*
X297870Y137764D01*
X297880Y137747D01*
X297959Y137680D01*
X298034Y137609D01*
X298052Y137600D01*
X298067Y137587D01*
X298163Y137548D01*
X298257Y137505D01*
X298277Y137503D01*
X298295Y137495D01*
X298462Y137477D01*
X307741Y137477D01*
X307741Y131090D01*
X307744Y131070D01*
X307742Y131051D01*
X307764Y130949D01*
X307780Y130847D01*
X307790Y130830D01*
X307794Y130810D01*
X307847Y130721D01*
X307896Y130630D01*
X307910Y130616D01*
X307920Y130599D01*
X307999Y130532D01*
X308074Y130460D01*
X308092Y130452D01*
X308107Y130439D01*
X308203Y130400D01*
X308297Y130357D01*
X308317Y130355D01*
X308335Y130347D01*
X308502Y130329D01*
X311310Y130329D01*
X311330Y130332D01*
X311349Y130330D01*
X311451Y130352D01*
X311553Y130368D01*
X311570Y130378D01*
X311590Y130382D01*
X311679Y130435D01*
X311770Y130484D01*
X311784Y130498D01*
X311801Y130508D01*
X311868Y130587D01*
X311940Y130662D01*
X311948Y130680D01*
X311961Y130695D01*
X312000Y130791D01*
X312043Y130885D01*
X312045Y130905D01*
X312053Y130923D01*
X312071Y131090D01*
X312071Y150617D01*
X313309Y153605D01*
X313894Y154190D01*
X313936Y154248D01*
X313985Y154300D01*
X314007Y154347D01*
X314038Y154389D01*
X314059Y154458D01*
X314089Y154523D01*
X314095Y154575D01*
X314110Y154625D01*
X314108Y154696D01*
X314116Y154767D01*
X314105Y154818D01*
X314104Y154870D01*
X314079Y154938D01*
X314064Y155008D01*
X314037Y155053D01*
X314019Y155101D01*
X313974Y155157D01*
X313937Y155219D01*
X313898Y155253D01*
X313865Y155293D01*
X313805Y155332D01*
X313751Y155379D01*
X313702Y155398D01*
X313658Y155426D01*
X313589Y155444D01*
X313522Y155471D01*
X313451Y155479D01*
X313420Y155487D01*
X313397Y155485D01*
X313356Y155489D01*
X293534Y155489D01*
X287465Y158003D01*
X286900Y158568D01*
X286826Y158621D01*
X286757Y158681D01*
X286726Y158693D01*
X286700Y158712D01*
X286613Y158739D01*
X286528Y158773D01*
X286487Y158777D01*
X286465Y158784D01*
X286433Y158783D01*
X286362Y158791D01*
X261873Y158791D01*
X261761Y158837D01*
X261717Y158848D01*
X261675Y158867D01*
X261598Y158876D01*
X261522Y158894D01*
X261476Y158889D01*
X261431Y158894D01*
X261354Y158878D01*
X261277Y158870D01*
X261235Y158852D01*
X261190Y158842D01*
X261123Y158802D01*
X261052Y158770D01*
X261018Y158739D01*
X260979Y158716D01*
X260928Y158657D01*
X260871Y158604D01*
X260849Y158564D01*
X260819Y158529D01*
X260790Y158457D01*
X260753Y158389D01*
X260744Y158343D01*
X260727Y158301D01*
X260712Y158165D01*
X260709Y158147D01*
X260710Y158142D01*
X260709Y158134D01*
X260709Y134373D01*
X258698Y129518D01*
X254982Y125802D01*
X250127Y123791D01*
X233963Y123791D01*
X233873Y123777D01*
X233782Y123769D01*
X233752Y123757D01*
X233720Y123752D01*
X233639Y123709D01*
X233556Y123673D01*
X233523Y123647D01*
X233503Y123636D01*
X233481Y123613D01*
X233425Y123568D01*
X232202Y122345D01*
X232149Y122271D01*
X232089Y122202D01*
X232077Y122172D01*
X232058Y122146D01*
X232031Y122059D01*
X231997Y121974D01*
X231993Y121933D01*
X231986Y121911D01*
X231987Y121878D01*
X231979Y121807D01*
X231979Y113913D01*
X231993Y113823D01*
X232001Y113732D01*
X232013Y113702D01*
X232018Y113670D01*
X232061Y113589D01*
X232097Y113505D01*
X232123Y113473D01*
X232134Y113452D01*
X232157Y113430D01*
X232202Y113374D01*
X234624Y110952D01*
X234698Y110899D01*
X234768Y110839D01*
X234798Y110827D01*
X234824Y110808D01*
X234911Y110781D01*
X234996Y110747D01*
X235037Y110743D01*
X235059Y110736D01*
X235091Y110737D01*
X235163Y110729D01*
X239117Y110729D01*
X242105Y109491D01*
X244391Y107205D01*
X245629Y104217D01*
X245629Y103925D01*
X245644Y103831D01*
X245653Y103736D01*
X245664Y103711D01*
X245668Y103683D01*
X245713Y103599D01*
X245751Y103511D01*
X245770Y103490D01*
X245784Y103465D01*
X245853Y103400D01*
X245917Y103329D01*
X245941Y103315D01*
X245962Y103296D01*
X246048Y103256D01*
X246132Y103209D01*
X246159Y103204D01*
X246185Y103192D01*
X246280Y103182D01*
X246373Y103164D01*
X246401Y103168D01*
X246429Y103165D01*
X246523Y103186D01*
X246617Y103199D01*
X246649Y103213D01*
X246670Y103218D01*
X246698Y103234D01*
X246771Y103266D01*
X247119Y103468D01*
X247766Y103641D01*
X256577Y103641D01*
X256577Y93862D01*
X256580Y93842D01*
X256578Y93823D01*
X256600Y93721D01*
X256617Y93619D01*
X256626Y93602D01*
X256630Y93582D01*
X256683Y93493D01*
X256732Y93402D01*
X256746Y93388D01*
X256756Y93371D01*
X256835Y93304D01*
X256910Y93233D01*
X256928Y93224D01*
X256943Y93211D01*
X257039Y93172D01*
X257133Y93129D01*
X257153Y93127D01*
X257171Y93119D01*
X257338Y93101D01*
X258101Y93101D01*
X258101Y92338D01*
X258104Y92318D01*
X258102Y92299D01*
X258124Y92197D01*
X258141Y92095D01*
X258150Y92078D01*
X258154Y92058D01*
X258207Y91969D01*
X258256Y91878D01*
X258270Y91864D01*
X258280Y91847D01*
X258359Y91780D01*
X258434Y91709D01*
X258452Y91700D01*
X258467Y91687D01*
X258563Y91648D01*
X258657Y91605D01*
X258677Y91603D01*
X258695Y91595D01*
X258862Y91577D01*
X270641Y91577D01*
X270641Y84766D01*
X270468Y84119D01*
X270133Y83540D01*
X269660Y83067D01*
X269081Y82732D01*
X269054Y82725D01*
X269032Y82715D01*
X269008Y82711D01*
X268921Y82665D01*
X268830Y82624D01*
X268812Y82608D01*
X268791Y82596D01*
X268722Y82524D01*
X268650Y82457D01*
X268638Y82436D01*
X268622Y82418D01*
X268580Y82328D01*
X268532Y82241D01*
X268528Y82217D01*
X268518Y82195D01*
X268507Y82096D01*
X268490Y81998D01*
X268493Y81974D01*
X268491Y81951D01*
X268512Y81854D01*
X268527Y81755D01*
X268538Y81734D01*
X268543Y81710D01*
X268594Y81625D01*
X268640Y81537D01*
X268657Y81520D01*
X268669Y81499D01*
X268745Y81434D01*
X268816Y81365D01*
X268838Y81355D01*
X268856Y81339D01*
X268948Y81302D01*
X269038Y81259D01*
X269062Y81256D01*
X269084Y81247D01*
X269251Y81229D01*
X269717Y81229D01*
X272705Y79991D01*
X274991Y77705D01*
X276229Y74717D01*
X276229Y55483D01*
X274991Y52495D01*
X272705Y50209D01*
X269717Y48971D01*
X246483Y48971D01*
X245746Y49277D01*
X245726Y49281D01*
X245709Y49291D01*
X245607Y49309D01*
X245506Y49333D01*
X245487Y49331D01*
X245467Y49335D01*
X245364Y49319D01*
X245262Y49310D01*
X245243Y49302D01*
X245224Y49299D01*
X245131Y49252D01*
X245037Y49210D01*
X245022Y49196D01*
X245004Y49187D01*
X244932Y49113D01*
X244856Y49043D01*
X244846Y49026D01*
X244832Y49012D01*
X244751Y48865D01*
X244391Y47995D01*
X242105Y45709D01*
X239117Y44471D01*
X220883Y44471D01*
X217895Y45709D01*
X215609Y47995D01*
X214371Y50983D01*
X214371Y69217D01*
X215609Y72205D01*
X217895Y74491D01*
X220883Y75729D01*
X231302Y75729D01*
X231367Y75739D01*
X231433Y75740D01*
X231513Y75763D01*
X231545Y75768D01*
X231562Y75778D01*
X231594Y75787D01*
X232777Y76277D01*
X240109Y76277D01*
X240223Y76296D01*
X240340Y76313D01*
X240345Y76315D01*
X240351Y76316D01*
X240454Y76371D01*
X240559Y76424D01*
X240563Y76429D01*
X240569Y76432D01*
X240649Y76516D01*
X240731Y76600D01*
X240735Y76606D01*
X240738Y76610D01*
X240746Y76627D01*
X240812Y76747D01*
X241209Y77705D01*
X242998Y79494D01*
X243055Y79573D01*
X243117Y79648D01*
X243126Y79672D01*
X243141Y79693D01*
X243170Y79786D01*
X243205Y79877D01*
X243206Y79903D01*
X243214Y79928D01*
X243211Y80026D01*
X243215Y80123D01*
X243208Y80148D01*
X243207Y80174D01*
X243174Y80266D01*
X243147Y80359D01*
X243132Y80381D01*
X243123Y80405D01*
X243062Y80481D01*
X243007Y80561D01*
X242986Y80577D01*
X242969Y80597D01*
X242887Y80650D01*
X242809Y80708D01*
X242784Y80716D01*
X242762Y80730D01*
X242668Y80754D01*
X242575Y80784D01*
X242549Y80784D01*
X242524Y80790D01*
X242427Y80783D01*
X242329Y80782D01*
X242298Y80773D01*
X242279Y80771D01*
X242248Y80758D01*
X242168Y80735D01*
X239117Y79471D01*
X220883Y79471D01*
X217895Y80709D01*
X215628Y82976D01*
X215612Y82987D01*
X215600Y83003D01*
X215512Y83059D01*
X215429Y83119D01*
X215410Y83125D01*
X215393Y83136D01*
X215292Y83161D01*
X215194Y83192D01*
X215174Y83191D01*
X215154Y83196D01*
X215051Y83188D01*
X214948Y83185D01*
X214929Y83178D01*
X214909Y83177D01*
X214814Y83137D01*
X214717Y83101D01*
X214701Y83088D01*
X214683Y83081D01*
X214552Y82976D01*
X209702Y78126D01*
X204380Y75921D01*
X201245Y75921D01*
X201180Y75911D01*
X201114Y75910D01*
X201034Y75887D01*
X201002Y75882D01*
X200985Y75872D01*
X200953Y75863D01*
X198317Y74771D01*
X175083Y74771D01*
X172447Y75863D01*
X172383Y75878D01*
X172322Y75903D01*
X172239Y75912D01*
X172207Y75919D01*
X172188Y75918D01*
X172155Y75921D01*
X171191Y75921D01*
X171076Y75902D01*
X170960Y75885D01*
X170954Y75883D01*
X170948Y75882D01*
X170846Y75827D01*
X170741Y75774D01*
X170736Y75769D01*
X170731Y75766D01*
X170651Y75682D01*
X170568Y75598D01*
X170565Y75592D01*
X170561Y75588D01*
X170554Y75571D01*
X170488Y75451D01*
X169321Y72635D01*
X167035Y70349D01*
X164047Y69111D01*
X160820Y69111D01*
X160791Y69106D01*
X160761Y69109D01*
X160670Y69087D01*
X160577Y69072D01*
X160551Y69058D01*
X160522Y69051D01*
X160376Y68968D01*
X157269Y66738D01*
X152153Y65540D01*
X146967Y66391D01*
X142769Y68997D01*
X142766Y68998D01*
X142763Y69001D01*
X142651Y69046D01*
X142542Y69091D01*
X142538Y69091D01*
X142535Y69093D01*
X142368Y69111D01*
X130813Y69111D01*
X127825Y70349D01*
X125539Y72635D01*
X124301Y75623D01*
X124301Y118857D01*
X125539Y121845D01*
X127825Y124131D01*
X130813Y125369D01*
X164047Y125369D01*
X167035Y124131D01*
X169321Y121845D01*
X170559Y118857D01*
X170559Y105640D01*
X170562Y105620D01*
X170560Y105601D01*
X170582Y105499D01*
X170598Y105397D01*
X170608Y105380D01*
X170612Y105360D01*
X170665Y105271D01*
X170714Y105180D01*
X170728Y105166D01*
X170738Y105149D01*
X170817Y105082D01*
X170892Y105010D01*
X170910Y105002D01*
X170925Y104989D01*
X171021Y104950D01*
X171115Y104907D01*
X171135Y104905D01*
X171153Y104897D01*
X171320Y104879D01*
X172155Y104879D01*
X172220Y104889D01*
X172286Y104890D01*
X172366Y104913D01*
X172398Y104918D01*
X172415Y104928D01*
X172447Y104937D01*
X175083Y106029D01*
X196337Y106029D01*
X196427Y106043D01*
X196518Y106051D01*
X196548Y106063D01*
X196580Y106068D01*
X196661Y106111D01*
X196745Y106147D01*
X196777Y106173D01*
X196798Y106184D01*
X196820Y106207D01*
X196876Y106252D01*
X202798Y112174D01*
X202851Y112248D01*
X202911Y112318D01*
X202923Y112348D01*
X202942Y112374D01*
X202969Y112461D01*
X203003Y112546D01*
X203007Y112587D01*
X203014Y112609D01*
X203013Y112641D01*
X203021Y112713D01*
X203021Y121807D01*
X203007Y121897D01*
X202999Y121988D01*
X202987Y122018D01*
X202982Y122050D01*
X202939Y122130D01*
X202903Y122214D01*
X202877Y122247D01*
X202866Y122267D01*
X202843Y122289D01*
X202798Y122345D01*
X200540Y124603D01*
X200482Y124645D01*
X200430Y124695D01*
X200383Y124717D01*
X200341Y124747D01*
X200272Y124768D01*
X200207Y124798D01*
X200155Y124804D01*
X200105Y124819D01*
X200034Y124817D01*
X199963Y124825D01*
X199912Y124814D01*
X199860Y124813D01*
X199792Y124788D01*
X199722Y124773D01*
X199677Y124746D01*
X199629Y124729D01*
X199573Y124684D01*
X199511Y124647D01*
X199477Y124607D01*
X199437Y124575D01*
X199398Y124515D01*
X199351Y124460D01*
X199332Y124412D01*
X199304Y124368D01*
X199286Y124298D01*
X199259Y124232D01*
X199251Y124161D01*
X199243Y124129D01*
X199245Y124106D01*
X199241Y124065D01*
X199241Y121923D01*
X188223Y121923D01*
X188223Y130441D01*
X196574Y130441D01*
X196619Y130448D01*
X196665Y130446D01*
X196740Y130468D01*
X196817Y130480D01*
X196857Y130502D01*
X196902Y130515D01*
X196966Y130559D01*
X197034Y130596D01*
X197066Y130629D01*
X197104Y130655D01*
X197150Y130717D01*
X197204Y130774D01*
X197223Y130816D01*
X197250Y130852D01*
X197275Y130926D01*
X197307Y130997D01*
X197312Y131043D01*
X197327Y131086D01*
X197326Y131164D01*
X197334Y131241D01*
X197325Y131286D01*
X197324Y131332D01*
X197286Y131464D01*
X197282Y131482D01*
X197280Y131486D01*
X197278Y131493D01*
X196671Y132957D01*
X196671Y141243D01*
X199842Y148899D01*
X205701Y154758D01*
X213357Y157929D01*
X221643Y157929D01*
X229299Y154758D01*
X232992Y151065D01*
X233050Y151023D01*
X233102Y150973D01*
X233149Y150951D01*
X233191Y150921D01*
X233260Y150900D01*
X233325Y150870D01*
X233377Y150864D01*
X233427Y150849D01*
X233498Y150851D01*
X233569Y150843D01*
X233620Y150854D01*
X233672Y150855D01*
X233740Y150880D01*
X233810Y150895D01*
X233855Y150922D01*
X233903Y150939D01*
X233959Y150984D01*
X234021Y151021D01*
X234055Y151061D01*
X234095Y151093D01*
X234134Y151153D01*
X234181Y151208D01*
X234200Y151256D01*
X234228Y151300D01*
X234246Y151370D01*
X234273Y151436D01*
X234281Y151507D01*
X234289Y151539D01*
X234287Y151562D01*
X234291Y151603D01*
X234291Y260627D01*
X236302Y265482D01*
X240125Y269305D01*
X269866Y299046D01*
X269919Y299120D01*
X269979Y299190D01*
X269991Y299220D01*
X270010Y299246D01*
X270037Y299333D01*
X270071Y299418D01*
X270075Y299459D01*
X270082Y299481D01*
X270081Y299513D01*
X270089Y299585D01*
X270089Y300384D01*
X272603Y306453D01*
X277247Y311097D01*
X283316Y313611D01*
X289884Y313611D01*
X295953Y311097D01*
X300597Y306453D01*
X300876Y305779D01*
X300938Y305680D01*
X300998Y305579D01*
X301003Y305575D01*
X301006Y305570D01*
X301096Y305495D01*
X301185Y305419D01*
X301191Y305417D01*
X301195Y305413D01*
X301304Y305371D01*
X301413Y305327D01*
X301420Y305326D01*
X301425Y305325D01*
X301443Y305324D01*
X301580Y305309D01*
X315213Y305309D01*
X315307Y305324D01*
X315402Y305333D01*
X315428Y305344D01*
X315456Y305348D01*
X315540Y305393D01*
X315627Y305431D01*
X315648Y305450D01*
X315673Y305464D01*
X315739Y305533D01*
X315809Y305597D01*
X315823Y305621D01*
X315842Y305642D01*
X315883Y305728D01*
X315929Y305812D01*
X315934Y305839D01*
X315946Y305865D01*
X315956Y305960D01*
X315974Y306054D01*
X315970Y306081D01*
X315973Y306109D01*
X315953Y306203D01*
X315939Y306297D01*
X315925Y306330D01*
X315921Y306350D01*
X315904Y306378D01*
X315872Y306451D01*
X315832Y306519D01*
X315659Y307166D01*
X315659Y313477D01*
X327438Y313477D01*
X327458Y313480D01*
X327477Y313478D01*
X327579Y313500D01*
X327681Y313517D01*
X327698Y313526D01*
X327718Y313530D01*
X327807Y313583D01*
X327898Y313632D01*
X327912Y313646D01*
X327929Y313656D01*
X327996Y313735D01*
X328067Y313810D01*
X328076Y313828D01*
X328089Y313843D01*
X328128Y313939D01*
X328171Y314033D01*
X328173Y314053D01*
X328181Y314071D01*
X328199Y314238D01*
X328199Y315762D01*
X328196Y315782D01*
X328198Y315801D01*
X328176Y315903D01*
X328159Y316005D01*
X328150Y316022D01*
X328146Y316042D01*
X328093Y316131D01*
X328044Y316222D01*
X328030Y316236D01*
X328020Y316253D01*
X327941Y316320D01*
X327866Y316391D01*
X327848Y316400D01*
X327833Y316413D01*
X327737Y316452D01*
X327643Y316495D01*
X327623Y316497D01*
X327605Y316505D01*
X327438Y316523D01*
X315659Y316523D01*
X315659Y320562D01*
X315656Y320582D01*
X315658Y320601D01*
X315636Y320703D01*
X315620Y320805D01*
X315610Y320822D01*
X315606Y320842D01*
X315553Y320931D01*
X315504Y321022D01*
X315490Y321036D01*
X315480Y321053D01*
X315401Y321120D01*
X315326Y321192D01*
X315308Y321200D01*
X315293Y321213D01*
X315197Y321252D01*
X315103Y321295D01*
X315083Y321297D01*
X315065Y321305D01*
X314898Y321323D01*
X130727Y321323D01*
X130703Y321319D01*
X130679Y321322D01*
X130582Y321300D01*
X130484Y321284D01*
X130463Y321272D01*
X130439Y321267D01*
X130354Y321215D01*
X130267Y321168D01*
X130250Y321151D01*
X130229Y321138D01*
X130166Y321062D01*
X130097Y320990D01*
X130087Y320968D01*
X130072Y320950D01*
X130035Y320857D01*
X129994Y320767D01*
X129991Y320743D01*
X129982Y320721D01*
X129977Y320621D01*
X129966Y320523D01*
X129972Y320499D01*
X129970Y320475D01*
X129998Y320379D01*
X130019Y320282D01*
X130031Y320262D01*
X130038Y320238D01*
X130094Y320156D01*
X130145Y320071D01*
X130163Y320055D01*
X130177Y320036D01*
X130256Y319976D01*
X130332Y319911D01*
X130354Y319902D01*
X130373Y319888D01*
X130530Y319827D01*
X142614Y316589D01*
X143906Y315843D01*
X144013Y315802D01*
X144120Y315759D01*
X144130Y315758D01*
X144136Y315756D01*
X144159Y315755D01*
X144287Y315741D01*
X188634Y315741D01*
X189281Y315568D01*
X189860Y315233D01*
X190333Y314760D01*
X190668Y314181D01*
X190841Y313534D01*
X190841Y229723D01*
X153889Y229723D01*
X153776Y229705D01*
X153662Y229689D01*
X153653Y229684D01*
X153646Y229683D01*
X153627Y229673D01*
X153509Y229621D01*
X150869Y228097D01*
X150832Y228067D01*
X150790Y228044D01*
X150737Y227990D01*
X150679Y227942D01*
X150653Y227901D01*
X150620Y227866D01*
X150588Y227797D01*
X150548Y227733D01*
X150537Y227687D01*
X150517Y227643D01*
X150508Y227568D01*
X150491Y227494D01*
X150495Y227446D01*
X150490Y227399D01*
X150506Y227325D01*
X150512Y227249D01*
X150532Y227205D01*
X150542Y227158D01*
X150581Y227093D01*
X150611Y227024D01*
X150643Y226988D01*
X150668Y226947D01*
X150725Y226898D01*
X150777Y226842D01*
X150818Y226818D01*
X150855Y226787D01*
X150925Y226759D01*
X150991Y226722D01*
X151038Y226713D01*
X151083Y226695D01*
X151211Y226681D01*
X151233Y226677D01*
X151240Y226678D01*
X151250Y226677D01*
X190841Y226677D01*
X190841Y142866D01*
X190668Y142219D01*
X190333Y141640D01*
X189860Y141167D01*
X189281Y140832D01*
X188634Y140659D01*
X124823Y140659D01*
X124823Y219160D01*
X124820Y219180D01*
X124822Y219199D01*
X124800Y219301D01*
X124783Y219403D01*
X124774Y219420D01*
X124770Y219440D01*
X124717Y219529D01*
X124668Y219620D01*
X124654Y219634D01*
X124644Y219651D01*
X124565Y219718D01*
X124490Y219790D01*
X124472Y219798D01*
X124457Y219811D01*
X124361Y219850D01*
X124267Y219893D01*
X124247Y219895D01*
X124229Y219903D01*
X124062Y219921D01*
X122538Y219921D01*
X122518Y219918D01*
X122499Y219920D01*
X122397Y219898D01*
X122295Y219882D01*
X122278Y219872D01*
X122258Y219868D01*
X122169Y219815D01*
X122078Y219766D01*
X122064Y219752D01*
X122047Y219742D01*
X121980Y219663D01*
X121909Y219588D01*
X121900Y219570D01*
X121887Y219555D01*
X121848Y219459D01*
X121805Y219365D01*
X121803Y219345D01*
X121795Y219327D01*
X121777Y219160D01*
X121777Y140659D01*
X59405Y140659D01*
X59288Y140640D01*
X59170Y140622D01*
X59166Y140620D01*
X59162Y140620D01*
X59057Y140564D01*
X58951Y140509D01*
X58948Y140506D01*
X58945Y140504D01*
X58863Y140418D01*
X58780Y140333D01*
X58778Y140329D01*
X58775Y140326D01*
X58725Y140218D01*
X58674Y140111D01*
X58673Y140107D01*
X58672Y140103D01*
X58658Y139985D01*
X58644Y139867D01*
X58645Y139862D01*
X58644Y139859D01*
X58647Y139845D01*
X58669Y139701D01*
X58741Y139435D01*
X58741Y133123D01*
X47723Y133123D01*
X47723Y141641D01*
X55095Y141641D01*
X55212Y141660D01*
X55330Y141678D01*
X55334Y141680D01*
X55338Y141680D01*
X55443Y141736D01*
X55549Y141791D01*
X55552Y141794D01*
X55555Y141796D01*
X55637Y141881D01*
X55720Y141967D01*
X55722Y141971D01*
X55725Y141974D01*
X55775Y142082D01*
X55826Y142189D01*
X55827Y142193D01*
X55828Y142197D01*
X55842Y142315D01*
X55856Y142433D01*
X55855Y142438D01*
X55856Y142441D01*
X55853Y142455D01*
X55831Y142599D01*
X55759Y142865D01*
X55759Y226677D01*
X95350Y226677D01*
X95397Y226685D01*
X95445Y226683D01*
X95518Y226704D01*
X95593Y226717D01*
X95635Y226739D01*
X95681Y226753D01*
X95743Y226796D01*
X95810Y226832D01*
X95843Y226866D01*
X95883Y226894D01*
X95928Y226955D01*
X95980Y227010D01*
X96000Y227054D01*
X96028Y227092D01*
X96051Y227164D01*
X96083Y227233D01*
X96089Y227281D01*
X96103Y227326D01*
X96102Y227402D01*
X96110Y227478D01*
X96100Y227524D01*
X96100Y227572D01*
X96074Y227644D01*
X96058Y227718D01*
X96034Y227759D01*
X96018Y227804D01*
X95971Y227864D01*
X95932Y227929D01*
X95896Y227960D01*
X95866Y227998D01*
X95762Y228074D01*
X95745Y228089D01*
X95739Y228091D01*
X95731Y228097D01*
X93091Y229621D01*
X92985Y229661D01*
X92878Y229705D01*
X92867Y229706D01*
X92861Y229708D01*
X92839Y229709D01*
X92711Y229723D01*
X55759Y229723D01*
X55759Y313534D01*
X55932Y314181D01*
X56267Y314760D01*
X56740Y315233D01*
X57319Y315568D01*
X57966Y315741D01*
X102313Y315741D01*
X102426Y315759D01*
X102540Y315775D01*
X102549Y315779D01*
X102556Y315780D01*
X102575Y315791D01*
X102694Y315843D01*
X103986Y316589D01*
X116712Y319999D01*
X128147Y319999D01*
X128244Y320014D01*
X128341Y320024D01*
X128364Y320034D01*
X128390Y320038D01*
X128476Y320084D01*
X128565Y320124D01*
X128585Y320141D01*
X128608Y320154D01*
X128675Y320224D01*
X128746Y320290D01*
X128759Y320313D01*
X128777Y320332D01*
X128818Y320420D01*
X128865Y320506D01*
X128870Y320531D01*
X128881Y320555D01*
X128891Y320652D01*
X128909Y320748D01*
X128905Y320774D01*
X128908Y320799D01*
X128887Y320895D01*
X128873Y320991D01*
X128861Y321014D01*
X128855Y321040D01*
X128806Y321123D01*
X128761Y321210D01*
X128743Y321229D01*
X128729Y321251D01*
X128655Y321314D01*
X128586Y321382D01*
X128557Y321398D01*
X128542Y321411D01*
X128512Y321423D01*
X128439Y321463D01*
X124669Y323025D01*
X121418Y326276D01*
X105040Y342653D01*
X104982Y342695D01*
X104930Y342745D01*
X104883Y342767D01*
X104841Y342797D01*
X104772Y342818D01*
X104707Y342848D01*
X104655Y342854D01*
X104605Y342869D01*
X104534Y342867D01*
X104463Y342875D01*
X104412Y342864D01*
X104360Y342863D01*
X104292Y342838D01*
X104222Y342823D01*
X104177Y342796D01*
X104129Y342779D01*
X104073Y342734D01*
X104011Y342697D01*
X103977Y342657D01*
X103937Y342625D01*
X103898Y342565D01*
X103851Y342510D01*
X103832Y342462D01*
X103804Y342418D01*
X103786Y342348D01*
X103759Y342282D01*
X103751Y342211D01*
X103743Y342179D01*
X103745Y342156D01*
X103741Y342115D01*
X103741Y337223D01*
X90023Y337223D01*
X90023Y350941D01*
X94915Y350941D01*
X94986Y350952D01*
X95058Y350954D01*
X95107Y350972D01*
X95158Y350980D01*
X95221Y351014D01*
X95289Y351039D01*
X95329Y351071D01*
X95375Y351096D01*
X95425Y351147D01*
X95481Y351192D01*
X95509Y351236D01*
X95545Y351274D01*
X95575Y351339D01*
X95614Y351399D01*
X95626Y351450D01*
X95648Y351497D01*
X95656Y351568D01*
X95674Y351638D01*
X95670Y351690D01*
X95675Y351741D01*
X95660Y351812D01*
X95655Y351883D01*
X95634Y351931D01*
X95623Y351982D01*
X95586Y352043D01*
X95558Y352109D01*
X95514Y352165D01*
X95497Y352193D01*
X95479Y352208D01*
X95453Y352240D01*
X87155Y360538D01*
X87081Y360591D01*
X87012Y360651D01*
X86982Y360663D01*
X86956Y360682D01*
X86869Y360709D01*
X86784Y360743D01*
X86743Y360747D01*
X86721Y360754D01*
X86688Y360753D01*
X86617Y360761D01*
X60470Y360761D01*
X60450Y360758D01*
X60431Y360760D01*
X60329Y360738D01*
X60227Y360722D01*
X60210Y360712D01*
X60190Y360708D01*
X60101Y360655D01*
X60010Y360606D01*
X59996Y360592D01*
X59979Y360582D01*
X59912Y360503D01*
X59840Y360428D01*
X59832Y360410D01*
X59819Y360395D01*
X59780Y360299D01*
X59737Y360205D01*
X59735Y360185D01*
X59727Y360167D01*
X59709Y360000D01*
X59709Y341873D01*
X58587Y339164D01*
X58572Y339100D01*
X58547Y339039D01*
X58538Y338956D01*
X58531Y338924D01*
X58532Y338905D01*
X58529Y338872D01*
X58529Y331557D01*
X55358Y323901D01*
X49499Y318042D01*
X41843Y314871D01*
X37770Y314871D01*
X37750Y314868D01*
X37731Y314870D01*
X37629Y314848D01*
X37527Y314832D01*
X37510Y314822D01*
X37490Y314818D01*
X37401Y314765D01*
X37310Y314716D01*
X37296Y314702D01*
X37279Y314692D01*
X37212Y314613D01*
X37140Y314538D01*
X37132Y314520D01*
X37119Y314505D01*
X37080Y314409D01*
X37037Y314315D01*
X37035Y314295D01*
X37027Y314277D01*
X37009Y314110D01*
X37009Y142402D01*
X37012Y142382D01*
X37010Y142363D01*
X37032Y142261D01*
X37048Y142159D01*
X37058Y142142D01*
X37062Y142122D01*
X37115Y142033D01*
X37164Y141942D01*
X37178Y141928D01*
X37188Y141911D01*
X37267Y141844D01*
X37342Y141772D01*
X37360Y141764D01*
X37375Y141751D01*
X37471Y141712D01*
X37565Y141669D01*
X37585Y141667D01*
X37603Y141659D01*
X37770Y141641D01*
X44677Y141641D01*
X44677Y132362D01*
X44680Y132342D01*
X44678Y132323D01*
X44700Y132221D01*
X44717Y132119D01*
X44726Y132102D01*
X44730Y132082D01*
X44783Y131993D01*
X44832Y131902D01*
X44846Y131888D01*
X44856Y131871D01*
X44935Y131804D01*
X45010Y131733D01*
X45028Y131724D01*
X45043Y131711D01*
X45139Y131672D01*
X45233Y131629D01*
X45253Y131627D01*
X45271Y131619D01*
X45438Y131601D01*
X46201Y131601D01*
X46201Y131599D01*
X45438Y131599D01*
X45418Y131596D01*
X45399Y131598D01*
X45297Y131576D01*
X45195Y131559D01*
X45178Y131550D01*
X45158Y131546D01*
X45069Y131493D01*
X44978Y131444D01*
X44964Y131430D01*
X44947Y131420D01*
X44880Y131341D01*
X44809Y131266D01*
X44800Y131248D01*
X44787Y131233D01*
X44748Y131137D01*
X44705Y131043D01*
X44703Y131023D01*
X44695Y131005D01*
X44677Y130838D01*
X44677Y121559D01*
X37770Y121559D01*
X37750Y121556D01*
X37731Y121558D01*
X37629Y121536D01*
X37527Y121520D01*
X37510Y121510D01*
X37490Y121506D01*
X37401Y121453D01*
X37310Y121404D01*
X37296Y121390D01*
X37279Y121380D01*
X37212Y121301D01*
X37140Y121226D01*
X37132Y121208D01*
X37119Y121193D01*
X37080Y121097D01*
X37037Y121003D01*
X37035Y120983D01*
X37027Y120965D01*
X37009Y120798D01*
X37009Y117990D01*
X37012Y117970D01*
X37010Y117951D01*
X37032Y117849D01*
X37048Y117747D01*
X37058Y117730D01*
X37062Y117710D01*
X37115Y117621D01*
X37164Y117530D01*
X37178Y117516D01*
X37188Y117499D01*
X37267Y117432D01*
X37342Y117360D01*
X37360Y117352D01*
X37375Y117339D01*
X37471Y117300D01*
X37565Y117257D01*
X37585Y117255D01*
X37603Y117247D01*
X37770Y117229D01*
X57817Y117229D01*
X60805Y115991D01*
X61764Y115032D01*
X61838Y114979D01*
X61907Y114919D01*
X61938Y114907D01*
X61964Y114888D01*
X62051Y114861D01*
X62136Y114827D01*
X62177Y114823D01*
X62199Y114816D01*
X62231Y114817D01*
X62302Y114809D01*
X72740Y114809D01*
X72760Y114812D01*
X72779Y114810D01*
X72881Y114832D01*
X72983Y114848D01*
X73000Y114858D01*
X73020Y114862D01*
X73109Y114915D01*
X73200Y114964D01*
X73214Y114978D01*
X73231Y114988D01*
X73298Y115067D01*
X73370Y115142D01*
X73378Y115160D01*
X73391Y115175D01*
X73430Y115271D01*
X73473Y115365D01*
X73475Y115385D01*
X73483Y115403D01*
X73501Y115570D01*
X73501Y118857D01*
X74739Y121845D01*
X77025Y124131D01*
X80013Y125369D01*
X113247Y125369D01*
X116235Y124131D01*
X118521Y121845D01*
X119759Y118857D01*
X119759Y75623D01*
X118521Y72635D01*
X116235Y70349D01*
X113247Y69111D01*
X80013Y69111D01*
X79343Y69389D01*
X79285Y69403D01*
X79230Y69426D01*
X79166Y69430D01*
X79115Y69443D01*
X79112Y69443D01*
X79103Y69445D01*
X79044Y69440D01*
X78985Y69444D01*
X78924Y69428D01*
X78870Y69424D01*
X78866Y69423D01*
X78858Y69422D01*
X78804Y69398D01*
X78746Y69383D01*
X78695Y69350D01*
X78644Y69328D01*
X78639Y69325D01*
X78634Y69322D01*
X78617Y69306D01*
X78569Y69268D01*
X78540Y69249D01*
X78526Y69234D01*
X78513Y69223D01*
X77339Y68050D01*
X76045Y67110D01*
X75493Y66828D01*
X75459Y66803D01*
X75421Y66786D01*
X75361Y66731D01*
X75295Y66683D01*
X75271Y66648D01*
X75240Y66620D01*
X75200Y66548D01*
X75153Y66482D01*
X75141Y66441D01*
X75121Y66405D01*
X75107Y66324D01*
X75083Y66246D01*
X75085Y66204D01*
X75077Y66162D01*
X75089Y66081D01*
X75092Y66000D01*
X75107Y65961D01*
X75113Y65919D01*
X75150Y65846D01*
X75179Y65770D01*
X75206Y65737D01*
X75225Y65700D01*
X75283Y65643D01*
X75335Y65579D01*
X75370Y65557D01*
X75400Y65528D01*
X75536Y65453D01*
X75543Y65448D01*
X75545Y65448D01*
X75547Y65447D01*
X79641Y63751D01*
X81592Y61800D01*
X81666Y61747D01*
X81736Y61687D01*
X81766Y61675D01*
X81792Y61656D01*
X81879Y61629D01*
X81964Y61595D01*
X82005Y61591D01*
X82027Y61584D01*
X82059Y61585D01*
X82131Y61577D01*
X85323Y61577D01*
X89431Y59875D01*
X110311Y38996D01*
X110385Y38943D01*
X110454Y38883D01*
X110484Y38871D01*
X110510Y38852D01*
X110597Y38825D01*
X110682Y38791D01*
X110723Y38787D01*
X110745Y38780D01*
X110778Y38781D01*
X110849Y38773D01*
X474813Y38773D01*
X474858Y38780D01*
G37*
G36*
X618393Y564258D02*
X618393Y564258D01*
X618509Y564275D01*
X618515Y564278D01*
X618521Y564279D01*
X618624Y564333D01*
X618728Y564386D01*
X618733Y564391D01*
X618738Y564394D01*
X618818Y564478D01*
X618901Y564562D01*
X618904Y564568D01*
X618908Y564572D01*
X618916Y564589D01*
X618982Y564709D01*
X619331Y565554D01*
X621046Y567269D01*
X623287Y568197D01*
X627898Y568197D01*
X627918Y568200D01*
X627937Y568198D01*
X628039Y568220D01*
X628141Y568236D01*
X628158Y568246D01*
X628178Y568250D01*
X628267Y568303D01*
X628358Y568352D01*
X628372Y568366D01*
X628389Y568376D01*
X628456Y568455D01*
X628528Y568530D01*
X628536Y568548D01*
X628549Y568563D01*
X628588Y568659D01*
X628631Y568753D01*
X628633Y568773D01*
X628641Y568791D01*
X628659Y568958D01*
X628659Y649277D01*
X672314Y649277D01*
X672362Y649285D01*
X672410Y649283D01*
X672482Y649304D01*
X672557Y649317D01*
X672599Y649339D01*
X672645Y649353D01*
X672708Y649396D01*
X672774Y649432D01*
X672807Y649466D01*
X672847Y649494D01*
X672892Y649555D01*
X672944Y649610D01*
X672964Y649653D01*
X672992Y649692D01*
X673016Y649764D01*
X673047Y649833D01*
X673053Y649881D01*
X673067Y649926D01*
X673066Y650002D01*
X673074Y650078D01*
X673064Y650124D01*
X673064Y650172D01*
X673038Y650244D01*
X673022Y650318D01*
X672998Y650359D01*
X672982Y650404D01*
X672935Y650464D01*
X672896Y650529D01*
X672860Y650560D01*
X672830Y650598D01*
X672726Y650674D01*
X672709Y650689D01*
X672703Y650691D01*
X672695Y650697D01*
X670055Y652221D01*
X669949Y652261D01*
X669842Y652305D01*
X669831Y652306D01*
X669825Y652308D01*
X669803Y652309D01*
X669675Y652323D01*
X628659Y652323D01*
X628659Y736134D01*
X628832Y736781D01*
X629167Y737360D01*
X629640Y737833D01*
X630219Y738168D01*
X630866Y738341D01*
X681472Y738341D01*
X681488Y738343D01*
X681503Y738341D01*
X681669Y738367D01*
X686782Y739737D01*
X686804Y739747D01*
X686828Y739751D01*
X686916Y739797D01*
X687006Y739838D01*
X687024Y739854D01*
X687045Y739866D01*
X687114Y739938D01*
X687187Y740005D01*
X687198Y740026D01*
X687215Y740044D01*
X687257Y740134D01*
X687304Y740221D01*
X687308Y740245D01*
X687318Y740267D01*
X687329Y740366D01*
X687346Y740464D01*
X687343Y740488D01*
X687345Y740511D01*
X687324Y740609D01*
X687309Y740707D01*
X687298Y740728D01*
X687293Y740752D01*
X687242Y740837D01*
X687197Y740926D01*
X687179Y740942D01*
X687167Y740963D01*
X687091Y741028D01*
X687020Y741097D01*
X686998Y741107D01*
X686980Y741123D01*
X686888Y741160D01*
X686798Y741203D01*
X686774Y741206D01*
X686752Y741215D01*
X686585Y741233D01*
X666887Y741233D01*
X664646Y742161D01*
X662931Y743876D01*
X662003Y746117D01*
X662003Y754778D01*
X662000Y754799D01*
X662002Y754819D01*
X661980Y754920D01*
X661964Y755021D01*
X661954Y755039D01*
X661949Y755059D01*
X661896Y755148D01*
X661848Y755239D01*
X661834Y755253D01*
X661823Y755270D01*
X661745Y755337D01*
X661670Y755408D01*
X661651Y755417D01*
X661636Y755430D01*
X661540Y755468D01*
X661447Y755512D01*
X661427Y755514D01*
X661407Y755521D01*
X661241Y755540D01*
X645215Y755512D01*
X642973Y756436D01*
X641255Y758148D01*
X641126Y758457D01*
X641088Y758518D01*
X641059Y758583D01*
X641024Y758622D01*
X640996Y758666D01*
X640941Y758712D01*
X640892Y758764D01*
X640847Y758789D01*
X640806Y758822D01*
X640739Y758848D01*
X640677Y758882D01*
X640625Y758892D01*
X640577Y758910D01*
X640505Y758913D01*
X640434Y758926D01*
X640383Y758918D01*
X640331Y758920D01*
X640262Y758900D01*
X640191Y758890D01*
X640145Y758866D01*
X640095Y758851D01*
X640036Y758810D01*
X639972Y758778D01*
X639936Y758740D01*
X639893Y758711D01*
X639850Y758653D01*
X639800Y758602D01*
X639766Y758539D01*
X639747Y758513D01*
X639739Y758491D01*
X639720Y758455D01*
X639592Y758145D01*
X637880Y756427D01*
X635641Y755495D01*
X617215Y755463D01*
X614973Y756387D01*
X613255Y758099D01*
X612323Y760338D01*
X612284Y782764D01*
X613208Y785006D01*
X614920Y786724D01*
X616787Y787501D01*
X616886Y787563D01*
X616985Y787622D01*
X616989Y787627D01*
X616995Y787631D01*
X617069Y787721D01*
X617145Y787809D01*
X617147Y787815D01*
X617152Y787821D01*
X617193Y787929D01*
X617237Y788037D01*
X617238Y788045D01*
X617240Y788051D01*
X617240Y788070D01*
X617255Y788204D01*
X617255Y788719D01*
X618647Y792080D01*
X628029Y801462D01*
X628071Y801520D01*
X628120Y801572D01*
X628142Y801619D01*
X628173Y801661D01*
X628194Y801730D01*
X628224Y801795D01*
X628230Y801847D01*
X628245Y801897D01*
X628243Y801968D01*
X628251Y802039D01*
X628240Y802090D01*
X628239Y802142D01*
X628214Y802210D01*
X628199Y802280D01*
X628172Y802324D01*
X628154Y802373D01*
X628109Y802429D01*
X628073Y802491D01*
X628033Y802525D01*
X628000Y802565D01*
X627940Y802604D01*
X627886Y802651D01*
X627837Y802670D01*
X627794Y802698D01*
X627724Y802716D01*
X627658Y802743D01*
X627586Y802751D01*
X627555Y802759D01*
X627532Y802757D01*
X627491Y802761D01*
X512500Y802761D01*
X512480Y802758D01*
X512461Y802760D01*
X512359Y802738D01*
X512257Y802722D01*
X512240Y802712D01*
X512220Y802708D01*
X512131Y802655D01*
X512040Y802606D01*
X512026Y802592D01*
X512009Y802582D01*
X511942Y802503D01*
X511871Y802428D01*
X511862Y802410D01*
X511849Y802395D01*
X511810Y802299D01*
X511767Y802205D01*
X511765Y802185D01*
X511757Y802167D01*
X511739Y802000D01*
X511739Y565000D01*
X511742Y564980D01*
X511740Y564961D01*
X511762Y564859D01*
X511779Y564757D01*
X511788Y564740D01*
X511792Y564720D01*
X511845Y564631D01*
X511894Y564540D01*
X511908Y564526D01*
X511918Y564509D01*
X511997Y564442D01*
X512072Y564371D01*
X512090Y564362D01*
X512105Y564349D01*
X512201Y564310D01*
X512295Y564267D01*
X512315Y564265D01*
X512333Y564257D01*
X512500Y564239D01*
X618278Y564239D01*
X618393Y564258D01*
G37*
G36*
X679282Y60004D02*
X679282Y60004D01*
X679301Y60002D01*
X679403Y60024D01*
X679505Y60041D01*
X679522Y60050D01*
X679542Y60054D01*
X679631Y60107D01*
X679722Y60156D01*
X679736Y60170D01*
X679753Y60180D01*
X679820Y60259D01*
X679891Y60334D01*
X679900Y60352D01*
X679913Y60367D01*
X679952Y60463D01*
X679995Y60557D01*
X679997Y60577D01*
X680005Y60595D01*
X680023Y60762D01*
X680023Y69541D01*
X683834Y69541D01*
X684017Y69492D01*
X684110Y69483D01*
X684202Y69466D01*
X684232Y69470D01*
X684262Y69467D01*
X684353Y69488D01*
X684445Y69502D01*
X684472Y69515D01*
X684502Y69522D01*
X684581Y69571D01*
X684664Y69613D01*
X684686Y69635D01*
X684711Y69651D01*
X684771Y69722D01*
X684837Y69789D01*
X684855Y69822D01*
X684869Y69839D01*
X684881Y69870D01*
X684918Y69936D01*
X685609Y71605D01*
X686100Y72096D01*
X686154Y72170D01*
X686213Y72239D01*
X686225Y72270D01*
X686244Y72296D01*
X686271Y72383D01*
X686305Y72468D01*
X686309Y72509D01*
X686316Y72531D01*
X686315Y72563D01*
X686323Y72634D01*
X686323Y74723D01*
X688025Y78831D01*
X691276Y82082D01*
X709633Y100440D01*
X709686Y100514D01*
X709746Y100583D01*
X709758Y100613D01*
X709777Y100639D01*
X709804Y100726D01*
X709838Y100811D01*
X709842Y100852D01*
X709849Y100874D01*
X709848Y100907D01*
X709856Y100978D01*
X709856Y118397D01*
X711094Y121385D01*
X712171Y122462D01*
X712183Y122478D01*
X712198Y122490D01*
X712254Y122578D01*
X712314Y122661D01*
X712320Y122680D01*
X712331Y122697D01*
X712356Y122798D01*
X712387Y122897D01*
X712386Y122916D01*
X712391Y122936D01*
X712383Y123039D01*
X712380Y123142D01*
X712374Y123161D01*
X712372Y123181D01*
X712332Y123276D01*
X712296Y123373D01*
X712284Y123389D01*
X712276Y123407D01*
X712171Y123538D01*
X711094Y124615D01*
X710697Y125573D01*
X710635Y125673D01*
X710576Y125773D01*
X710571Y125777D01*
X710567Y125782D01*
X710477Y125857D01*
X710389Y125933D01*
X710383Y125935D01*
X710378Y125939D01*
X710269Y125981D01*
X710160Y126025D01*
X710153Y126026D01*
X710148Y126027D01*
X710130Y126028D01*
X709994Y126043D01*
X702971Y126043D01*
X702881Y126029D01*
X702790Y126021D01*
X702760Y126009D01*
X702728Y126004D01*
X702647Y125961D01*
X702563Y125925D01*
X702531Y125899D01*
X702511Y125888D01*
X702488Y125865D01*
X702467Y125848D01*
X697618Y123839D01*
X692382Y123839D01*
X690593Y124580D01*
X690549Y124591D01*
X690507Y124610D01*
X690430Y124619D01*
X690354Y124636D01*
X690308Y124632D01*
X690263Y124637D01*
X690186Y124621D01*
X690109Y124613D01*
X690067Y124595D01*
X690022Y124585D01*
X689955Y124545D01*
X689884Y124513D01*
X689850Y124482D01*
X689811Y124459D01*
X689760Y124400D01*
X689703Y124347D01*
X689681Y124307D01*
X689651Y124272D01*
X689622Y124200D01*
X689585Y124131D01*
X689576Y124086D01*
X689559Y124044D01*
X689544Y123908D01*
X689541Y123889D01*
X689542Y123884D01*
X689541Y123877D01*
X689541Y122023D01*
X681523Y122023D01*
X681523Y128041D01*
X683509Y128041D01*
X683580Y128052D01*
X683652Y128054D01*
X683701Y128072D01*
X683752Y128080D01*
X683815Y128114D01*
X683883Y128139D01*
X683924Y128171D01*
X683970Y128196D01*
X684019Y128247D01*
X684075Y128292D01*
X684103Y128336D01*
X684139Y128374D01*
X684169Y128439D01*
X684208Y128499D01*
X684221Y128550D01*
X684243Y128597D01*
X684250Y128668D01*
X684268Y128738D01*
X684264Y128790D01*
X684270Y128841D01*
X684254Y128912D01*
X684249Y128983D01*
X684228Y129031D01*
X684217Y129082D01*
X684181Y129143D01*
X684152Y129209D01*
X684108Y129265D01*
X684091Y129293D01*
X684073Y129308D01*
X684048Y129340D01*
X683843Y129545D01*
X681839Y134382D01*
X681839Y139618D01*
X683843Y144455D01*
X687545Y148157D01*
X692382Y150161D01*
X697618Y150161D01*
X701737Y148455D01*
X701800Y148440D01*
X701861Y148415D01*
X701944Y148406D01*
X701976Y148399D01*
X701995Y148400D01*
X702028Y148397D01*
X709994Y148397D01*
X710108Y148416D01*
X710225Y148433D01*
X710230Y148435D01*
X710236Y148436D01*
X710339Y148491D01*
X710444Y148544D01*
X710448Y148549D01*
X710454Y148552D01*
X710534Y148636D01*
X710616Y148720D01*
X710620Y148726D01*
X710623Y148730D01*
X710631Y148747D01*
X710697Y148867D01*
X711094Y149825D01*
X713380Y152111D01*
X716368Y153349D01*
X737632Y153349D01*
X740620Y152111D01*
X742906Y149825D01*
X744144Y146837D01*
X744144Y127938D01*
X744147Y127918D01*
X744145Y127899D01*
X744167Y127797D01*
X744183Y127695D01*
X744193Y127678D01*
X744197Y127658D01*
X744250Y127569D01*
X744299Y127478D01*
X744313Y127464D01*
X744323Y127447D01*
X744402Y127380D01*
X744477Y127308D01*
X744495Y127300D01*
X744510Y127287D01*
X744606Y127248D01*
X744700Y127205D01*
X744720Y127203D01*
X744738Y127195D01*
X744905Y127177D01*
X750423Y127177D01*
X750538Y127196D01*
X750654Y127213D01*
X750660Y127215D01*
X750666Y127216D01*
X750768Y127271D01*
X750873Y127324D01*
X750878Y127329D01*
X750883Y127332D01*
X750963Y127416D01*
X751045Y127500D01*
X751049Y127506D01*
X751052Y127510D01*
X751060Y127527D01*
X751096Y127592D01*
X753395Y129891D01*
X756383Y131129D01*
X769617Y131129D01*
X772605Y129891D01*
X774891Y127605D01*
X776129Y124617D01*
X776129Y107383D01*
X774973Y104593D01*
X774963Y104549D01*
X774943Y104507D01*
X774935Y104430D01*
X774917Y104354D01*
X774921Y104308D01*
X774916Y104263D01*
X774933Y104186D01*
X774940Y104109D01*
X774959Y104067D01*
X774968Y104022D01*
X775008Y103955D01*
X775040Y103884D01*
X775071Y103850D01*
X775095Y103811D01*
X775154Y103760D01*
X775206Y103703D01*
X775247Y103681D01*
X775282Y103651D01*
X775354Y103622D01*
X775422Y103585D01*
X775467Y103576D01*
X775510Y103559D01*
X775646Y103544D01*
X775664Y103541D01*
X775669Y103542D01*
X775676Y103541D01*
X777834Y103541D01*
X778481Y103368D01*
X779060Y103033D01*
X779533Y102560D01*
X779868Y101981D01*
X780041Y101334D01*
X780041Y95523D01*
X773262Y95523D01*
X773242Y95520D01*
X773223Y95522D01*
X773121Y95500D01*
X773019Y95483D01*
X773002Y95474D01*
X772982Y95470D01*
X772893Y95417D01*
X772802Y95368D01*
X772788Y95354D01*
X772771Y95344D01*
X772704Y95265D01*
X772633Y95190D01*
X772624Y95172D01*
X772611Y95157D01*
X772572Y95061D01*
X772529Y94967D01*
X772527Y94947D01*
X772519Y94929D01*
X772501Y94762D01*
X772501Y93999D01*
X771738Y93999D01*
X771718Y93996D01*
X771699Y93998D01*
X771597Y93976D01*
X771495Y93959D01*
X771478Y93950D01*
X771458Y93946D01*
X771369Y93893D01*
X771278Y93844D01*
X771264Y93830D01*
X771247Y93820D01*
X771180Y93741D01*
X771109Y93666D01*
X771100Y93648D01*
X771087Y93633D01*
X771048Y93537D01*
X771005Y93443D01*
X771003Y93423D01*
X770995Y93405D01*
X770977Y93238D01*
X770977Y84459D01*
X767166Y84459D01*
X766983Y84508D01*
X766890Y84517D01*
X766798Y84534D01*
X766768Y84530D01*
X766738Y84533D01*
X766647Y84512D01*
X766555Y84498D01*
X766528Y84485D01*
X766498Y84478D01*
X766419Y84429D01*
X766336Y84387D01*
X766314Y84365D01*
X766289Y84349D01*
X766229Y84278D01*
X766163Y84211D01*
X766145Y84178D01*
X766131Y84161D01*
X766119Y84130D01*
X766082Y84064D01*
X765391Y82395D01*
X764900Y81904D01*
X764847Y81830D01*
X764787Y81761D01*
X764775Y81730D01*
X764756Y81704D01*
X764729Y81617D01*
X764695Y81532D01*
X764691Y81491D01*
X764684Y81469D01*
X764685Y81437D01*
X764677Y81366D01*
X764677Y78369D01*
X764691Y78279D01*
X764699Y78188D01*
X764711Y78159D01*
X764716Y78127D01*
X764759Y78046D01*
X764795Y77962D01*
X764821Y77930D01*
X764832Y77909D01*
X764855Y77887D01*
X764900Y77831D01*
X766906Y75825D01*
X767668Y73985D01*
X767692Y73946D01*
X767708Y73903D01*
X767757Y73842D01*
X767798Y73776D01*
X767833Y73746D01*
X767862Y73711D01*
X767927Y73669D01*
X767987Y73619D01*
X768030Y73603D01*
X768069Y73578D01*
X768144Y73559D01*
X768217Y73531D01*
X768263Y73529D01*
X768307Y73518D01*
X768385Y73524D01*
X768463Y73520D01*
X768507Y73533D01*
X768553Y73537D01*
X768624Y73567D01*
X768699Y73589D01*
X768737Y73615D01*
X768779Y73633D01*
X768886Y73719D01*
X768901Y73729D01*
X768904Y73733D01*
X768910Y73738D01*
X769425Y74253D01*
X770004Y74588D01*
X770651Y74761D01*
X778477Y74761D01*
X778477Y64982D01*
X778480Y64962D01*
X778478Y64943D01*
X778500Y64841D01*
X778517Y64739D01*
X778526Y64722D01*
X778530Y64702D01*
X778583Y64613D01*
X778632Y64522D01*
X778646Y64508D01*
X778656Y64491D01*
X778735Y64424D01*
X778810Y64353D01*
X778828Y64344D01*
X778843Y64331D01*
X778939Y64292D01*
X779033Y64249D01*
X779053Y64247D01*
X779071Y64239D01*
X779238Y64221D01*
X780762Y64221D01*
X780782Y64224D01*
X780801Y64222D01*
X780903Y64244D01*
X781005Y64261D01*
X781022Y64270D01*
X781042Y64274D01*
X781131Y64327D01*
X781222Y64376D01*
X781236Y64390D01*
X781253Y64400D01*
X781320Y64479D01*
X781391Y64554D01*
X781400Y64572D01*
X781413Y64587D01*
X781452Y64683D01*
X781495Y64777D01*
X781497Y64797D01*
X781505Y64815D01*
X781523Y64982D01*
X781523Y74761D01*
X788316Y74761D01*
X788336Y74764D01*
X788355Y74762D01*
X788457Y74784D01*
X788559Y74800D01*
X788576Y74810D01*
X788596Y74814D01*
X788685Y74867D01*
X788776Y74916D01*
X788790Y74930D01*
X788807Y74940D01*
X788874Y75019D01*
X788946Y75094D01*
X788954Y75112D01*
X788967Y75127D01*
X789006Y75223D01*
X789049Y75317D01*
X789051Y75337D01*
X789059Y75355D01*
X789077Y75522D01*
X789077Y301933D01*
X789066Y302004D01*
X789064Y302076D01*
X789046Y302125D01*
X789038Y302176D01*
X789004Y302239D01*
X788979Y302307D01*
X788947Y302347D01*
X788922Y302393D01*
X788870Y302443D01*
X788826Y302499D01*
X788782Y302527D01*
X788744Y302563D01*
X788679Y302593D01*
X788619Y302632D01*
X788568Y302644D01*
X788521Y302666D01*
X788450Y302674D01*
X788380Y302692D01*
X788328Y302688D01*
X788277Y302693D01*
X788206Y302678D01*
X788135Y302673D01*
X788087Y302652D01*
X788036Y302641D01*
X787975Y302604D01*
X787909Y302576D01*
X787853Y302531D01*
X787825Y302515D01*
X787810Y302497D01*
X787778Y302471D01*
X784831Y299525D01*
X780723Y297823D01*
X668301Y297823D01*
X668255Y297816D01*
X668210Y297818D01*
X668135Y297796D01*
X668058Y297784D01*
X668017Y297762D01*
X667973Y297749D01*
X667909Y297705D01*
X667841Y297668D01*
X667809Y297635D01*
X667771Y297609D01*
X667725Y297546D01*
X667671Y297490D01*
X667652Y297448D01*
X667624Y297412D01*
X667600Y297338D01*
X667568Y297267D01*
X667563Y297221D01*
X667548Y297178D01*
X667549Y297100D01*
X667540Y297023D01*
X667550Y296978D01*
X667551Y296932D01*
X667589Y296801D01*
X667593Y296782D01*
X667595Y296778D01*
X667597Y296771D01*
X667661Y296618D01*
X667661Y291382D01*
X665657Y286545D01*
X664927Y285815D01*
X664889Y285761D01*
X664843Y285715D01*
X664802Y285642D01*
X664783Y285615D01*
X664777Y285596D01*
X664762Y285568D01*
X663975Y283669D01*
X657681Y277375D01*
X653573Y275673D01*
X645802Y275673D01*
X645801Y275673D01*
X645601Y275673D01*
X645536Y275663D01*
X645471Y275662D01*
X645391Y275639D01*
X645358Y275633D01*
X645341Y275624D01*
X645309Y275615D01*
X644117Y275121D01*
X634362Y275121D01*
X634342Y275118D01*
X634323Y275120D01*
X634221Y275098D01*
X634119Y275082D01*
X634102Y275072D01*
X634082Y275068D01*
X633993Y275015D01*
X633902Y274966D01*
X633888Y274952D01*
X633871Y274942D01*
X633804Y274863D01*
X633733Y274788D01*
X633724Y274770D01*
X633711Y274755D01*
X633672Y274659D01*
X633629Y274565D01*
X633627Y274545D01*
X633619Y274527D01*
X633601Y274360D01*
X633601Y273940D01*
X633604Y273920D01*
X633602Y273901D01*
X633624Y273799D01*
X633641Y273697D01*
X633650Y273680D01*
X633654Y273660D01*
X633707Y273571D01*
X633756Y273480D01*
X633770Y273466D01*
X633780Y273449D01*
X633859Y273382D01*
X633934Y273310D01*
X633952Y273302D01*
X633967Y273289D01*
X634063Y273250D01*
X634157Y273207D01*
X634177Y273205D01*
X634195Y273197D01*
X634362Y273179D01*
X644117Y273179D01*
X645310Y272685D01*
X645373Y272670D01*
X645422Y272650D01*
X645511Y272601D01*
X647105Y271941D01*
X649391Y269655D01*
X650629Y266667D01*
X650629Y256233D01*
X650280Y255391D01*
X650259Y255302D01*
X650231Y255216D01*
X650231Y255183D01*
X650224Y255152D01*
X650232Y255061D01*
X650233Y254970D01*
X650245Y254930D01*
X650247Y254907D01*
X650260Y254878D01*
X650280Y254809D01*
X650629Y253967D01*
X650629Y243533D01*
X649391Y240545D01*
X647105Y238259D01*
X644117Y237021D01*
X626143Y237021D01*
X626053Y237007D01*
X625962Y236999D01*
X625932Y236987D01*
X625900Y236982D01*
X625819Y236939D01*
X625736Y236903D01*
X625703Y236877D01*
X625683Y236866D01*
X625676Y236860D01*
X625675Y236859D01*
X625659Y236842D01*
X625605Y236798D01*
X581400Y192593D01*
X581347Y192519D01*
X581287Y192450D01*
X581275Y192420D01*
X581256Y192394D01*
X581229Y192307D01*
X581195Y192222D01*
X581191Y192181D01*
X581184Y192159D01*
X581185Y192126D01*
X581177Y192055D01*
X581177Y166777D01*
X579475Y162669D01*
X562400Y145593D01*
X562347Y145519D01*
X562287Y145450D01*
X562275Y145420D01*
X562256Y145394D01*
X562229Y145307D01*
X562195Y145222D01*
X562191Y145181D01*
X562184Y145159D01*
X562185Y145126D01*
X562177Y145055D01*
X562177Y130945D01*
X562191Y130855D01*
X562199Y130764D01*
X562211Y130734D01*
X562216Y130702D01*
X562259Y130621D01*
X562295Y130538D01*
X562321Y130505D01*
X562332Y130485D01*
X562355Y130463D01*
X562400Y130407D01*
X564475Y128331D01*
X566177Y124223D01*
X566177Y120843D01*
X566188Y120772D01*
X566190Y120700D01*
X566208Y120651D01*
X566216Y120600D01*
X566250Y120536D01*
X566275Y120469D01*
X566307Y120428D01*
X566332Y120383D01*
X566384Y120333D01*
X566429Y120277D01*
X566472Y120249D01*
X566510Y120213D01*
X566575Y120183D01*
X566636Y120144D01*
X566686Y120131D01*
X566733Y120110D01*
X566804Y120102D01*
X566874Y120084D01*
X566926Y120088D01*
X566977Y120082D01*
X567048Y120098D01*
X567120Y120103D01*
X567167Y120124D01*
X567218Y120135D01*
X567280Y120172D01*
X567346Y120200D01*
X567379Y120227D01*
X568004Y120588D01*
X568651Y120761D01*
X576477Y120761D01*
X576477Y110982D01*
X576480Y110962D01*
X576478Y110943D01*
X576500Y110841D01*
X576517Y110739D01*
X576526Y110722D01*
X576530Y110702D01*
X576583Y110613D01*
X576632Y110522D01*
X576646Y110508D01*
X576656Y110491D01*
X576735Y110424D01*
X576810Y110353D01*
X576828Y110344D01*
X576843Y110331D01*
X576939Y110292D01*
X577033Y110249D01*
X577053Y110247D01*
X577071Y110239D01*
X577238Y110221D01*
X578762Y110221D01*
X578782Y110224D01*
X578801Y110222D01*
X578903Y110244D01*
X579005Y110261D01*
X579022Y110270D01*
X579042Y110274D01*
X579131Y110327D01*
X579222Y110376D01*
X579236Y110390D01*
X579253Y110400D01*
X579320Y110479D01*
X579391Y110554D01*
X579400Y110572D01*
X579413Y110587D01*
X579452Y110683D01*
X579495Y110777D01*
X579497Y110797D01*
X579505Y110815D01*
X579523Y110982D01*
X579523Y120761D01*
X587349Y120761D01*
X587996Y120588D01*
X588189Y120476D01*
X588254Y120451D01*
X588316Y120418D01*
X588369Y120408D01*
X588419Y120389D01*
X588489Y120386D01*
X588558Y120374D01*
X588611Y120382D01*
X588665Y120380D01*
X588732Y120400D01*
X588801Y120410D01*
X588849Y120434D01*
X588901Y120450D01*
X588958Y120490D01*
X589020Y120521D01*
X589058Y120560D01*
X589102Y120591D01*
X589144Y120647D01*
X589192Y120697D01*
X589229Y120763D01*
X589248Y120789D01*
X589255Y120810D01*
X589273Y120844D01*
X590094Y122825D01*
X592380Y125111D01*
X595368Y126349D01*
X596743Y126349D01*
X596789Y126356D01*
X596834Y126354D01*
X596909Y126376D01*
X596986Y126388D01*
X597027Y126410D01*
X597071Y126423D01*
X597135Y126467D01*
X597203Y126504D01*
X597235Y126537D01*
X597273Y126563D01*
X597319Y126625D01*
X597373Y126682D01*
X597392Y126724D01*
X597419Y126760D01*
X597444Y126834D01*
X597476Y126905D01*
X597481Y126951D01*
X597496Y126994D01*
X597495Y127072D01*
X597503Y127149D01*
X597494Y127194D01*
X597493Y127240D01*
X597455Y127372D01*
X597451Y127390D01*
X597449Y127394D01*
X597447Y127401D01*
X597371Y127583D01*
X597371Y133421D01*
X597360Y133492D01*
X597358Y133564D01*
X597340Y133613D01*
X597332Y133664D01*
X597298Y133727D01*
X597273Y133795D01*
X597241Y133836D01*
X597216Y133882D01*
X597165Y133931D01*
X597120Y133987D01*
X597076Y134015D01*
X597038Y134051D01*
X596973Y134081D01*
X596913Y134120D01*
X596862Y134133D01*
X596815Y134155D01*
X596744Y134162D01*
X596674Y134180D01*
X596622Y134176D01*
X596571Y134182D01*
X596500Y134166D01*
X596429Y134161D01*
X596381Y134140D01*
X596330Y134129D01*
X596269Y134093D01*
X596203Y134064D01*
X596147Y134020D01*
X596119Y134003D01*
X596104Y133985D01*
X596072Y133960D01*
X595955Y133843D01*
X591118Y131839D01*
X585882Y131839D01*
X581045Y133843D01*
X577343Y137545D01*
X575339Y142382D01*
X575339Y147618D01*
X577343Y152455D01*
X581045Y156157D01*
X585882Y158161D01*
X591118Y158161D01*
X592987Y157387D01*
X593050Y157372D01*
X593111Y157347D01*
X593194Y157338D01*
X593226Y157331D01*
X593245Y157332D01*
X593278Y157329D01*
X603635Y157329D01*
X605639Y157329D01*
X622117Y157329D01*
X625105Y156091D01*
X627462Y153734D01*
X627478Y153722D01*
X627490Y153707D01*
X627578Y153651D01*
X627661Y153591D01*
X627680Y153585D01*
X627697Y153574D01*
X627798Y153549D01*
X627897Y153518D01*
X627916Y153519D01*
X627936Y153514D01*
X628039Y153522D01*
X628142Y153525D01*
X628161Y153531D01*
X628181Y153533D01*
X628276Y153573D01*
X628373Y153609D01*
X628389Y153621D01*
X628407Y153629D01*
X628538Y153734D01*
X629568Y154764D01*
X629621Y154838D01*
X629681Y154907D01*
X629693Y154938D01*
X629712Y154964D01*
X629739Y155051D01*
X629773Y155136D01*
X629777Y155177D01*
X629784Y155199D01*
X629783Y155231D01*
X629791Y155302D01*
X629791Y157228D01*
X629788Y157248D01*
X629790Y157267D01*
X629768Y157368D01*
X629752Y157471D01*
X629742Y157488D01*
X629738Y157508D01*
X629685Y157597D01*
X629636Y157688D01*
X629622Y157702D01*
X629612Y157719D01*
X629533Y157786D01*
X629458Y157858D01*
X629440Y157866D01*
X629425Y157879D01*
X629329Y157918D01*
X629235Y157961D01*
X629215Y157963D01*
X629197Y157971D01*
X629172Y157974D01*
X623065Y160503D01*
X618421Y165147D01*
X615907Y171216D01*
X615907Y177784D01*
X618421Y183853D01*
X623065Y188497D01*
X629134Y191011D01*
X638315Y191011D01*
X638406Y191025D01*
X638496Y191033D01*
X638526Y191045D01*
X638558Y191050D01*
X638639Y191093D01*
X638723Y191129D01*
X638755Y191155D01*
X638776Y191166D01*
X638798Y191189D01*
X638854Y191234D01*
X640368Y192748D01*
X640421Y192822D01*
X640481Y192892D01*
X640493Y192922D01*
X640512Y192948D01*
X640539Y193035D01*
X640573Y193120D01*
X640577Y193161D01*
X640584Y193183D01*
X640583Y193215D01*
X640591Y193287D01*
X640591Y199344D01*
X640577Y199434D01*
X640569Y199525D01*
X640557Y199555D01*
X640552Y199586D01*
X640509Y199667D01*
X640473Y199751D01*
X640447Y199783D01*
X640436Y199804D01*
X640413Y199826D01*
X640368Y199882D01*
X639403Y200847D01*
X636889Y206916D01*
X636889Y213484D01*
X639403Y219553D01*
X644047Y224197D01*
X650116Y226711D01*
X656684Y226711D01*
X662753Y224197D01*
X667397Y219553D01*
X669911Y213484D01*
X669911Y206916D01*
X667397Y200847D01*
X667232Y200682D01*
X667179Y200608D01*
X667119Y200539D01*
X667107Y200509D01*
X667088Y200482D01*
X667061Y200395D01*
X667027Y200310D01*
X667023Y200270D01*
X667016Y200247D01*
X667017Y200215D01*
X667009Y200144D01*
X667009Y184873D01*
X665003Y180031D01*
X664983Y179942D01*
X664954Y179856D01*
X664955Y179823D01*
X664947Y179792D01*
X664956Y179701D01*
X664957Y179610D01*
X664968Y179570D01*
X664970Y179547D01*
X664983Y179517D01*
X665003Y179449D01*
X665693Y177784D01*
X665693Y171216D01*
X663179Y165147D01*
X658535Y160503D01*
X656679Y159734D01*
X656579Y159673D01*
X656479Y159613D01*
X656475Y159608D01*
X656470Y159605D01*
X656395Y159514D01*
X656319Y159426D01*
X656317Y159420D01*
X656313Y159415D01*
X656271Y159307D01*
X656227Y159198D01*
X656226Y159190D01*
X656225Y159185D01*
X656224Y159167D01*
X656209Y159031D01*
X656209Y155302D01*
X656223Y155212D01*
X656231Y155121D01*
X656243Y155092D01*
X656248Y155060D01*
X656291Y154979D01*
X656327Y154895D01*
X656353Y154863D01*
X656364Y154842D01*
X656387Y154820D01*
X656432Y154764D01*
X657391Y153805D01*
X658629Y150817D01*
X658629Y127583D01*
X657634Y125181D01*
X657623Y125137D01*
X657604Y125095D01*
X657595Y125018D01*
X657578Y124942D01*
X657582Y124896D01*
X657577Y124851D01*
X657593Y124774D01*
X657601Y124697D01*
X657619Y124655D01*
X657629Y124610D01*
X657669Y124543D01*
X657701Y124472D01*
X657732Y124438D01*
X657755Y124399D01*
X657814Y124348D01*
X657867Y124291D01*
X657907Y124269D01*
X657942Y124239D01*
X658015Y124210D01*
X658083Y124173D01*
X658128Y124164D01*
X658170Y124147D01*
X658306Y124132D01*
X658325Y124129D01*
X658330Y124130D01*
X658337Y124129D01*
X666617Y124129D01*
X669407Y122973D01*
X669451Y122963D01*
X669493Y122943D01*
X669570Y122935D01*
X669646Y122917D01*
X669692Y122921D01*
X669737Y122916D01*
X669814Y122933D01*
X669891Y122940D01*
X669933Y122959D01*
X669978Y122968D01*
X670045Y123008D01*
X670116Y123040D01*
X670150Y123071D01*
X670189Y123095D01*
X670240Y123154D01*
X670297Y123206D01*
X670319Y123247D01*
X670349Y123282D01*
X670378Y123354D01*
X670415Y123422D01*
X670424Y123467D01*
X670441Y123510D01*
X670456Y123646D01*
X670459Y123664D01*
X670458Y123669D01*
X670459Y123676D01*
X670459Y125834D01*
X670632Y126481D01*
X670967Y127060D01*
X671440Y127533D01*
X672019Y127868D01*
X672666Y128041D01*
X678477Y128041D01*
X678477Y121262D01*
X678480Y121242D01*
X678478Y121223D01*
X678500Y121121D01*
X678517Y121019D01*
X678526Y121002D01*
X678530Y120982D01*
X678583Y120893D01*
X678632Y120802D01*
X678646Y120788D01*
X678656Y120771D01*
X678735Y120704D01*
X678810Y120633D01*
X678828Y120624D01*
X678843Y120611D01*
X678939Y120572D01*
X679033Y120529D01*
X679053Y120527D01*
X679071Y120519D01*
X679238Y120501D01*
X680001Y120501D01*
X680001Y119738D01*
X680004Y119718D01*
X680002Y119699D01*
X680024Y119597D01*
X680041Y119495D01*
X680050Y119478D01*
X680054Y119458D01*
X680107Y119369D01*
X680156Y119278D01*
X680170Y119264D01*
X680180Y119247D01*
X680259Y119180D01*
X680334Y119109D01*
X680352Y119100D01*
X680367Y119087D01*
X680463Y119048D01*
X680557Y119005D01*
X680577Y119003D01*
X680595Y118995D01*
X680762Y118977D01*
X689541Y118977D01*
X689541Y115166D01*
X689492Y114983D01*
X689483Y114890D01*
X689466Y114798D01*
X689470Y114768D01*
X689467Y114738D01*
X689488Y114647D01*
X689502Y114555D01*
X689515Y114528D01*
X689522Y114498D01*
X689571Y114419D01*
X689613Y114336D01*
X689635Y114314D01*
X689651Y114289D01*
X689722Y114229D01*
X689789Y114163D01*
X689822Y114145D01*
X689839Y114131D01*
X689870Y114119D01*
X689936Y114082D01*
X691605Y113391D01*
X693891Y111105D01*
X695129Y108117D01*
X695129Y94883D01*
X693891Y91895D01*
X691605Y89609D01*
X691286Y89477D01*
X691209Y89429D01*
X691127Y89387D01*
X691105Y89364D01*
X691077Y89347D01*
X691019Y89277D01*
X690955Y89212D01*
X690935Y89176D01*
X690920Y89158D01*
X690909Y89128D01*
X690874Y89065D01*
X689475Y85687D01*
X686739Y82951D01*
X686701Y82898D01*
X686655Y82851D01*
X686615Y82778D01*
X686595Y82751D01*
X686590Y82733D01*
X686574Y82704D01*
X684648Y78054D01*
X680946Y74352D01*
X676109Y72349D01*
X670873Y72349D01*
X669346Y72981D01*
X669276Y72997D01*
X669209Y73023D01*
X669157Y73025D01*
X669106Y73037D01*
X669035Y73031D01*
X668963Y73034D01*
X668913Y73019D01*
X668861Y73014D01*
X668796Y72985D01*
X668727Y72965D01*
X668684Y72935D01*
X668637Y72914D01*
X668584Y72866D01*
X668525Y72825D01*
X668494Y72783D01*
X668456Y72748D01*
X668421Y72685D01*
X668378Y72627D01*
X668362Y72578D01*
X668337Y72532D01*
X668324Y72462D01*
X668302Y72394D01*
X668303Y72341D01*
X668293Y72290D01*
X668304Y72219D01*
X668304Y72148D01*
X668324Y72079D01*
X668329Y72047D01*
X668340Y72026D01*
X668351Y71986D01*
X669888Y68275D01*
X669900Y68257D01*
X669906Y68235D01*
X669965Y68152D01*
X670018Y68066D01*
X670035Y68052D01*
X670048Y68034D01*
X670130Y67974D01*
X670208Y67909D01*
X670228Y67902D01*
X670246Y67888D01*
X670343Y67858D01*
X670437Y67821D01*
X670459Y67820D01*
X670480Y67814D01*
X670582Y67815D01*
X670683Y67811D01*
X670704Y67817D01*
X670726Y67817D01*
X670822Y67851D01*
X670919Y67879D01*
X670937Y67892D01*
X670958Y67899D01*
X671038Y67962D01*
X671121Y68020D01*
X671134Y68037D01*
X671152Y68051D01*
X671251Y68186D01*
X671467Y68560D01*
X671940Y69033D01*
X672519Y69368D01*
X673166Y69541D01*
X676977Y69541D01*
X676977Y60762D01*
X676980Y60742D01*
X676978Y60723D01*
X677000Y60621D01*
X677017Y60519D01*
X677026Y60502D01*
X677030Y60482D01*
X677083Y60393D01*
X677132Y60302D01*
X677146Y60288D01*
X677156Y60271D01*
X677235Y60204D01*
X677310Y60133D01*
X677328Y60124D01*
X677343Y60111D01*
X677439Y60072D01*
X677533Y60029D01*
X677553Y60027D01*
X677571Y60019D01*
X677738Y60001D01*
X679262Y60001D01*
X679282Y60004D01*
G37*
G36*
X501520Y563742D02*
X501520Y563742D01*
X501539Y563740D01*
X501641Y563762D01*
X501743Y563779D01*
X501760Y563788D01*
X501780Y563792D01*
X501869Y563845D01*
X501960Y563894D01*
X501974Y563908D01*
X501991Y563918D01*
X502058Y563997D01*
X502130Y564072D01*
X502138Y564090D01*
X502151Y564105D01*
X502190Y564201D01*
X502233Y564295D01*
X502235Y564315D01*
X502243Y564333D01*
X502261Y564500D01*
X502261Y801000D01*
X502258Y801020D01*
X502260Y801039D01*
X502238Y801141D01*
X502222Y801243D01*
X502212Y801260D01*
X502208Y801280D01*
X502155Y801369D01*
X502106Y801460D01*
X502092Y801474D01*
X502082Y801491D01*
X502003Y801558D01*
X501928Y801630D01*
X501910Y801638D01*
X501895Y801651D01*
X501799Y801690D01*
X501705Y801733D01*
X501685Y801735D01*
X501667Y801743D01*
X501500Y801761D01*
X327496Y801761D01*
X327451Y801754D01*
X327405Y801756D01*
X327330Y801734D01*
X327253Y801722D01*
X327213Y801700D01*
X327169Y801687D01*
X327105Y801643D01*
X327036Y801606D01*
X327004Y801573D01*
X326967Y801547D01*
X326920Y801484D01*
X326866Y801428D01*
X326847Y801386D01*
X326820Y801350D01*
X326796Y801276D01*
X326763Y801205D01*
X326758Y801159D01*
X326744Y801116D01*
X326744Y801038D01*
X326736Y800961D01*
X326746Y800916D01*
X326746Y800870D01*
X326784Y800739D01*
X326788Y800720D01*
X326791Y800716D01*
X326793Y800709D01*
X326901Y800448D01*
X326901Y796155D01*
X326908Y796109D01*
X326906Y796063D01*
X326928Y795989D01*
X326940Y795912D01*
X326962Y795871D01*
X326975Y795827D01*
X327019Y795763D01*
X327056Y795694D01*
X327089Y795663D01*
X327115Y795625D01*
X327177Y795579D01*
X327234Y795525D01*
X327276Y795506D01*
X327312Y795478D01*
X327386Y795454D01*
X327457Y795421D01*
X327503Y795416D01*
X327546Y795402D01*
X327624Y795403D01*
X327701Y795394D01*
X327746Y795404D01*
X327792Y795405D01*
X327924Y795443D01*
X327942Y795447D01*
X327946Y795449D01*
X327953Y795451D01*
X329352Y796031D01*
X363848Y796031D01*
X368001Y794310D01*
X371180Y791131D01*
X372901Y786978D01*
X372901Y742482D01*
X372711Y742023D01*
X372700Y741979D01*
X372681Y741937D01*
X372672Y741860D01*
X372655Y741784D01*
X372659Y741738D01*
X372654Y741693D01*
X372670Y741616D01*
X372678Y741539D01*
X372696Y741497D01*
X372706Y741452D01*
X372746Y741385D01*
X372778Y741314D01*
X372809Y741280D01*
X372832Y741241D01*
X372891Y741190D01*
X372944Y741133D01*
X372984Y741111D01*
X373019Y741081D01*
X373091Y741052D01*
X373160Y741015D01*
X373205Y741006D01*
X373247Y740989D01*
X373383Y740974D01*
X373402Y740971D01*
X373407Y740972D01*
X373414Y740971D01*
X385605Y740971D01*
X399139Y737345D01*
X405550Y733643D01*
X405657Y733602D01*
X405764Y733559D01*
X405774Y733558D01*
X405780Y733556D01*
X405803Y733555D01*
X405931Y733541D01*
X443934Y733541D01*
X444581Y733368D01*
X445160Y733033D01*
X445633Y732560D01*
X445968Y731981D01*
X446141Y731334D01*
X446141Y647523D01*
X413930Y647523D01*
X413840Y647508D01*
X413749Y647501D01*
X413719Y647489D01*
X413687Y647483D01*
X413607Y647441D01*
X413523Y647405D01*
X413490Y647379D01*
X413470Y647368D01*
X413448Y647345D01*
X413392Y647300D01*
X411868Y645776D01*
X411826Y645718D01*
X411776Y645666D01*
X411754Y645619D01*
X411724Y645577D01*
X411703Y645508D01*
X411673Y645443D01*
X411667Y645391D01*
X411652Y645342D01*
X411654Y645270D01*
X411646Y645199D01*
X411657Y645148D01*
X411658Y645096D01*
X411683Y645028D01*
X411698Y644958D01*
X411725Y644914D01*
X411743Y644865D01*
X411787Y644809D01*
X411824Y644747D01*
X411864Y644713D01*
X411896Y644673D01*
X411957Y644634D01*
X412011Y644587D01*
X412059Y644568D01*
X412103Y644540D01*
X412173Y644522D01*
X412239Y644495D01*
X412311Y644487D01*
X412342Y644480D01*
X412365Y644481D01*
X412406Y644477D01*
X446141Y644477D01*
X446141Y564500D01*
X446144Y564480D01*
X446142Y564461D01*
X446164Y564359D01*
X446180Y564257D01*
X446190Y564240D01*
X446194Y564220D01*
X446247Y564131D01*
X446296Y564040D01*
X446310Y564026D01*
X446320Y564009D01*
X446399Y563942D01*
X446474Y563871D01*
X446492Y563862D01*
X446507Y563849D01*
X446603Y563810D01*
X446697Y563767D01*
X446717Y563765D01*
X446735Y563757D01*
X446902Y563739D01*
X501500Y563739D01*
X501520Y563742D01*
G37*
G36*
X310318Y563742D02*
X310318Y563742D01*
X310337Y563740D01*
X310439Y563762D01*
X310541Y563779D01*
X310558Y563788D01*
X310578Y563792D01*
X310667Y563845D01*
X310758Y563894D01*
X310772Y563908D01*
X310789Y563918D01*
X310856Y563997D01*
X310928Y564072D01*
X310936Y564090D01*
X310949Y564105D01*
X310988Y564201D01*
X311031Y564295D01*
X311033Y564315D01*
X311041Y564333D01*
X311059Y564500D01*
X311059Y644477D01*
X344794Y644477D01*
X344865Y644488D01*
X344937Y644490D01*
X344985Y644508D01*
X345037Y644517D01*
X345100Y644550D01*
X345168Y644575D01*
X345208Y644607D01*
X345254Y644632D01*
X345304Y644684D01*
X345360Y644728D01*
X345388Y644772D01*
X345424Y644810D01*
X345454Y644875D01*
X345493Y644935D01*
X345505Y644986D01*
X345527Y645033D01*
X345535Y645104D01*
X345553Y645174D01*
X345549Y645226D01*
X345554Y645278D01*
X345539Y645348D01*
X345533Y645419D01*
X345513Y645467D01*
X345502Y645518D01*
X345465Y645579D01*
X345437Y645645D01*
X345392Y645701D01*
X345376Y645729D01*
X345358Y645744D01*
X345332Y645776D01*
X343808Y647300D01*
X343734Y647353D01*
X343665Y647413D01*
X343635Y647425D01*
X343609Y647444D01*
X343522Y647471D01*
X343437Y647505D01*
X343396Y647509D01*
X343374Y647516D01*
X343341Y647515D01*
X343270Y647523D01*
X311059Y647523D01*
X311059Y731334D01*
X311232Y731981D01*
X311567Y732560D01*
X312040Y733033D01*
X312619Y733368D01*
X313266Y733541D01*
X325256Y733541D01*
X325352Y733556D01*
X325449Y733566D01*
X325473Y733576D01*
X325499Y733580D01*
X325585Y733626D01*
X325674Y733666D01*
X325693Y733683D01*
X325716Y733696D01*
X325783Y733766D01*
X325855Y733832D01*
X325867Y733855D01*
X325885Y733874D01*
X325927Y733962D01*
X325973Y734048D01*
X325978Y734073D01*
X325989Y734097D01*
X326000Y734194D01*
X326017Y734290D01*
X326013Y734316D01*
X326016Y734341D01*
X325996Y734436D01*
X325981Y734533D01*
X325970Y734556D01*
X325964Y734582D01*
X325914Y734665D01*
X325870Y734752D01*
X325851Y734771D01*
X325838Y734793D01*
X325764Y734856D01*
X325694Y734924D01*
X325666Y734940D01*
X325651Y734953D01*
X325620Y734965D01*
X325547Y735005D01*
X325199Y735150D01*
X322020Y738329D01*
X320299Y742482D01*
X320299Y742775D01*
X320292Y742821D01*
X320294Y742867D01*
X320272Y742941D01*
X320260Y743018D01*
X320238Y743059D01*
X320225Y743103D01*
X320181Y743167D01*
X320144Y743236D01*
X320111Y743267D01*
X320085Y743305D01*
X320023Y743351D01*
X319966Y743405D01*
X319924Y743424D01*
X319888Y743452D01*
X319814Y743476D01*
X319743Y743509D01*
X319697Y743514D01*
X319654Y743528D01*
X319576Y743527D01*
X319499Y743536D01*
X319454Y743526D01*
X319408Y743525D01*
X319276Y743487D01*
X319258Y743483D01*
X319254Y743481D01*
X319247Y743479D01*
X317848Y742899D01*
X293352Y742899D01*
X289199Y744620D01*
X286020Y747799D01*
X284299Y751952D01*
X284299Y772448D01*
X285273Y774799D01*
X285284Y774843D01*
X285303Y774885D01*
X285311Y774962D01*
X285329Y775038D01*
X285325Y775084D01*
X285330Y775129D01*
X285313Y775206D01*
X285306Y775283D01*
X285287Y775325D01*
X285278Y775370D01*
X285238Y775437D01*
X285206Y775508D01*
X285175Y775542D01*
X285152Y775581D01*
X285092Y775632D01*
X285040Y775689D01*
X284999Y775711D01*
X284965Y775741D01*
X284892Y775770D01*
X284824Y775807D01*
X284779Y775816D01*
X284736Y775833D01*
X284601Y775848D01*
X284582Y775851D01*
X284577Y775850D01*
X284570Y775851D01*
X261332Y775851D01*
X261304Y775847D01*
X261252Y775847D01*
X259203Y775631D01*
X258565Y775820D01*
X258540Y775823D01*
X258516Y775833D01*
X258349Y775851D01*
X257684Y775851D01*
X255780Y776640D01*
X255753Y776646D01*
X255705Y776666D01*
X253729Y777251D01*
X253212Y777670D01*
X253190Y777682D01*
X253172Y777700D01*
X253025Y777781D01*
X252410Y778036D01*
X250953Y779493D01*
X250930Y779509D01*
X250894Y779546D01*
X237778Y790162D01*
X237705Y790203D01*
X237637Y790252D01*
X237599Y790264D01*
X237564Y790284D01*
X237482Y790300D01*
X237402Y790324D01*
X237362Y790323D01*
X237323Y790331D01*
X237240Y790320D01*
X237156Y790318D01*
X237119Y790304D01*
X237079Y790299D01*
X237004Y790262D01*
X236925Y790233D01*
X236894Y790208D01*
X236858Y790191D01*
X236799Y790132D01*
X236733Y790080D01*
X236712Y790046D01*
X236683Y790018D01*
X236645Y789943D01*
X236600Y789873D01*
X236590Y789834D01*
X236572Y789798D01*
X236561Y789715D01*
X236540Y789634D01*
X236543Y789594D01*
X236538Y789554D01*
X236553Y789472D01*
X236559Y789389D01*
X236575Y789352D01*
X236582Y789313D01*
X236623Y789240D01*
X236656Y789163D01*
X236688Y789122D01*
X236702Y789098D01*
X236733Y789066D01*
X236760Y789032D01*
X240664Y785128D01*
X242849Y779854D01*
X242849Y572259D01*
X242863Y572169D01*
X242871Y572078D01*
X242883Y572048D01*
X242888Y572016D01*
X242931Y571935D01*
X242967Y571851D01*
X242993Y571819D01*
X243004Y571799D01*
X243027Y571776D01*
X243072Y571721D01*
X247221Y567572D01*
X247294Y567519D01*
X247364Y567459D01*
X247394Y567447D01*
X247420Y567428D01*
X247507Y567401D01*
X247592Y567367D01*
X247633Y567363D01*
X247655Y567356D01*
X247688Y567357D01*
X247759Y567349D01*
X296154Y567349D01*
X301428Y565164D01*
X302630Y563962D01*
X302704Y563909D01*
X302774Y563849D01*
X302804Y563837D01*
X302830Y563818D01*
X302917Y563791D01*
X303002Y563757D01*
X303043Y563753D01*
X303065Y563746D01*
X303097Y563747D01*
X303169Y563739D01*
X310298Y563739D01*
X310318Y563742D01*
G37*
G36*
X218710Y652242D02*
X218710Y652242D01*
X218729Y652240D01*
X218831Y652262D01*
X218933Y652279D01*
X218950Y652288D01*
X218970Y652292D01*
X219059Y652345D01*
X219150Y652394D01*
X219164Y652408D01*
X219181Y652418D01*
X219248Y652497D01*
X219320Y652572D01*
X219328Y652590D01*
X219341Y652605D01*
X219380Y652701D01*
X219423Y652795D01*
X219425Y652815D01*
X219433Y652833D01*
X219451Y653000D01*
X219451Y772190D01*
X219448Y772210D01*
X219450Y772229D01*
X219428Y772331D01*
X219412Y772433D01*
X219402Y772450D01*
X219398Y772470D01*
X219345Y772559D01*
X219296Y772650D01*
X219282Y772664D01*
X219272Y772681D01*
X219193Y772748D01*
X219118Y772820D01*
X219100Y772828D01*
X219085Y772841D01*
X218989Y772880D01*
X218895Y772923D01*
X218875Y772925D01*
X218857Y772933D01*
X218690Y772951D01*
X107500Y772951D01*
X107480Y772948D01*
X107461Y772950D01*
X107359Y772928D01*
X107257Y772912D01*
X107240Y772902D01*
X107220Y772898D01*
X107131Y772845D01*
X107040Y772796D01*
X107026Y772782D01*
X107009Y772772D01*
X106942Y772693D01*
X106871Y772618D01*
X106862Y772600D01*
X106849Y772585D01*
X106810Y772489D01*
X106767Y772395D01*
X106765Y772375D01*
X106757Y772357D01*
X106739Y772190D01*
X106739Y656000D01*
X106754Y655910D01*
X106761Y655819D01*
X106773Y655789D01*
X106779Y655757D01*
X106821Y655677D01*
X106857Y655593D01*
X106883Y655561D01*
X106894Y655540D01*
X106917Y655518D01*
X106962Y655462D01*
X109962Y652462D01*
X110036Y652409D01*
X110105Y652349D01*
X110135Y652337D01*
X110161Y652318D01*
X110248Y652291D01*
X110333Y652257D01*
X110374Y652253D01*
X110397Y652246D01*
X110429Y652247D01*
X110500Y652239D01*
X218690Y652239D01*
X218710Y652242D01*
G37*
G36*
X471652Y236572D02*
X471652Y236572D01*
X471704Y236573D01*
X471772Y236598D01*
X471842Y236613D01*
X471887Y236640D01*
X471935Y236657D01*
X471991Y236702D01*
X472053Y236739D01*
X472087Y236779D01*
X472127Y236811D01*
X472166Y236871D01*
X472213Y236926D01*
X472232Y236974D01*
X472260Y237018D01*
X472278Y237088D01*
X472305Y237154D01*
X472313Y237225D01*
X472321Y237257D01*
X472319Y237280D01*
X472323Y237321D01*
X472323Y255223D01*
X474025Y259331D01*
X477276Y262582D01*
X482100Y267407D01*
X482153Y267481D01*
X482213Y267550D01*
X482225Y267580D01*
X482244Y267606D01*
X482271Y267694D01*
X482305Y267778D01*
X482309Y267819D01*
X482316Y267841D01*
X482315Y267874D01*
X482323Y267945D01*
X482323Y291441D01*
X482313Y291506D01*
X482312Y291571D01*
X482289Y291651D01*
X482284Y291684D01*
X482274Y291701D01*
X482265Y291732D01*
X480339Y296382D01*
X480339Y301618D01*
X482343Y306455D01*
X486045Y310157D01*
X490882Y312161D01*
X496118Y312161D01*
X500768Y310235D01*
X500831Y310220D01*
X500892Y310195D01*
X500975Y310186D01*
X501007Y310179D01*
X501027Y310180D01*
X501059Y310177D01*
X503914Y310177D01*
X504029Y310195D01*
X504145Y310213D01*
X504151Y310215D01*
X504157Y310216D01*
X504260Y310271D01*
X504365Y310324D01*
X504369Y310329D01*
X504374Y310332D01*
X504455Y310416D01*
X504537Y310500D01*
X504540Y310506D01*
X504544Y310510D01*
X504552Y310527D01*
X504618Y310647D01*
X504703Y310853D01*
X509347Y315497D01*
X515416Y318011D01*
X521984Y318011D01*
X528053Y315497D01*
X528618Y314932D01*
X528692Y314879D01*
X528761Y314819D01*
X528792Y314807D01*
X528818Y314788D01*
X528905Y314761D01*
X528990Y314727D01*
X529031Y314723D01*
X529053Y314716D01*
X529085Y314717D01*
X529156Y314709D01*
X540571Y314709D01*
X540685Y314727D01*
X540801Y314745D01*
X540807Y314747D01*
X540813Y314748D01*
X540916Y314803D01*
X541021Y314856D01*
X541025Y314861D01*
X541031Y314864D01*
X541111Y314948D01*
X541193Y315032D01*
X541197Y315038D01*
X541200Y315042D01*
X541208Y315059D01*
X541274Y315179D01*
X541409Y315505D01*
X543695Y317791D01*
X546683Y319029D01*
X569917Y319029D01*
X572905Y317791D01*
X575191Y315505D01*
X576429Y312517D01*
X576429Y301393D01*
X576443Y301303D01*
X576451Y301212D01*
X576463Y301182D01*
X576468Y301150D01*
X576511Y301069D01*
X576547Y300986D01*
X576573Y300953D01*
X576584Y300933D01*
X576607Y300911D01*
X576652Y300855D01*
X578705Y298802D01*
X578779Y298749D01*
X578848Y298689D01*
X578878Y298677D01*
X578904Y298658D01*
X578991Y298631D01*
X579076Y298597D01*
X579117Y298593D01*
X579139Y298586D01*
X579172Y298587D01*
X579243Y298579D01*
X593562Y298579D01*
X593582Y298582D01*
X593601Y298580D01*
X593703Y298602D01*
X593805Y298618D01*
X593822Y298628D01*
X593842Y298632D01*
X593931Y298685D01*
X594022Y298734D01*
X594036Y298748D01*
X594053Y298758D01*
X594120Y298837D01*
X594192Y298912D01*
X594200Y298930D01*
X594213Y298945D01*
X594252Y299041D01*
X594295Y299135D01*
X594297Y299155D01*
X594305Y299173D01*
X594323Y299340D01*
X594323Y308078D01*
X594320Y308098D01*
X594322Y308117D01*
X594300Y308219D01*
X594284Y308321D01*
X594274Y308338D01*
X594270Y308358D01*
X594217Y308447D01*
X594168Y308538D01*
X594154Y308552D01*
X594144Y308569D01*
X594065Y308636D01*
X593990Y308708D01*
X593972Y308716D01*
X593957Y308729D01*
X593861Y308768D01*
X593767Y308811D01*
X593747Y308813D01*
X593729Y308821D01*
X593562Y308839D01*
X591882Y308839D01*
X587045Y310843D01*
X583343Y314545D01*
X581339Y319382D01*
X581339Y324618D01*
X583343Y329455D01*
X587045Y333157D01*
X591882Y335161D01*
X597118Y335161D01*
X601955Y333157D01*
X602212Y332900D01*
X602286Y332847D01*
X602356Y332787D01*
X602386Y332775D01*
X602412Y332756D01*
X602499Y332729D01*
X602584Y332695D01*
X602625Y332691D01*
X602647Y332684D01*
X602679Y332685D01*
X602751Y332677D01*
X635578Y332677D01*
X635598Y332680D01*
X635617Y332678D01*
X635719Y332700D01*
X635821Y332716D01*
X635838Y332726D01*
X635858Y332730D01*
X635947Y332783D01*
X636038Y332832D01*
X636052Y332846D01*
X636069Y332856D01*
X636136Y332935D01*
X636208Y333010D01*
X636216Y333028D01*
X636229Y333043D01*
X636268Y333139D01*
X636311Y333233D01*
X636313Y333253D01*
X636321Y333271D01*
X636339Y333438D01*
X636339Y337618D01*
X638343Y342455D01*
X642045Y346157D01*
X646882Y348161D01*
X652118Y348161D01*
X656768Y346235D01*
X656831Y346220D01*
X656892Y346195D01*
X656975Y346186D01*
X657007Y346179D01*
X657027Y346180D01*
X657059Y346177D01*
X741562Y346177D01*
X741582Y346180D01*
X741601Y346178D01*
X741703Y346200D01*
X741805Y346216D01*
X741822Y346226D01*
X741842Y346230D01*
X741931Y346283D01*
X742022Y346332D01*
X742036Y346346D01*
X742053Y346356D01*
X742120Y346435D01*
X742192Y346510D01*
X742200Y346528D01*
X742213Y346543D01*
X742252Y346639D01*
X742295Y346733D01*
X742297Y346753D01*
X742305Y346771D01*
X742323Y346938D01*
X742323Y360000D01*
X742320Y360020D01*
X742322Y360039D01*
X742300Y360141D01*
X742284Y360243D01*
X742274Y360260D01*
X742270Y360280D01*
X742217Y360369D01*
X742168Y360460D01*
X742154Y360474D01*
X742144Y360491D01*
X742065Y360558D01*
X741990Y360630D01*
X741972Y360638D01*
X741957Y360651D01*
X741861Y360690D01*
X741767Y360733D01*
X741747Y360735D01*
X741729Y360743D01*
X741562Y360761D01*
X421383Y360761D01*
X421312Y360750D01*
X421240Y360748D01*
X421191Y360730D01*
X421140Y360722D01*
X421077Y360688D01*
X421009Y360663D01*
X420969Y360631D01*
X420923Y360606D01*
X420873Y360555D01*
X420817Y360510D01*
X420789Y360466D01*
X420753Y360428D01*
X420723Y360363D01*
X420684Y360303D01*
X420672Y360252D01*
X420650Y360205D01*
X420642Y360134D01*
X420624Y360064D01*
X420628Y360012D01*
X420623Y359961D01*
X420638Y359890D01*
X420643Y359819D01*
X420664Y359771D01*
X420675Y359720D01*
X420712Y359659D01*
X420740Y359593D01*
X420785Y359537D01*
X420801Y359509D01*
X420819Y359494D01*
X420845Y359462D01*
X437975Y342331D01*
X439677Y338223D01*
X439677Y273777D01*
X437975Y269669D01*
X434724Y266418D01*
X430081Y261775D01*
X425973Y260073D01*
X414402Y260073D01*
X414401Y260073D01*
X414201Y260073D01*
X414136Y260063D01*
X414071Y260062D01*
X413990Y260039D01*
X413958Y260033D01*
X413941Y260024D01*
X413909Y260015D01*
X412717Y259521D01*
X402962Y259521D01*
X402942Y259518D01*
X402923Y259520D01*
X402821Y259498D01*
X402719Y259482D01*
X402702Y259472D01*
X402682Y259468D01*
X402593Y259415D01*
X402502Y259366D01*
X402488Y259352D01*
X402471Y259342D01*
X402404Y259263D01*
X402333Y259188D01*
X402324Y259170D01*
X402311Y259155D01*
X402272Y259059D01*
X402229Y258965D01*
X402227Y258945D01*
X402219Y258927D01*
X402201Y258760D01*
X402201Y258340D01*
X402204Y258320D01*
X402202Y258301D01*
X402224Y258199D01*
X402241Y258097D01*
X402250Y258080D01*
X402254Y258060D01*
X402307Y257971D01*
X402356Y257880D01*
X402370Y257866D01*
X402380Y257849D01*
X402459Y257782D01*
X402534Y257710D01*
X402552Y257702D01*
X402567Y257689D01*
X402663Y257650D01*
X402757Y257607D01*
X402777Y257605D01*
X402795Y257597D01*
X402962Y257579D01*
X412717Y257579D01*
X413910Y257085D01*
X413973Y257070D01*
X414022Y257050D01*
X414111Y257001D01*
X415705Y256341D01*
X417991Y254055D01*
X419229Y251067D01*
X419229Y245088D01*
X419232Y245068D01*
X419230Y245049D01*
X419252Y244947D01*
X419268Y244845D01*
X419278Y244828D01*
X419282Y244808D01*
X419335Y244719D01*
X419384Y244628D01*
X419398Y244614D01*
X419408Y244597D01*
X419487Y244530D01*
X419562Y244458D01*
X419580Y244450D01*
X419595Y244437D01*
X419691Y244398D01*
X419785Y244355D01*
X419805Y244353D01*
X419823Y244345D01*
X419990Y244327D01*
X461073Y244327D01*
X465181Y242625D01*
X471024Y236783D01*
X471082Y236741D01*
X471134Y236691D01*
X471181Y236669D01*
X471223Y236639D01*
X471292Y236618D01*
X471357Y236588D01*
X471409Y236582D01*
X471459Y236567D01*
X471530Y236569D01*
X471601Y236561D01*
X471652Y236572D01*
G37*
G36*
X768614Y564242D02*
X768614Y564242D01*
X768633Y564240D01*
X768735Y564262D01*
X768837Y564279D01*
X768854Y564288D01*
X768874Y564292D01*
X768963Y564345D01*
X769054Y564394D01*
X769068Y564408D01*
X769085Y564418D01*
X769152Y564497D01*
X769224Y564572D01*
X769232Y564590D01*
X769245Y564605D01*
X769284Y564701D01*
X769327Y564795D01*
X769329Y564815D01*
X769337Y564833D01*
X769355Y565000D01*
X769355Y796094D01*
X769352Y796114D01*
X769354Y796133D01*
X769332Y796235D01*
X769316Y796337D01*
X769306Y796354D01*
X769302Y796374D01*
X769249Y796463D01*
X769200Y796554D01*
X769186Y796568D01*
X769176Y796585D01*
X769097Y796652D01*
X769022Y796724D01*
X769004Y796732D01*
X768989Y796745D01*
X768893Y796784D01*
X768799Y796827D01*
X768779Y796829D01*
X768761Y796837D01*
X768594Y796855D01*
X649603Y796855D01*
X649513Y796841D01*
X649422Y796833D01*
X649392Y796821D01*
X649360Y796816D01*
X649280Y796773D01*
X649196Y796737D01*
X649164Y796711D01*
X649143Y796700D01*
X649121Y796677D01*
X649065Y796632D01*
X639052Y786620D01*
X639040Y786603D01*
X639024Y786590D01*
X638969Y786503D01*
X638909Y786420D01*
X638903Y786400D01*
X638892Y786383D01*
X638867Y786283D01*
X638836Y786185D01*
X638837Y786164D01*
X638832Y786144D01*
X638840Y786042D01*
X638843Y785939D01*
X638850Y785920D01*
X638851Y785899D01*
X638892Y785805D01*
X638927Y785708D01*
X638940Y785692D01*
X638948Y785673D01*
X639053Y785542D01*
X639545Y785052D01*
X639674Y784743D01*
X639712Y784682D01*
X639741Y784617D01*
X639776Y784578D01*
X639804Y784534D01*
X639859Y784488D01*
X639908Y784436D01*
X639953Y784411D01*
X639993Y784378D01*
X640060Y784352D01*
X640123Y784318D01*
X640175Y784308D01*
X640223Y784290D01*
X640295Y784287D01*
X640365Y784274D01*
X640417Y784282D01*
X640469Y784280D01*
X640538Y784300D01*
X640609Y784310D01*
X640655Y784334D01*
X640705Y784349D01*
X640764Y784390D01*
X640828Y784422D01*
X640864Y784460D01*
X640907Y784489D01*
X640950Y784547D01*
X641000Y784598D01*
X641034Y784661D01*
X641053Y784687D01*
X641061Y784709D01*
X641080Y784745D01*
X641208Y785055D01*
X642920Y786773D01*
X645159Y787705D01*
X661243Y787733D01*
X661262Y787736D01*
X661281Y787734D01*
X661383Y787756D01*
X661486Y787773D01*
X661503Y787782D01*
X661522Y787786D01*
X661611Y787840D01*
X661703Y787889D01*
X661716Y787903D01*
X661733Y787913D01*
X661801Y787992D01*
X661872Y788067D01*
X661880Y788085D01*
X661893Y788099D01*
X661932Y788196D01*
X661975Y788291D01*
X661978Y788310D01*
X661985Y788328D01*
X662003Y788494D01*
X662003Y788543D01*
X662931Y790784D01*
X664646Y792499D01*
X666887Y793427D01*
X699313Y793427D01*
X701554Y792499D01*
X703269Y790784D01*
X704197Y788543D01*
X704197Y746117D01*
X703269Y743876D01*
X701554Y742161D01*
X701239Y742031D01*
X701156Y741980D01*
X701070Y741934D01*
X701052Y741915D01*
X701030Y741902D01*
X700968Y741827D01*
X700901Y741756D01*
X700890Y741732D01*
X700873Y741712D01*
X700838Y741621D01*
X700797Y741533D01*
X700795Y741507D01*
X700785Y741483D01*
X700781Y741385D01*
X700770Y741289D01*
X700776Y741263D01*
X700775Y741237D01*
X700802Y741143D01*
X700823Y741048D01*
X700836Y741026D01*
X700843Y741001D01*
X700899Y740921D01*
X700949Y740837D01*
X700969Y740820D01*
X700984Y740799D01*
X701062Y740740D01*
X701136Y740677D01*
X701160Y740667D01*
X701181Y740652D01*
X701273Y740622D01*
X701364Y740585D01*
X701396Y740582D01*
X701415Y740576D01*
X701448Y740576D01*
X701531Y740567D01*
X702520Y740567D01*
X710731Y738367D01*
X710747Y738365D01*
X710761Y738359D01*
X710928Y738341D01*
X761534Y738341D01*
X762181Y738168D01*
X762760Y737833D01*
X763233Y737360D01*
X763568Y736781D01*
X763741Y736134D01*
X763741Y652323D01*
X722725Y652323D01*
X722612Y652305D01*
X722498Y652289D01*
X722489Y652284D01*
X722482Y652283D01*
X722463Y652273D01*
X722345Y652221D01*
X719705Y650697D01*
X719668Y650667D01*
X719626Y650644D01*
X719573Y650590D01*
X719515Y650542D01*
X719489Y650501D01*
X719456Y650466D01*
X719424Y650397D01*
X719384Y650333D01*
X719373Y650287D01*
X719353Y650243D01*
X719344Y650168D01*
X719327Y650094D01*
X719331Y650046D01*
X719326Y649999D01*
X719342Y649925D01*
X719348Y649849D01*
X719368Y649805D01*
X719378Y649758D01*
X719417Y649693D01*
X719447Y649624D01*
X719479Y649588D01*
X719504Y649547D01*
X719561Y649498D01*
X719613Y649442D01*
X719654Y649418D01*
X719691Y649387D01*
X719761Y649359D01*
X719827Y649322D01*
X719874Y649313D01*
X719919Y649295D01*
X720047Y649281D01*
X720069Y649277D01*
X720076Y649278D01*
X720086Y649277D01*
X763741Y649277D01*
X763741Y565465D01*
X763669Y565197D01*
X763657Y565079D01*
X763644Y564961D01*
X763645Y564956D01*
X763644Y564952D01*
X763671Y564837D01*
X763696Y564720D01*
X763698Y564717D01*
X763699Y564713D01*
X763762Y564611D01*
X763822Y564509D01*
X763825Y564506D01*
X763828Y564503D01*
X763919Y564426D01*
X764009Y564349D01*
X764013Y564348D01*
X764016Y564345D01*
X764127Y564302D01*
X764237Y564257D01*
X764242Y564257D01*
X764245Y564255D01*
X764259Y564255D01*
X764404Y564239D01*
X768594Y564239D01*
X768614Y564242D01*
G37*
G36*
X45518Y10934D02*
X45518Y10934D01*
X45590Y10936D01*
X45639Y10954D01*
X45690Y10962D01*
X45753Y10996D01*
X45821Y11021D01*
X45861Y11053D01*
X45908Y11078D01*
X45957Y11130D01*
X46013Y11174D01*
X46041Y11218D01*
X46077Y11256D01*
X46107Y11321D01*
X46146Y11381D01*
X46159Y11432D01*
X46181Y11479D01*
X46188Y11550D01*
X46206Y11620D01*
X46202Y11672D01*
X46208Y11723D01*
X46192Y11794D01*
X46187Y11865D01*
X46166Y11913D01*
X46155Y11964D01*
X46119Y12025D01*
X46090Y12091D01*
X46046Y12147D01*
X46029Y12175D01*
X46011Y12190D01*
X45986Y12222D01*
X42129Y16079D01*
X39731Y21867D01*
X39731Y28133D01*
X42129Y33921D01*
X45370Y37162D01*
X45381Y37178D01*
X45397Y37190D01*
X45453Y37278D01*
X45513Y37361D01*
X45519Y37380D01*
X45530Y37397D01*
X45555Y37498D01*
X45586Y37597D01*
X45585Y37616D01*
X45590Y37636D01*
X45582Y37739D01*
X45579Y37842D01*
X45572Y37861D01*
X45571Y37881D01*
X45530Y37976D01*
X45495Y38073D01*
X45482Y38089D01*
X45474Y38107D01*
X45370Y38238D01*
X42129Y41479D01*
X39731Y47267D01*
X39731Y53533D01*
X42129Y59321D01*
X46559Y63751D01*
X50653Y65447D01*
X50688Y65469D01*
X50728Y65483D01*
X50792Y65533D01*
X50862Y65576D01*
X50888Y65609D01*
X50922Y65635D01*
X50966Y65703D01*
X51019Y65766D01*
X51034Y65805D01*
X51057Y65840D01*
X51077Y65919D01*
X51107Y65995D01*
X51109Y66037D01*
X51119Y66078D01*
X51114Y66160D01*
X51117Y66241D01*
X51105Y66282D01*
X51103Y66323D01*
X51071Y66399D01*
X51049Y66477D01*
X51025Y66512D01*
X51009Y66551D01*
X50955Y66612D01*
X50908Y66679D01*
X50875Y66705D01*
X50847Y66736D01*
X50718Y66821D01*
X50711Y66826D01*
X50709Y66827D01*
X50707Y66828D01*
X50155Y67110D01*
X48861Y68050D01*
X47730Y69181D01*
X46790Y70475D01*
X46064Y71900D01*
X45569Y73421D01*
X45434Y74277D01*
X62338Y74277D01*
X62358Y74280D01*
X62377Y74278D01*
X62479Y74300D01*
X62581Y74317D01*
X62598Y74326D01*
X62618Y74330D01*
X62707Y74383D01*
X62798Y74432D01*
X62812Y74446D01*
X62829Y74456D01*
X62896Y74535D01*
X62967Y74610D01*
X62976Y74628D01*
X62989Y74643D01*
X63027Y74739D01*
X63071Y74833D01*
X63073Y74853D01*
X63081Y74871D01*
X63099Y75038D01*
X63099Y76562D01*
X63096Y76582D01*
X63098Y76601D01*
X63076Y76703D01*
X63059Y76805D01*
X63050Y76822D01*
X63046Y76842D01*
X62993Y76931D01*
X62944Y77022D01*
X62930Y77036D01*
X62920Y77053D01*
X62841Y77120D01*
X62766Y77191D01*
X62748Y77200D01*
X62733Y77213D01*
X62637Y77252D01*
X62543Y77295D01*
X62523Y77297D01*
X62505Y77305D01*
X62338Y77323D01*
X45434Y77323D01*
X45569Y78179D01*
X46064Y79700D01*
X46790Y81125D01*
X47730Y82419D01*
X48861Y83550D01*
X50155Y84490D01*
X50236Y84532D01*
X50291Y84572D01*
X50351Y84604D01*
X50389Y84644D01*
X50434Y84677D01*
X50473Y84733D01*
X50520Y84782D01*
X50544Y84833D01*
X50576Y84878D01*
X50595Y84943D01*
X50624Y85005D01*
X50630Y85061D01*
X50646Y85114D01*
X50643Y85182D01*
X50651Y85249D01*
X50639Y85304D01*
X50637Y85360D01*
X50613Y85424D01*
X50598Y85490D01*
X50570Y85538D01*
X50550Y85590D01*
X50507Y85643D01*
X50472Y85701D01*
X50430Y85737D01*
X50394Y85781D01*
X50337Y85817D01*
X50285Y85861D01*
X50233Y85882D01*
X50186Y85912D01*
X50120Y85927D01*
X50057Y85953D01*
X49979Y85961D01*
X49947Y85969D01*
X49926Y85967D01*
X49890Y85971D01*
X34583Y85971D01*
X31595Y87209D01*
X30636Y88168D01*
X30562Y88221D01*
X30493Y88281D01*
X30462Y88293D01*
X30436Y88312D01*
X30349Y88339D01*
X30264Y88373D01*
X30223Y88377D01*
X30201Y88384D01*
X30169Y88383D01*
X30098Y88391D01*
X21173Y88391D01*
X16318Y90402D01*
X14038Y92682D01*
X13980Y92724D01*
X13928Y92773D01*
X13881Y92795D01*
X13839Y92825D01*
X13770Y92846D01*
X13705Y92877D01*
X13653Y92882D01*
X13603Y92898D01*
X13532Y92896D01*
X13461Y92904D01*
X13410Y92893D01*
X13358Y92891D01*
X13290Y92867D01*
X13220Y92851D01*
X13176Y92825D01*
X13127Y92807D01*
X13071Y92762D01*
X13009Y92725D01*
X12975Y92686D01*
X12935Y92653D01*
X12896Y92593D01*
X12849Y92538D01*
X12830Y92490D01*
X12802Y92446D01*
X12784Y92377D01*
X12757Y92310D01*
X12749Y92239D01*
X12741Y92208D01*
X12743Y92184D01*
X12739Y92143D01*
X12739Y11684D01*
X12742Y11664D01*
X12740Y11645D01*
X12762Y11543D01*
X12778Y11441D01*
X12788Y11424D01*
X12792Y11404D01*
X12845Y11315D01*
X12894Y11224D01*
X12908Y11210D01*
X12918Y11193D01*
X12997Y11126D01*
X13072Y11054D01*
X13090Y11046D01*
X13105Y11033D01*
X13201Y10994D01*
X13295Y10951D01*
X13315Y10949D01*
X13333Y10941D01*
X13500Y10923D01*
X45447Y10923D01*
X45518Y10934D01*
G37*
%LPC*%
G36*
X526900Y901327D02*
X526900Y901327D01*
X519525Y904382D01*
X513880Y910027D01*
X510825Y917402D01*
X510825Y945198D01*
X513880Y952573D01*
X519525Y958218D01*
X526900Y961273D01*
X534884Y961273D01*
X542259Y958218D01*
X547904Y952573D01*
X550959Y945198D01*
X550959Y917402D01*
X547904Y910027D01*
X542259Y904382D01*
X534884Y901327D01*
X526900Y901327D01*
G37*
%LPD*%
%LPC*%
G36*
X476862Y901327D02*
X476862Y901327D01*
X469487Y904382D01*
X463842Y910027D01*
X460787Y917402D01*
X460787Y945198D01*
X463842Y952573D01*
X469487Y958218D01*
X476862Y961273D01*
X484846Y961273D01*
X492221Y958218D01*
X497866Y952573D01*
X500921Y945198D01*
X500921Y917402D01*
X497866Y910027D01*
X492221Y904382D01*
X484846Y901327D01*
X476862Y901327D01*
G37*
%LPD*%
G36*
X782116Y817271D02*
X782116Y817271D01*
X782193Y817278D01*
X782235Y817297D01*
X782280Y817306D01*
X782347Y817346D01*
X782418Y817378D01*
X782452Y817409D01*
X782491Y817433D01*
X782542Y817492D01*
X782599Y817544D01*
X782621Y817585D01*
X782651Y817620D01*
X782680Y817692D01*
X782717Y817760D01*
X782726Y817805D01*
X782743Y817848D01*
X782758Y817984D01*
X782761Y818002D01*
X782760Y818007D01*
X782761Y818014D01*
X782761Y988316D01*
X782758Y988336D01*
X782760Y988355D01*
X782738Y988457D01*
X782722Y988559D01*
X782712Y988576D01*
X782708Y988596D01*
X782655Y988685D01*
X782606Y988776D01*
X782592Y988790D01*
X782582Y988807D01*
X782503Y988874D01*
X782428Y988946D01*
X782410Y988954D01*
X782395Y988967D01*
X782299Y989006D01*
X782205Y989049D01*
X782185Y989051D01*
X782167Y989059D01*
X782000Y989077D01*
X776593Y989077D01*
X776476Y989058D01*
X776358Y989040D01*
X776354Y989038D01*
X776350Y989038D01*
X776246Y988982D01*
X776139Y988927D01*
X776136Y988924D01*
X776132Y988922D01*
X776051Y988837D01*
X775968Y988751D01*
X775966Y988747D01*
X775963Y988744D01*
X775913Y988637D01*
X775862Y988529D01*
X775861Y988525D01*
X775859Y988521D01*
X775846Y988403D01*
X775832Y988285D01*
X775833Y988280D01*
X775832Y988277D01*
X775835Y988263D01*
X775857Y988119D01*
X776041Y987434D01*
X776041Y903623D01*
X742218Y903623D01*
X742128Y903608D01*
X742037Y903601D01*
X742007Y903589D01*
X741975Y903583D01*
X741894Y903541D01*
X741810Y903505D01*
X741778Y903479D01*
X741758Y903468D01*
X741735Y903445D01*
X741679Y903400D01*
X740472Y902193D01*
X740133Y901997D01*
X740096Y901967D01*
X740054Y901944D01*
X740002Y901890D01*
X739943Y901842D01*
X739917Y901801D01*
X739884Y901766D01*
X739852Y901697D01*
X739812Y901633D01*
X739801Y901587D01*
X739781Y901543D01*
X739772Y901468D01*
X739755Y901394D01*
X739759Y901346D01*
X739754Y901299D01*
X739770Y901224D01*
X739776Y901149D01*
X739796Y901105D01*
X739806Y901058D01*
X739845Y900993D01*
X739875Y900924D01*
X739907Y900888D01*
X739932Y900847D01*
X739990Y900798D01*
X740041Y900742D01*
X740082Y900718D01*
X740119Y900687D01*
X740189Y900659D01*
X740255Y900622D01*
X740302Y900613D01*
X740347Y900595D01*
X740475Y900581D01*
X740497Y900577D01*
X740504Y900578D01*
X740514Y900577D01*
X776041Y900577D01*
X776041Y819970D01*
X776044Y819950D01*
X776042Y819931D01*
X776064Y819829D01*
X776080Y819727D01*
X776090Y819710D01*
X776094Y819690D01*
X776147Y819601D01*
X776196Y819510D01*
X776210Y819496D01*
X776220Y819479D01*
X776299Y819412D01*
X776374Y819340D01*
X776392Y819332D01*
X776407Y819319D01*
X776503Y819280D01*
X776597Y819237D01*
X776617Y819235D01*
X776635Y819227D01*
X776802Y819209D01*
X777127Y819209D01*
X781709Y817311D01*
X781753Y817301D01*
X781795Y817281D01*
X781872Y817273D01*
X781948Y817255D01*
X781994Y817259D01*
X782039Y817254D01*
X782116Y817271D01*
G37*
%LPC*%
G36*
X603978Y853807D02*
X603978Y853807D01*
X598394Y856120D01*
X594120Y860394D01*
X591807Y865978D01*
X591807Y872022D01*
X594120Y877606D01*
X598394Y881880D01*
X603978Y884193D01*
X610022Y884193D01*
X615606Y881880D01*
X619880Y877606D01*
X622193Y872022D01*
X622193Y865978D01*
X619880Y860394D01*
X615606Y856120D01*
X610022Y853807D01*
X603978Y853807D01*
G37*
%LPD*%
G36*
X364627Y299091D02*
X364627Y299091D01*
X364653Y299090D01*
X364747Y299117D01*
X364842Y299137D01*
X364864Y299151D01*
X364889Y299158D01*
X364969Y299214D01*
X365053Y299264D01*
X365070Y299283D01*
X365091Y299298D01*
X365150Y299377D01*
X365213Y299450D01*
X365223Y299475D01*
X365238Y299496D01*
X365268Y299588D01*
X365305Y299679D01*
X365308Y299711D01*
X365314Y299730D01*
X365314Y299763D01*
X365323Y299845D01*
X365323Y320562D01*
X365320Y320582D01*
X365322Y320601D01*
X365300Y320703D01*
X365284Y320805D01*
X365274Y320822D01*
X365270Y320842D01*
X365217Y320931D01*
X365168Y321022D01*
X365154Y321036D01*
X365144Y321053D01*
X365065Y321120D01*
X364990Y321192D01*
X364972Y321200D01*
X364957Y321213D01*
X364861Y321252D01*
X364767Y321295D01*
X364747Y321297D01*
X364729Y321305D01*
X364562Y321323D01*
X341502Y321323D01*
X341482Y321320D01*
X341463Y321322D01*
X341361Y321300D01*
X341259Y321284D01*
X341242Y321274D01*
X341222Y321270D01*
X341133Y321217D01*
X341042Y321168D01*
X341028Y321154D01*
X341011Y321144D01*
X340944Y321065D01*
X340872Y320990D01*
X340864Y320972D01*
X340851Y320957D01*
X340812Y320861D01*
X340769Y320767D01*
X340767Y320747D01*
X340759Y320729D01*
X340741Y320562D01*
X340741Y316523D01*
X328962Y316523D01*
X328942Y316520D01*
X328923Y316522D01*
X328821Y316500D01*
X328719Y316483D01*
X328702Y316474D01*
X328682Y316470D01*
X328593Y316417D01*
X328502Y316368D01*
X328488Y316354D01*
X328471Y316344D01*
X328404Y316265D01*
X328333Y316190D01*
X328324Y316172D01*
X328311Y316157D01*
X328272Y316061D01*
X328229Y315967D01*
X328227Y315947D01*
X328219Y315929D01*
X328201Y315762D01*
X328201Y314238D01*
X328204Y314218D01*
X328202Y314199D01*
X328224Y314097D01*
X328241Y313995D01*
X328250Y313978D01*
X328254Y313958D01*
X328307Y313869D01*
X328356Y313778D01*
X328370Y313764D01*
X328380Y313747D01*
X328459Y313680D01*
X328534Y313609D01*
X328552Y313600D01*
X328567Y313587D01*
X328663Y313548D01*
X328757Y313505D01*
X328777Y313503D01*
X328795Y313495D01*
X328962Y313477D01*
X340741Y313477D01*
X340741Y307166D01*
X340733Y307135D01*
X340721Y307017D01*
X340708Y306899D01*
X340709Y306894D01*
X340708Y306890D01*
X340734Y306776D01*
X340760Y306658D01*
X340762Y306655D01*
X340763Y306651D01*
X340824Y306550D01*
X340886Y306447D01*
X340889Y306444D01*
X340891Y306441D01*
X340982Y306365D01*
X341073Y306287D01*
X341077Y306286D01*
X341080Y306283D01*
X341190Y306240D01*
X341301Y306195D01*
X341306Y306195D01*
X341309Y306193D01*
X341322Y306193D01*
X341468Y306177D01*
X343941Y306177D01*
X344006Y306187D01*
X344071Y306188D01*
X344151Y306211D01*
X344184Y306216D01*
X344201Y306226D01*
X344232Y306235D01*
X348882Y308161D01*
X354118Y308161D01*
X358955Y306157D01*
X362657Y302455D01*
X363859Y299554D01*
X363910Y299471D01*
X363956Y299385D01*
X363975Y299367D01*
X363988Y299345D01*
X364063Y299283D01*
X364134Y299216D01*
X364158Y299205D01*
X364178Y299188D01*
X364269Y299153D01*
X364357Y299112D01*
X364383Y299109D01*
X364407Y299100D01*
X364505Y299096D01*
X364601Y299085D01*
X364627Y299091D01*
G37*
%LPC*%
G36*
X735423Y770123D02*
X735423Y770123D01*
X735423Y791141D01*
X749234Y791141D01*
X749881Y790968D01*
X750460Y790633D01*
X750933Y790160D01*
X751268Y789581D01*
X751441Y788934D01*
X751441Y770123D01*
X735423Y770123D01*
G37*
%LPD*%
%LPC*%
G36*
X398923Y767523D02*
X398923Y767523D01*
X398923Y788541D01*
X412734Y788541D01*
X413381Y788368D01*
X413960Y788033D01*
X414433Y787560D01*
X414768Y786981D01*
X414941Y786334D01*
X414941Y767523D01*
X398923Y767523D01*
G37*
%LPD*%
%LPC*%
G36*
X405523Y514023D02*
X405523Y514023D01*
X405523Y535041D01*
X419334Y535041D01*
X419981Y534868D01*
X420560Y534533D01*
X421033Y534060D01*
X421368Y533481D01*
X421541Y532834D01*
X421541Y514023D01*
X405523Y514023D01*
G37*
%LPD*%
%LPC*%
G36*
X735423Y746059D02*
X735423Y746059D01*
X735423Y767077D01*
X751441Y767077D01*
X751441Y748266D01*
X751268Y747619D01*
X750933Y747040D01*
X750460Y746567D01*
X749881Y746232D01*
X749234Y746059D01*
X735423Y746059D01*
G37*
%LPD*%
%LPC*%
G36*
X379859Y767523D02*
X379859Y767523D01*
X379859Y786334D01*
X380032Y786981D01*
X380367Y787560D01*
X380840Y788033D01*
X381419Y788368D01*
X382066Y788541D01*
X395877Y788541D01*
X395877Y767523D01*
X379859Y767523D01*
G37*
%LPD*%
%LPC*%
G36*
X704059Y518823D02*
X704059Y518823D01*
X704059Y537634D01*
X704232Y538281D01*
X704567Y538860D01*
X705040Y539333D01*
X705619Y539668D01*
X706266Y539841D01*
X720077Y539841D01*
X720077Y518823D01*
X704059Y518823D01*
G37*
%LPD*%
%LPC*%
G36*
X386459Y514023D02*
X386459Y514023D01*
X386459Y532834D01*
X386632Y533481D01*
X386967Y534060D01*
X387440Y534533D01*
X388019Y534868D01*
X388666Y535041D01*
X402477Y535041D01*
X402477Y514023D01*
X386459Y514023D01*
G37*
%LPD*%
%LPC*%
G36*
X716359Y770123D02*
X716359Y770123D01*
X716359Y788934D01*
X716532Y789581D01*
X716867Y790160D01*
X717340Y790633D01*
X717919Y790968D01*
X718566Y791141D01*
X732377Y791141D01*
X732377Y770123D01*
X716359Y770123D01*
G37*
%LPD*%
%LPC*%
G36*
X405523Y489959D02*
X405523Y489959D01*
X405523Y510977D01*
X421541Y510977D01*
X421541Y492166D01*
X421368Y491519D01*
X421033Y490940D01*
X420560Y490467D01*
X419981Y490132D01*
X419334Y489959D01*
X405523Y489959D01*
G37*
%LPD*%
%LPC*%
G36*
X398923Y743459D02*
X398923Y743459D01*
X398923Y764477D01*
X414941Y764477D01*
X414941Y745666D01*
X414768Y745019D01*
X414433Y744440D01*
X413960Y743967D01*
X413381Y743632D01*
X412734Y743459D01*
X398923Y743459D01*
G37*
%LPD*%
%LPC*%
G36*
X388666Y489959D02*
X388666Y489959D01*
X388019Y490132D01*
X387440Y490467D01*
X386967Y490940D01*
X386632Y491519D01*
X386459Y492166D01*
X386459Y510977D01*
X402477Y510977D01*
X402477Y489959D01*
X388666Y489959D01*
G37*
%LPD*%
%LPC*%
G36*
X382066Y743459D02*
X382066Y743459D01*
X381419Y743632D01*
X380840Y743967D01*
X380367Y744440D01*
X380032Y745019D01*
X379859Y745666D01*
X379859Y764477D01*
X395877Y764477D01*
X395877Y743459D01*
X382066Y743459D01*
G37*
%LPD*%
%LPC*%
G36*
X706266Y494759D02*
X706266Y494759D01*
X705619Y494932D01*
X705040Y495267D01*
X704567Y495740D01*
X704232Y496319D01*
X704059Y496966D01*
X704059Y515777D01*
X720077Y515777D01*
X720077Y494759D01*
X706266Y494759D01*
G37*
%LPD*%
%LPC*%
G36*
X718566Y746059D02*
X718566Y746059D01*
X717919Y746232D01*
X717340Y746567D01*
X716867Y747040D01*
X716532Y747619D01*
X716359Y748266D01*
X716359Y767077D01*
X732377Y767077D01*
X732377Y746059D01*
X718566Y746059D01*
G37*
%LPD*%
%LPC*%
G36*
X157523Y744501D02*
X157523Y744501D01*
X157523Y758219D01*
X169899Y758219D01*
X172269Y757843D01*
X174550Y757102D01*
X176688Y756013D01*
X178629Y754603D01*
X180325Y752907D01*
X181735Y750966D01*
X182824Y748828D01*
X183565Y746547D01*
X183889Y744501D01*
X157523Y744501D01*
G37*
%LPD*%
%LPC*%
G36*
X157523Y969545D02*
X157523Y969545D01*
X157523Y983263D01*
X169899Y983263D01*
X172269Y982887D01*
X174550Y982146D01*
X176688Y981057D01*
X178629Y979647D01*
X180325Y977951D01*
X181735Y976010D01*
X182824Y973872D01*
X183565Y971591D01*
X183889Y969545D01*
X157523Y969545D01*
G37*
%LPD*%
%LPC*%
G36*
X128111Y969545D02*
X128111Y969545D01*
X128435Y971591D01*
X129176Y973872D01*
X130265Y976010D01*
X131675Y977951D01*
X133371Y979647D01*
X135312Y981057D01*
X137450Y982146D01*
X139731Y982887D01*
X142101Y983263D01*
X154477Y983263D01*
X154477Y969545D01*
X128111Y969545D01*
G37*
%LPD*%
%LPC*%
G36*
X128111Y744501D02*
X128111Y744501D01*
X128435Y746547D01*
X129176Y748828D01*
X130265Y750966D01*
X131675Y752907D01*
X133371Y754603D01*
X135312Y756013D01*
X137450Y757102D01*
X139731Y757843D01*
X142101Y758219D01*
X154477Y758219D01*
X154477Y744501D01*
X128111Y744501D01*
G37*
%LPD*%
%LPC*%
G36*
X157523Y727737D02*
X157523Y727737D01*
X157523Y741455D01*
X183889Y741455D01*
X183565Y739409D01*
X182824Y737128D01*
X181735Y734990D01*
X180325Y733049D01*
X178629Y731353D01*
X176688Y729943D01*
X174550Y728854D01*
X172269Y728113D01*
X169899Y727737D01*
X157523Y727737D01*
G37*
%LPD*%
%LPC*%
G36*
X157523Y952781D02*
X157523Y952781D01*
X157523Y966499D01*
X183889Y966499D01*
X183565Y964453D01*
X182824Y962172D01*
X181735Y960034D01*
X180325Y958093D01*
X178629Y956397D01*
X176688Y954987D01*
X174550Y953898D01*
X172269Y953157D01*
X169899Y952781D01*
X157523Y952781D01*
G37*
%LPD*%
%LPC*%
G36*
X142101Y952781D02*
X142101Y952781D01*
X139731Y953157D01*
X137450Y953898D01*
X135312Y954987D01*
X133371Y956397D01*
X131675Y958093D01*
X130265Y960034D01*
X129176Y962172D01*
X128435Y964453D01*
X128111Y966499D01*
X154477Y966499D01*
X154477Y952781D01*
X142101Y952781D01*
G37*
%LPD*%
%LPC*%
G36*
X142101Y727737D02*
X142101Y727737D01*
X139731Y728113D01*
X137450Y728854D01*
X135312Y729943D01*
X133371Y731353D01*
X131675Y733049D01*
X130265Y734990D01*
X129176Y737128D01*
X128435Y739409D01*
X128111Y741455D01*
X154477Y741455D01*
X154477Y727737D01*
X142101Y727737D01*
G37*
%LPD*%
%LPC*%
G36*
X160323Y674169D02*
X160323Y674169D01*
X160323Y685093D01*
X169686Y685093D01*
X171621Y684786D01*
X173484Y684181D01*
X175229Y683291D01*
X176815Y682140D01*
X178200Y680755D01*
X179351Y679169D01*
X180241Y677424D01*
X180846Y675561D01*
X181067Y674169D01*
X160323Y674169D01*
G37*
%LPD*%
%LPC*%
G36*
X160323Y624131D02*
X160323Y624131D01*
X160323Y635055D01*
X169686Y635055D01*
X171621Y634748D01*
X173484Y634143D01*
X175229Y633253D01*
X176815Y632102D01*
X178200Y630717D01*
X179351Y629131D01*
X180241Y627386D01*
X180846Y625523D01*
X181067Y624131D01*
X160323Y624131D01*
G37*
%LPD*%
%LPC*%
G36*
X136533Y674169D02*
X136533Y674169D01*
X136754Y675561D01*
X137359Y677424D01*
X138249Y679169D01*
X139400Y680755D01*
X140785Y682140D01*
X142371Y683291D01*
X144116Y684181D01*
X145979Y684786D01*
X147914Y685093D01*
X157277Y685093D01*
X157277Y674169D01*
X136533Y674169D01*
G37*
%LPD*%
%LPC*%
G36*
X136533Y624131D02*
X136533Y624131D01*
X136754Y625523D01*
X137359Y627386D01*
X138249Y629131D01*
X139400Y630717D01*
X140785Y632102D01*
X142371Y633253D01*
X144116Y634143D01*
X145979Y634748D01*
X147914Y635055D01*
X157277Y635055D01*
X157277Y624131D01*
X136533Y624131D01*
G37*
%LPD*%
%LPC*%
G36*
X160323Y660199D02*
X160323Y660199D01*
X160323Y671123D01*
X181067Y671123D01*
X180846Y669731D01*
X180241Y667868D01*
X179351Y666123D01*
X178200Y664537D01*
X176815Y663152D01*
X175229Y662001D01*
X173484Y661111D01*
X171621Y660506D01*
X169686Y660199D01*
X160323Y660199D01*
G37*
%LPD*%
%LPC*%
G36*
X160323Y610161D02*
X160323Y610161D01*
X160323Y621085D01*
X181067Y621085D01*
X180846Y619693D01*
X180241Y617830D01*
X179351Y616085D01*
X178200Y614499D01*
X176815Y613114D01*
X175229Y611963D01*
X173484Y611073D01*
X171621Y610468D01*
X169686Y610161D01*
X160323Y610161D01*
G37*
%LPD*%
%LPC*%
G36*
X147914Y660199D02*
X147914Y660199D01*
X145979Y660506D01*
X144116Y661111D01*
X142371Y662001D01*
X140785Y663152D01*
X139400Y664537D01*
X138249Y666123D01*
X137359Y667868D01*
X136754Y669731D01*
X136533Y671123D01*
X157277Y671123D01*
X157277Y660199D01*
X147914Y660199D01*
G37*
%LPD*%
%LPC*%
G36*
X147914Y610161D02*
X147914Y610161D01*
X145979Y610468D01*
X144116Y611073D01*
X142371Y611963D01*
X140785Y613114D01*
X139400Y614499D01*
X138249Y616085D01*
X137359Y617830D01*
X136754Y619693D01*
X136533Y621085D01*
X157277Y621085D01*
X157277Y610161D01*
X147914Y610161D01*
G37*
%LPD*%
%LPC*%
G36*
X219023Y189423D02*
X219023Y189423D01*
X219023Y203141D01*
X223813Y203141D01*
X232741Y194213D01*
X232741Y189423D01*
X219023Y189423D01*
G37*
%LPD*%
%LPC*%
G36*
X219023Y186377D02*
X219023Y186377D01*
X232741Y186377D01*
X232741Y181587D01*
X223813Y172659D01*
X219023Y172659D01*
X219023Y186377D01*
G37*
%LPD*%
%LPC*%
G36*
X90023Y320459D02*
X90023Y320459D01*
X90023Y334177D01*
X103741Y334177D01*
X103741Y329387D01*
X94813Y320459D01*
X90023Y320459D01*
G37*
%LPD*%
%LPC*%
G36*
X73259Y337223D02*
X73259Y337223D01*
X73259Y342013D01*
X82187Y350941D01*
X86977Y350941D01*
X86977Y337223D01*
X73259Y337223D01*
G37*
%LPD*%
%LPC*%
G36*
X202259Y189423D02*
X202259Y189423D01*
X202259Y194213D01*
X211187Y203141D01*
X215977Y203141D01*
X215977Y189423D01*
X202259Y189423D01*
G37*
%LPD*%
%LPC*%
G36*
X82187Y320459D02*
X82187Y320459D01*
X73259Y329387D01*
X73259Y334177D01*
X86977Y334177D01*
X86977Y320459D01*
X82187Y320459D01*
G37*
%LPD*%
%LPC*%
G36*
X211187Y172659D02*
X211187Y172659D01*
X202259Y181587D01*
X202259Y186377D01*
X215977Y186377D01*
X215977Y172659D01*
X211187Y172659D01*
G37*
%LPD*%
%LPC*%
G36*
X259623Y94623D02*
X259623Y94623D01*
X259623Y103641D01*
X268434Y103641D01*
X269081Y103468D01*
X269660Y103133D01*
X270133Y102660D01*
X270468Y102081D01*
X270641Y101434D01*
X270641Y94623D01*
X259623Y94623D01*
G37*
%LPD*%
%LPC*%
G36*
X299223Y140523D02*
X299223Y140523D01*
X299223Y151541D01*
X305534Y151541D01*
X306181Y151368D01*
X306760Y151033D01*
X307233Y150560D01*
X307568Y149981D01*
X307741Y149334D01*
X307741Y140523D01*
X299223Y140523D01*
G37*
%LPD*%
%LPC*%
G36*
X416523Y64523D02*
X416523Y64523D01*
X416523Y75541D01*
X422834Y75541D01*
X423481Y75368D01*
X424060Y75033D01*
X424533Y74560D01*
X424868Y73981D01*
X425041Y73334D01*
X425041Y64523D01*
X416523Y64523D01*
G37*
%LPD*%
%LPC*%
G36*
X559823Y334923D02*
X559823Y334923D01*
X559823Y343441D01*
X568634Y343441D01*
X569281Y343268D01*
X569860Y342933D01*
X570333Y342460D01*
X570668Y341881D01*
X570841Y341234D01*
X570841Y334923D01*
X559823Y334923D01*
G37*
%LPD*%
%LPC*%
G36*
X188223Y118877D02*
X188223Y118877D01*
X199241Y118877D01*
X199241Y112566D01*
X199068Y111919D01*
X198733Y111340D01*
X198260Y110867D01*
X197681Y110532D01*
X197034Y110359D01*
X188223Y110359D01*
X188223Y118877D01*
G37*
%LPD*%
%LPC*%
G36*
X47723Y130077D02*
X47723Y130077D01*
X58741Y130077D01*
X58741Y123766D01*
X58568Y123119D01*
X58233Y122540D01*
X57760Y122067D01*
X57181Y121732D01*
X56534Y121559D01*
X47723Y121559D01*
X47723Y130077D01*
G37*
%LPD*%
%LPC*%
G36*
X559823Y331877D02*
X559823Y331877D01*
X570841Y331877D01*
X570841Y325566D01*
X570668Y324919D01*
X570333Y324340D01*
X569860Y323867D01*
X569281Y323532D01*
X568634Y323359D01*
X559823Y323359D01*
X559823Y331877D01*
G37*
%LPD*%
%LPC*%
G36*
X174159Y121923D02*
X174159Y121923D01*
X174159Y128234D01*
X174332Y128881D01*
X174667Y129460D01*
X175140Y129933D01*
X175719Y130268D01*
X176366Y130441D01*
X185177Y130441D01*
X185177Y121923D01*
X174159Y121923D01*
G37*
%LPD*%
%LPC*%
G36*
X545759Y334923D02*
X545759Y334923D01*
X545759Y341234D01*
X545932Y341881D01*
X546267Y342460D01*
X546740Y342933D01*
X547319Y343268D01*
X547966Y343441D01*
X556777Y343441D01*
X556777Y334923D01*
X545759Y334923D01*
G37*
%LPD*%
%LPC*%
G36*
X435459Y69023D02*
X435459Y69023D01*
X435459Y75334D01*
X435632Y75981D01*
X435967Y76560D01*
X436440Y77033D01*
X437019Y77368D01*
X437666Y77541D01*
X446477Y77541D01*
X446477Y69023D01*
X435459Y69023D01*
G37*
%LPD*%
%LPC*%
G36*
X287659Y140523D02*
X287659Y140523D01*
X287659Y149334D01*
X287832Y149981D01*
X288167Y150560D01*
X288640Y151033D01*
X289219Y151368D01*
X289866Y151541D01*
X296177Y151541D01*
X296177Y140523D01*
X287659Y140523D01*
G37*
%LPD*%
%LPC*%
G36*
X404959Y64523D02*
X404959Y64523D01*
X404959Y73334D01*
X405132Y73981D01*
X405467Y74560D01*
X405940Y75033D01*
X406519Y75368D01*
X407166Y75541D01*
X413477Y75541D01*
X413477Y64523D01*
X404959Y64523D01*
G37*
%LPD*%
%LPC*%
G36*
X416523Y50459D02*
X416523Y50459D01*
X416523Y61477D01*
X425041Y61477D01*
X425041Y52666D01*
X424868Y52019D01*
X424533Y51440D01*
X424060Y50967D01*
X423481Y50632D01*
X422834Y50459D01*
X416523Y50459D01*
G37*
%LPD*%
%LPC*%
G36*
X407166Y50459D02*
X407166Y50459D01*
X406519Y50632D01*
X405940Y50967D01*
X405467Y51440D01*
X405132Y52019D01*
X404959Y52666D01*
X404959Y61477D01*
X413477Y61477D01*
X413477Y50459D01*
X407166Y50459D01*
G37*
%LPD*%
%LPC*%
G36*
X176366Y110359D02*
X176366Y110359D01*
X175719Y110532D01*
X175140Y110867D01*
X174667Y111340D01*
X174332Y111919D01*
X174159Y112566D01*
X174159Y118877D01*
X185177Y118877D01*
X185177Y110359D01*
X176366Y110359D01*
G37*
%LPD*%
%LPC*%
G36*
X547966Y323359D02*
X547966Y323359D01*
X547319Y323532D01*
X546740Y323867D01*
X546267Y324340D01*
X545932Y324919D01*
X545759Y325566D01*
X545759Y331877D01*
X556777Y331877D01*
X556777Y323359D01*
X547966Y323359D01*
G37*
%LPD*%
%LPC*%
G36*
X437666Y57459D02*
X437666Y57459D01*
X437019Y57632D01*
X436440Y57967D01*
X435967Y58440D01*
X435632Y59019D01*
X435459Y59666D01*
X435459Y65977D01*
X446477Y65977D01*
X446477Y57459D01*
X437666Y57459D01*
G37*
%LPD*%
%LPC*%
G36*
X533023Y493723D02*
X533023Y493723D01*
X533023Y503018D01*
X534058Y502854D01*
X535693Y502322D01*
X537225Y501542D01*
X538616Y500531D01*
X539831Y499316D01*
X540842Y497925D01*
X541622Y496393D01*
X542154Y494758D01*
X542318Y493723D01*
X533023Y493723D01*
G37*
%LPD*%
%LPC*%
G36*
X544023Y853323D02*
X544023Y853323D01*
X544023Y862618D01*
X545058Y862454D01*
X546693Y861922D01*
X548225Y861142D01*
X549616Y860131D01*
X550831Y858916D01*
X551842Y857525D01*
X552622Y855993D01*
X553154Y854358D01*
X553318Y853323D01*
X544023Y853323D01*
G37*
%LPD*%
%LPC*%
G36*
X467023Y850323D02*
X467023Y850323D01*
X467023Y859618D01*
X468058Y859454D01*
X469693Y858922D01*
X471225Y858142D01*
X472616Y857131D01*
X473831Y855916D01*
X474842Y854525D01*
X475622Y852993D01*
X476154Y851358D01*
X476318Y850323D01*
X467023Y850323D01*
G37*
%LPD*%
%LPC*%
G36*
X486023Y597323D02*
X486023Y597323D01*
X486023Y606618D01*
X487058Y606454D01*
X488693Y605922D01*
X490225Y605142D01*
X491616Y604131D01*
X492831Y602916D01*
X493842Y601525D01*
X494622Y599993D01*
X495154Y598358D01*
X495318Y597323D01*
X486023Y597323D01*
G37*
%LPD*%
%LPC*%
G36*
X486023Y495723D02*
X486023Y495723D01*
X486023Y505018D01*
X487058Y504854D01*
X488693Y504322D01*
X490225Y503542D01*
X491616Y502531D01*
X492831Y501316D01*
X493842Y499925D01*
X494622Y498393D01*
X495154Y496758D01*
X495318Y495723D01*
X486023Y495723D01*
G37*
%LPD*%
%LPC*%
G36*
X467023Y748723D02*
X467023Y748723D01*
X467023Y758018D01*
X468058Y757854D01*
X469693Y757322D01*
X471225Y756542D01*
X472616Y755531D01*
X473831Y754316D01*
X474842Y752925D01*
X475622Y751393D01*
X476154Y749758D01*
X476318Y748723D01*
X467023Y748723D01*
G37*
%LPD*%
%LPC*%
G36*
X544023Y751723D02*
X544023Y751723D01*
X544023Y761018D01*
X545058Y760854D01*
X546693Y760322D01*
X548225Y759542D01*
X549616Y758531D01*
X550831Y757316D01*
X551842Y755925D01*
X552622Y754393D01*
X553154Y752758D01*
X553318Y751723D01*
X544023Y751723D01*
G37*
%LPD*%
%LPC*%
G36*
X533023Y595323D02*
X533023Y595323D01*
X533023Y604618D01*
X534058Y604454D01*
X535693Y603922D01*
X537225Y603142D01*
X538616Y602131D01*
X539831Y600916D01*
X540842Y599525D01*
X541622Y597993D01*
X542154Y596358D01*
X542318Y595323D01*
X533023Y595323D01*
G37*
%LPD*%
%LPC*%
G36*
X533023Y592277D02*
X533023Y592277D01*
X542318Y592277D01*
X542154Y591242D01*
X541622Y589607D01*
X540842Y588075D01*
X539831Y586684D01*
X538616Y585469D01*
X537225Y584458D01*
X535693Y583678D01*
X534058Y583146D01*
X533023Y582982D01*
X533023Y592277D01*
G37*
%LPD*%
%LPC*%
G36*
X531682Y751723D02*
X531682Y751723D01*
X531846Y752758D01*
X532378Y754393D01*
X533158Y755925D01*
X534169Y757316D01*
X535384Y758531D01*
X536775Y759542D01*
X538307Y760322D01*
X539942Y760854D01*
X540977Y761018D01*
X540977Y751723D01*
X531682Y751723D01*
G37*
%LPD*%
%LPC*%
G36*
X473682Y597323D02*
X473682Y597323D01*
X473846Y598358D01*
X474378Y599993D01*
X475158Y601525D01*
X476169Y602916D01*
X477384Y604131D01*
X478775Y605142D01*
X480307Y605922D01*
X481942Y606454D01*
X482977Y606618D01*
X482977Y597323D01*
X473682Y597323D01*
G37*
%LPD*%
%LPC*%
G36*
X486023Y594277D02*
X486023Y594277D01*
X495318Y594277D01*
X495154Y593242D01*
X494622Y591607D01*
X493842Y590075D01*
X492831Y588684D01*
X491616Y587469D01*
X490225Y586458D01*
X488693Y585678D01*
X487058Y585146D01*
X486023Y584982D01*
X486023Y594277D01*
G37*
%LPD*%
%LPC*%
G36*
X467023Y745677D02*
X467023Y745677D01*
X476318Y745677D01*
X476154Y744642D01*
X475622Y743007D01*
X474842Y741475D01*
X473831Y740084D01*
X472616Y738869D01*
X471225Y737858D01*
X469693Y737078D01*
X468058Y736546D01*
X467023Y736382D01*
X467023Y745677D01*
G37*
%LPD*%
%LPC*%
G36*
X454682Y850323D02*
X454682Y850323D01*
X454846Y851358D01*
X455378Y852993D01*
X456158Y854525D01*
X457169Y855916D01*
X458384Y857131D01*
X459775Y858142D01*
X461307Y858922D01*
X462942Y859454D01*
X463977Y859618D01*
X463977Y850323D01*
X454682Y850323D01*
G37*
%LPD*%
%LPC*%
G36*
X473682Y495723D02*
X473682Y495723D01*
X473846Y496758D01*
X474378Y498393D01*
X475158Y499925D01*
X476169Y501316D01*
X477384Y502531D01*
X478775Y503542D01*
X480307Y504322D01*
X481942Y504854D01*
X482977Y505018D01*
X482977Y495723D01*
X473682Y495723D01*
G37*
%LPD*%
%LPC*%
G36*
X520682Y493723D02*
X520682Y493723D01*
X520846Y494758D01*
X521378Y496393D01*
X522158Y497925D01*
X523169Y499316D01*
X524384Y500531D01*
X525775Y501542D01*
X527307Y502322D01*
X528942Y502854D01*
X529977Y503018D01*
X529977Y493723D01*
X520682Y493723D01*
G37*
%LPD*%
%LPC*%
G36*
X467023Y847277D02*
X467023Y847277D01*
X476318Y847277D01*
X476154Y846242D01*
X475622Y844607D01*
X474842Y843075D01*
X473831Y841684D01*
X472616Y840469D01*
X471225Y839458D01*
X469693Y838678D01*
X468058Y838146D01*
X467023Y837982D01*
X467023Y847277D01*
G37*
%LPD*%
%LPC*%
G36*
X486023Y492677D02*
X486023Y492677D01*
X495318Y492677D01*
X495154Y491642D01*
X494622Y490007D01*
X493842Y488475D01*
X492831Y487084D01*
X491616Y485869D01*
X490225Y484858D01*
X488693Y484078D01*
X487058Y483546D01*
X486023Y483382D01*
X486023Y492677D01*
G37*
%LPD*%
%LPC*%
G36*
X454682Y748723D02*
X454682Y748723D01*
X454846Y749758D01*
X455378Y751393D01*
X456158Y752925D01*
X457169Y754316D01*
X458384Y755531D01*
X459775Y756542D01*
X461307Y757322D01*
X462942Y757854D01*
X463977Y758018D01*
X463977Y748723D01*
X454682Y748723D01*
G37*
%LPD*%
%LPC*%
G36*
X544023Y850277D02*
X544023Y850277D01*
X553318Y850277D01*
X553154Y849242D01*
X552622Y847607D01*
X551842Y846075D01*
X550831Y844684D01*
X549616Y843469D01*
X548225Y842458D01*
X546693Y841678D01*
X545058Y841146D01*
X544023Y840982D01*
X544023Y850277D01*
G37*
%LPD*%
%LPC*%
G36*
X533023Y490677D02*
X533023Y490677D01*
X542318Y490677D01*
X542154Y489642D01*
X541622Y488007D01*
X540842Y486475D01*
X539831Y485084D01*
X538616Y483869D01*
X537225Y482858D01*
X535693Y482078D01*
X534058Y481546D01*
X533023Y481382D01*
X533023Y490677D01*
G37*
%LPD*%
%LPC*%
G36*
X544023Y748677D02*
X544023Y748677D01*
X553318Y748677D01*
X553154Y747642D01*
X552622Y746007D01*
X551842Y744475D01*
X550831Y743084D01*
X549616Y741869D01*
X548225Y740858D01*
X546693Y740078D01*
X545058Y739546D01*
X544023Y739382D01*
X544023Y748677D01*
G37*
%LPD*%
%LPC*%
G36*
X531682Y853323D02*
X531682Y853323D01*
X531846Y854358D01*
X532378Y855993D01*
X533158Y857525D01*
X534169Y858916D01*
X535384Y860131D01*
X536775Y861142D01*
X538307Y861922D01*
X539942Y862454D01*
X540977Y862618D01*
X540977Y853323D01*
X531682Y853323D01*
G37*
%LPD*%
%LPC*%
G36*
X520682Y595323D02*
X520682Y595323D01*
X520846Y596358D01*
X521378Y597993D01*
X522158Y599525D01*
X523169Y600916D01*
X524384Y602131D01*
X525775Y603142D01*
X527307Y603922D01*
X528942Y604454D01*
X529977Y604618D01*
X529977Y595323D01*
X520682Y595323D01*
G37*
%LPD*%
%LPC*%
G36*
X539942Y739546D02*
X539942Y739546D01*
X538307Y740078D01*
X536775Y740858D01*
X535384Y741869D01*
X534169Y743084D01*
X533158Y744475D01*
X532378Y746007D01*
X531846Y747642D01*
X531682Y748677D01*
X540977Y748677D01*
X540977Y739382D01*
X539942Y739546D01*
G37*
%LPD*%
%LPC*%
G36*
X462942Y838146D02*
X462942Y838146D01*
X461307Y838678D01*
X459775Y839458D01*
X458384Y840469D01*
X457169Y841684D01*
X456158Y843075D01*
X455378Y844607D01*
X454846Y846242D01*
X454682Y847277D01*
X463977Y847277D01*
X463977Y837982D01*
X462942Y838146D01*
G37*
%LPD*%
%LPC*%
G36*
X539942Y841146D02*
X539942Y841146D01*
X538307Y841678D01*
X536775Y842458D01*
X535384Y843469D01*
X534169Y844684D01*
X533158Y846075D01*
X532378Y847607D01*
X531846Y849242D01*
X531682Y850277D01*
X540977Y850277D01*
X540977Y840982D01*
X539942Y841146D01*
G37*
%LPD*%
%LPC*%
G36*
X528942Y583146D02*
X528942Y583146D01*
X527307Y583678D01*
X525775Y584458D01*
X524384Y585469D01*
X523169Y586684D01*
X522158Y588075D01*
X521378Y589607D01*
X520846Y591242D01*
X520682Y592277D01*
X529977Y592277D01*
X529977Y582982D01*
X528942Y583146D01*
G37*
%LPD*%
%LPC*%
G36*
X462942Y736546D02*
X462942Y736546D01*
X461307Y737078D01*
X459775Y737858D01*
X458384Y738869D01*
X457169Y740084D01*
X456158Y741475D01*
X455378Y743007D01*
X454846Y744642D01*
X454682Y745677D01*
X463977Y745677D01*
X463977Y736382D01*
X462942Y736546D01*
G37*
%LPD*%
%LPC*%
G36*
X481942Y483546D02*
X481942Y483546D01*
X480307Y484078D01*
X478775Y484858D01*
X477384Y485869D01*
X476169Y487084D01*
X475158Y488475D01*
X474378Y490007D01*
X473846Y491642D01*
X473682Y492677D01*
X482977Y492677D01*
X482977Y483382D01*
X481942Y483546D01*
G37*
%LPD*%
%LPC*%
G36*
X528942Y481546D02*
X528942Y481546D01*
X527307Y482078D01*
X525775Y482858D01*
X524384Y483869D01*
X523169Y485084D01*
X522158Y486475D01*
X521378Y488007D01*
X520846Y489642D01*
X520682Y490677D01*
X529977Y490677D01*
X529977Y481382D01*
X528942Y481546D01*
G37*
%LPD*%
%LPC*%
G36*
X481942Y585146D02*
X481942Y585146D01*
X480307Y585678D01*
X478775Y586458D01*
X477384Y587469D01*
X476169Y588684D01*
X475158Y590075D01*
X474378Y591607D01*
X473846Y593242D01*
X473682Y594277D01*
X482977Y594277D01*
X482977Y584982D01*
X481942Y585146D01*
G37*
%LPD*%
%LPC*%
G36*
X410999Y87351D02*
X410999Y87351D01*
X423041Y87351D01*
X423041Y85516D01*
X422868Y84869D01*
X422533Y84290D01*
X422060Y83817D01*
X421481Y83482D01*
X420834Y83309D01*
X410999Y83309D01*
X410999Y87351D01*
G37*
%LPD*%
%LPC*%
G36*
X774023Y84459D02*
X774023Y84459D01*
X774023Y92477D01*
X780041Y92477D01*
X780041Y86666D01*
X779868Y86019D01*
X779533Y85440D01*
X779060Y84967D01*
X778481Y84632D01*
X777834Y84459D01*
X774023Y84459D01*
G37*
%LPD*%
%LPC*%
G36*
X465499Y747199D02*
X465499Y747199D01*
X465499Y747201D01*
X465501Y747201D01*
X465501Y747199D01*
X465499Y747199D01*
G37*
%LPD*%
%LPC*%
G36*
X217499Y187899D02*
X217499Y187899D01*
X217499Y187901D01*
X217501Y187901D01*
X217501Y187899D01*
X217499Y187899D01*
G37*
%LPD*%
%LPC*%
G36*
X465499Y848799D02*
X465499Y848799D01*
X465499Y848801D01*
X465501Y848801D01*
X465501Y848799D01*
X465499Y848799D01*
G37*
%LPD*%
%LPC*%
G36*
X542499Y851799D02*
X542499Y851799D01*
X542499Y851801D01*
X542501Y851801D01*
X542501Y851799D01*
X542499Y851799D01*
G37*
%LPD*%
%LPC*%
G36*
X155999Y742977D02*
X155999Y742977D01*
X155999Y742979D01*
X156001Y742979D01*
X156001Y742977D01*
X155999Y742977D01*
G37*
%LPD*%
%LPC*%
G36*
X158799Y672645D02*
X158799Y672645D01*
X158799Y672647D01*
X158801Y672647D01*
X158801Y672645D01*
X158799Y672645D01*
G37*
%LPD*%
%LPC*%
G36*
X158799Y622607D02*
X158799Y622607D01*
X158799Y622609D01*
X158801Y622609D01*
X158801Y622607D01*
X158799Y622607D01*
G37*
%LPD*%
%LPC*%
G36*
X531499Y593799D02*
X531499Y593799D01*
X531499Y593801D01*
X531501Y593801D01*
X531501Y593799D01*
X531499Y593799D01*
G37*
%LPD*%
%LPC*%
G36*
X155999Y968021D02*
X155999Y968021D01*
X155999Y968023D01*
X156001Y968023D01*
X156001Y968021D01*
X155999Y968021D01*
G37*
%LPD*%
%LPC*%
G36*
X542499Y750199D02*
X542499Y750199D01*
X542499Y750201D01*
X542501Y750201D01*
X542501Y750199D01*
X542499Y750199D01*
G37*
%LPD*%
%LPC*%
G36*
X531499Y492199D02*
X531499Y492199D01*
X531499Y492201D01*
X531501Y492201D01*
X531501Y492199D01*
X531499Y492199D01*
G37*
%LPD*%
%LPC*%
G36*
X484499Y595799D02*
X484499Y595799D01*
X484499Y595801D01*
X484501Y595801D01*
X484501Y595799D01*
X484499Y595799D01*
G37*
%LPD*%
%LPC*%
G36*
X484499Y494199D02*
X484499Y494199D01*
X484499Y494201D01*
X484501Y494201D01*
X484501Y494199D01*
X484499Y494199D01*
G37*
%LPD*%
%LPC*%
G36*
X88499Y335699D02*
X88499Y335699D01*
X88499Y335701D01*
X88501Y335701D01*
X88501Y335699D01*
X88499Y335699D01*
G37*
%LPD*%
%LPC*%
G36*
X558299Y333399D02*
X558299Y333399D01*
X558299Y333401D01*
X558301Y333401D01*
X558301Y333399D01*
X558299Y333399D01*
G37*
%LPD*%
%LPC*%
G36*
X403999Y512499D02*
X403999Y512499D01*
X403999Y512501D01*
X404001Y512501D01*
X404001Y512499D01*
X403999Y512499D01*
G37*
%LPD*%
%LPC*%
G36*
X186699Y120399D02*
X186699Y120399D01*
X186699Y120401D01*
X186701Y120401D01*
X186701Y120399D01*
X186699Y120399D01*
G37*
%LPD*%
%LPC*%
G36*
X397399Y765999D02*
X397399Y765999D01*
X397399Y766001D01*
X397401Y766001D01*
X397401Y765999D01*
X397399Y765999D01*
G37*
%LPD*%
%LPC*%
G36*
X733899Y768599D02*
X733899Y768599D01*
X733899Y768601D01*
X733901Y768601D01*
X733901Y768599D01*
X733899Y768599D01*
G37*
%LPD*%
%LPC*%
G36*
X414999Y62999D02*
X414999Y62999D01*
X414999Y63001D01*
X415001Y63001D01*
X415001Y62999D01*
X414999Y62999D01*
G37*
%LPD*%
D10*
X402200Y245850D03*
X355200Y245850D03*
X402200Y233150D03*
X402200Y258550D03*
X402200Y271250D03*
X355200Y233150D03*
X355200Y258550D03*
X355200Y271250D03*
D11*
X372000Y899500D03*
D12*
X397400Y766000D03*
X346600Y764730D03*
D13*
X409500Y101550D03*
X357500Y101550D03*
X409500Y88850D03*
X409500Y114250D03*
X409500Y126950D03*
X357500Y88850D03*
X357500Y114250D03*
X357500Y126950D03*
D14*
X327700Y139000D03*
X297700Y139000D03*
D15*
X448000Y97500D03*
X448000Y67500D03*
D16*
X319800Y86200D03*
X319800Y114200D03*
D17*
X352800Y62600D03*
X324800Y62600D03*
D16*
X258100Y65100D03*
X258100Y93100D03*
D18*
X37700Y335700D03*
D19*
X88500Y335700D03*
D20*
X230000Y60100D03*
X230000Y95100D03*
D11*
X378600Y646000D03*
D12*
X404000Y512500D03*
X353200Y511230D03*
D16*
X305600Y762200D03*
X305600Y790200D03*
X305100Y513200D03*
X305100Y541200D03*
D15*
X319600Y230500D03*
X319600Y260500D03*
X328200Y285000D03*
X328200Y315000D03*
D21*
X286600Y297100D03*
X286600Y195500D03*
X422800Y203000D03*
X321200Y203000D03*
D15*
X450700Y160900D03*
X450700Y190900D03*
D10*
X633600Y261450D03*
X586600Y261450D03*
X633600Y248750D03*
X633600Y274150D03*
X633600Y286850D03*
X586600Y248750D03*
X586600Y274150D03*
X586600Y286850D03*
D11*
X708500Y902100D03*
D12*
X733900Y768600D03*
X683100Y767330D03*
D11*
X696200Y650800D03*
D12*
X721600Y517300D03*
X670800Y516030D03*
D17*
G36*
X646383Y781610D02*
X662382Y781637D01*
X662417Y761638D01*
X646418Y761611D01*
X646383Y781610D01*
G37*
G36*
X618383Y781562D02*
X634382Y781589D01*
X634417Y761590D01*
X618418Y761563D01*
X618383Y781562D01*
G37*
D16*
X634500Y526100D03*
X634500Y554100D03*
D15*
X549400Y244500D03*
X549400Y274500D03*
X558300Y303400D03*
X558300Y333400D03*
D21*
X518700Y301500D03*
X518700Y199900D03*
X653400Y210200D03*
X551800Y210200D03*
D14*
X613000Y139200D03*
X643000Y139200D03*
D11*
X123300Y228200D03*
D12*
X147430Y97240D03*
X96630Y97240D03*
D15*
X46200Y101600D03*
X46200Y131600D03*
X186700Y120400D03*
X186700Y90400D03*
D22*
X70720Y25000D02*
X55480Y25000D01*
X55480Y50400D02*
X70720Y50400D01*
X70720Y75800D02*
X55480Y75800D01*
D17*
X492500Y139100D03*
X520500Y139100D03*
D14*
X385000Y63000D03*
X415000Y63000D03*
D23*
X480854Y921394D02*
X480854Y941206D01*
X530892Y941206D02*
X530892Y921394D01*
X168706Y672646D02*
X148894Y672646D01*
X148894Y622608D02*
X168706Y622608D01*
D24*
X632418Y174500D02*
X649182Y174500D01*
X547582Y174500D02*
X530818Y174500D01*
X415182Y172000D02*
X398418Y172000D01*
X313582Y172000D02*
X296818Y172000D01*
D18*
X217500Y137100D03*
D25*
X217500Y187900D03*
D17*
X537500Y107500D03*
X537500Y53500D03*
X491000Y107000D03*
X491000Y53000D03*
D26*
X168700Y742978D02*
X143300Y742978D01*
X143300Y968022D02*
X168700Y968022D01*
D21*
X484500Y494200D03*
X484500Y595800D03*
X465500Y747200D03*
X465500Y848800D03*
X531500Y492200D03*
X531500Y593800D03*
X542500Y750200D03*
X542500Y851800D03*
D27*
X578000Y110220D03*
X578000Y81780D03*
X606000Y110220D03*
X606000Y81780D03*
X635000Y82780D03*
X635000Y111220D03*
D28*
X629780Y47000D03*
X658220Y47000D03*
X574780Y49000D03*
X603220Y49000D03*
D27*
X720000Y34780D03*
X720000Y63220D03*
X751000Y34780D03*
X751000Y63220D03*
X780000Y35780D03*
X780000Y64220D03*
X727000Y137220D03*
X727000Y108780D03*
D29*
X658000Y111000D03*
X680000Y120500D03*
X680000Y101500D03*
D30*
X763000Y116000D03*
X772500Y94000D03*
X753500Y94000D03*
X688000Y38000D03*
X678500Y60000D03*
X697500Y60000D03*
D31*
X404000Y472500D02*
X404000Y512500D01*
X404000Y472500D02*
X342000Y410500D01*
X341000Y409500D01*
X338500Y407000D01*
X721600Y402000D02*
X721600Y517300D01*
X721600Y402000D02*
X351500Y402000D01*
X344000Y409500D02*
X341000Y409500D01*
X344000Y409500D02*
X351500Y402000D01*
X158800Y445700D02*
X158800Y622608D01*
X194000Y410500D02*
X342000Y410500D01*
X194000Y410500D02*
X158800Y445700D01*
D32*
X673000Y286500D02*
X673000Y277000D01*
X558300Y333400D02*
X488900Y333400D01*
X443000Y287500D02*
X443000Y261000D01*
X443000Y259000D01*
X443000Y287500D02*
X488900Y333400D01*
X353500Y319000D02*
X349500Y315000D01*
X328200Y315000D01*
D33*
X353500Y319000D03*
D32*
X414250Y64750D02*
X414500Y64500D01*
X414250Y63750D02*
X415000Y63000D01*
X431500Y63000D01*
D34*
X297700Y139000D02*
X281500Y122800D01*
X414250Y63750D02*
X414250Y47750D01*
X414250Y63750D02*
X414250Y64750D01*
X281500Y100000D02*
X281500Y122800D01*
X281500Y100000D02*
X281500Y75000D01*
X313000Y43500D01*
X410000Y43500D01*
X414250Y47750D01*
X409500Y88850D02*
X427500Y88850D01*
X427500Y63000D01*
X415000Y63000D01*
X436000Y67500D02*
X448000Y67500D01*
X436000Y67500D02*
X431500Y63000D01*
D35*
X297700Y139000D02*
X280500Y139000D01*
X278500Y141000D01*
D33*
X278500Y141000D03*
D32*
X265000Y100000D02*
X258100Y93100D01*
X265000Y100000D02*
X281500Y100000D01*
X123300Y238800D02*
X202500Y318000D01*
X123300Y238800D02*
X123300Y228200D01*
X111150Y231350D02*
X46200Y166400D01*
X46200Y131600D01*
X123300Y228200D02*
X123300Y287738D01*
X88500Y335700D01*
D35*
X123300Y228200D02*
X150900Y187900D01*
X162900Y187900D02*
X186700Y164100D01*
X186700Y120400D01*
X162900Y187900D02*
X217500Y187900D01*
X162900Y187900D02*
X150900Y187900D01*
X303500Y315000D02*
X328200Y315000D01*
X303500Y315000D02*
X300500Y318000D01*
X202500Y318000D01*
X115850Y231350D02*
X111150Y231350D01*
X115850Y231350D02*
X202500Y318000D01*
D32*
X75700Y75800D02*
X63100Y75800D01*
X312500Y43000D02*
X313000Y43500D01*
X108500Y43000D02*
X75700Y75800D01*
X108500Y43000D02*
X312500Y43000D01*
D33*
X138000Y547000D03*
X252000Y466000D03*
X284000Y411000D03*
X640000Y466000D03*
X505000Y407000D03*
X703000Y468000D03*
X594000Y407000D03*
X470000Y341000D03*
X470000Y270000D03*
X290000Y55000D03*
X191000Y59000D03*
X30000Y39000D03*
X54000Y163000D03*
X47000Y218000D03*
X50000Y285000D03*
D32*
X440550Y258550D02*
X443000Y261000D01*
X440550Y258550D02*
X402200Y258550D01*
X670150Y274150D02*
X673000Y277000D01*
X658000Y274150D02*
X633600Y274150D01*
X658000Y274150D02*
X670150Y274150D01*
X658000Y274150D02*
X658000Y245000D01*
X651000Y238000D01*
X645000Y232000D01*
X630000Y232000D01*
X588000Y190000D02*
X588000Y167904D01*
X588000Y190000D02*
X630000Y232000D01*
X588000Y167904D02*
X567000Y146904D01*
X569096Y119124D02*
X578000Y110220D01*
X567000Y127106D02*
X567000Y146904D01*
X567096Y121124D02*
X578000Y110220D01*
X567096Y121124D02*
X567096Y127010D01*
X567000Y127106D01*
X651000Y238000D02*
X680000Y209000D01*
X680000Y162000D01*
X680000Y120500D01*
X703404Y120500D01*
X704904Y119000D01*
X704904Y97010D01*
X678500Y70606D02*
X678500Y60000D01*
X678500Y70606D02*
X704904Y97010D01*
X772500Y94000D02*
X780000Y86500D01*
X780000Y64220D01*
X772500Y94000D02*
X778000Y99500D01*
X778000Y135000D01*
X751000Y162000D01*
X680000Y162000D01*
D33*
X712000Y205000D03*
X758000Y230000D03*
X712000Y257000D03*
D32*
X329500Y137200D02*
X327700Y139000D01*
X329500Y137200D02*
X341500Y137200D01*
X341500Y126950D01*
X357500Y126950D01*
X574850Y286850D02*
X586600Y286850D01*
X574850Y286850D02*
X560100Y301600D01*
X558300Y303400D01*
X560100Y301600D02*
X560000Y301500D01*
D35*
X518700Y301500D01*
D32*
X355200Y271250D02*
X354200Y272250D01*
X341200Y272250D01*
D35*
X288600Y295100D02*
X286600Y297100D01*
X321100Y292100D02*
X328100Y292100D01*
X321100Y292100D02*
X291600Y292100D01*
X286600Y297100D01*
X321100Y292100D02*
X328200Y285000D01*
D32*
X328450Y285000D02*
X341200Y272250D01*
X328450Y285000D02*
X328200Y285000D01*
D33*
X351500Y295000D03*
D32*
X331000Y295000D01*
X328100Y292100D01*
X516200Y299000D02*
X518700Y301500D01*
X516200Y299000D02*
X493500Y299000D01*
D33*
X493500Y299000D03*
D32*
X409152Y127298D02*
X394752Y127298D01*
X409152Y127298D02*
X409500Y126950D01*
X394752Y127298D02*
X392477Y125023D01*
X387500Y120046D01*
X385000Y63000D02*
X353200Y63000D01*
X352800Y62600D01*
X352800Y84150D01*
X357500Y88850D01*
X387500Y93000D02*
X387500Y120046D01*
X387500Y93000D02*
X383350Y88850D01*
X357500Y88850D01*
X392477Y125023D02*
X365500Y152000D01*
X365500Y191000D02*
X382500Y208000D01*
D33*
X382500Y208000D03*
D32*
X365500Y191000D02*
X365500Y152000D01*
D35*
X247500Y258000D02*
X286600Y297100D01*
X247500Y258000D02*
X247500Y137000D01*
D32*
X493500Y263000D02*
X493500Y299000D01*
X493500Y263000D02*
X483500Y253000D01*
D35*
X147430Y97240D02*
X151700Y79000D01*
X217500Y137000D02*
X247500Y137000D01*
X217500Y137100D02*
X217500Y137000D01*
D36*
X154270Y90400D02*
X147430Y97240D01*
X154270Y90400D02*
X186700Y90400D01*
X201500Y90400D01*
X214500Y103400D02*
X221700Y103400D01*
X230000Y95100D01*
X217500Y106400D02*
X217500Y137100D01*
X217500Y106400D02*
X214500Y103400D01*
X201500Y90400D01*
D32*
X483500Y148100D02*
X492500Y139100D01*
X483500Y148100D02*
X483500Y253000D01*
X695220Y137220D02*
X727000Y137220D01*
X695220Y137220D02*
X695000Y137000D01*
D33*
X695000Y137000D03*
D32*
X357500Y101550D02*
X341050Y101550D01*
X324800Y81200D02*
X324800Y62600D01*
X324800Y81200D02*
X319800Y86200D01*
X325700Y86200D01*
X341050Y101550D01*
X443950Y101550D02*
X448000Y97500D01*
X443950Y101550D02*
X409500Y101550D01*
X320402Y113598D02*
X319800Y114200D01*
X319850Y114250D02*
X357500Y114250D01*
X319850Y114250D02*
X319800Y114200D01*
D34*
X449500Y115000D02*
X449500Y99000D01*
X448000Y97500D01*
D33*
X449500Y115000D03*
X296500Y115000D03*
D34*
X319100Y115000D01*
X319850Y114250D01*
D32*
X409500Y114250D02*
X426750Y114250D01*
D34*
X450700Y133000D02*
X450700Y160900D01*
X606000Y146200D02*
X613000Y139200D01*
X588500Y145000D02*
X588500Y146200D01*
X606000Y146200D01*
D33*
X588500Y145000D03*
X451500Y133000D03*
D34*
X450700Y133000D01*
X451500Y133000D02*
X445500Y133000D01*
X426750Y114250D01*
D31*
X679350Y872950D02*
X708500Y902100D01*
D35*
X37700Y335700D02*
X25700Y335700D01*
X25148Y335148D01*
X23800Y329478D01*
X23800Y101600D01*
X46200Y101600D01*
X96630Y97240D02*
X97900Y101600D01*
X46200Y101600D01*
X147500Y959522D02*
X156000Y968022D01*
X147500Y959522D02*
X147500Y855000D01*
X123500Y831000D01*
X78500Y831000D01*
X46500Y799000D01*
X46500Y344500D02*
X37700Y335700D01*
X46500Y344500D02*
X46500Y799000D01*
D31*
X223500Y899500D02*
X372000Y899500D01*
X156000Y967000D02*
X156000Y968022D01*
X156000Y967000D02*
X223500Y899500D01*
X372000Y899500D02*
X398550Y872950D01*
X679350Y872950D01*
D33*
X244000Y954000D03*
X246000Y901000D03*
X248000Y845000D03*
D32*
X673000Y937600D02*
X708500Y902100D01*
X673000Y937600D02*
X673000Y951000D01*
X688600Y922000D02*
X708500Y902100D01*
X688600Y922000D02*
X673000Y922000D01*
X708500Y910500D02*
X708500Y902100D01*
X708500Y910500D02*
X685000Y887000D01*
X704000Y897600D02*
X708500Y902100D01*
X704000Y897600D02*
X704000Y887000D01*
X725600Y885000D02*
X737000Y885000D01*
X725600Y885000D02*
X708500Y902100D01*
D33*
X611000Y914000D03*
X602000Y957000D03*
D32*
X353200Y511230D02*
X348801Y513200D01*
X305100Y513200D01*
D35*
X343643Y762200D02*
X346600Y764730D01*
X343643Y762200D02*
X305600Y762200D01*
D32*
X402200Y271250D02*
X423750Y271250D01*
X428500Y276000D01*
X305100Y541200D02*
X293300Y553000D01*
X241500Y553000D01*
X228500Y566000D01*
X228500Y777000D02*
X223500Y782000D01*
X100500Y782000D01*
X228500Y777000D02*
X228500Y566000D01*
X89500Y771000D02*
X100500Y782000D01*
X405000Y359500D02*
X428500Y336000D01*
X428500Y276000D01*
X89500Y416500D02*
X89500Y771000D01*
X89500Y416500D02*
X146500Y359500D01*
X405000Y359500D01*
X374350Y245850D02*
X355200Y245850D01*
X374350Y245850D02*
X376500Y248000D01*
X376500Y332500D01*
X305600Y790200D02*
X260538Y790200D01*
X239781Y807000D01*
X82500Y807000D01*
X63500Y788000D01*
X63500Y400000D01*
X131000Y332500D01*
X376500Y332500D01*
D35*
X422800Y203000D02*
X406800Y187000D01*
X406800Y172000D01*
X438600Y203000D02*
X450700Y190900D01*
X438600Y203000D02*
X422800Y203000D01*
X643163Y517437D02*
X670800Y516030D01*
X643163Y517437D02*
X634500Y526100D01*
X657370Y768654D02*
X654400Y771624D01*
X657370Y768654D02*
X683100Y767330D01*
D32*
X640400Y560000D02*
X634500Y554100D01*
X640400Y560000D02*
X753500Y560000D01*
X753500Y335000D01*
X649500Y335000D01*
X651350Y286850D02*
X633600Y286850D01*
X651350Y286850D02*
X654500Y290000D01*
X654500Y294000D01*
D33*
X654500Y294000D03*
X649500Y335000D03*
D32*
X599950Y261450D02*
X586600Y261450D01*
X599950Y261450D02*
X605500Y267000D01*
X626400Y771576D02*
X626400Y786900D01*
X645500Y806000D02*
X774500Y806000D01*
X778500Y802000D01*
X645500Y806000D02*
X626400Y786900D01*
X778500Y802000D02*
X778500Y309000D01*
X605500Y309000D01*
X605500Y267000D01*
D35*
X653400Y210200D02*
X653800Y209800D01*
X653800Y187500D01*
X640800Y174500D01*
X643000Y172300D01*
X643000Y139200D01*
D31*
X397400Y708900D02*
X397400Y766000D01*
X397400Y708900D02*
X327500Y639000D01*
X325500Y646000D02*
X378600Y646000D01*
X325500Y646000D02*
X325500Y641000D01*
X325500Y646000D02*
X325500Y658000D01*
X325500Y641000D02*
X327500Y639000D01*
D32*
X321550Y258550D02*
X355200Y258550D01*
X321550Y258550D02*
X319600Y260500D01*
D35*
X305200Y172000D02*
X264500Y172000D01*
X264500Y226000D01*
X297050Y258550D02*
X321550Y258550D01*
X286000Y247500D02*
X264500Y226000D01*
X286000Y247500D02*
X297050Y258550D01*
D32*
X337600Y646000D02*
X378600Y646000D01*
X337600Y646000D02*
X243500Y740100D01*
X243500Y782000D01*
X231000Y794500D01*
X91000Y794500D02*
X76500Y780000D01*
X76500Y408000D01*
X137500Y347000D02*
X306500Y347000D01*
X306500Y346000D01*
X231000Y794500D02*
X91000Y794500D01*
X76500Y408000D02*
X137500Y347000D01*
D33*
X306500Y346000D03*
X286000Y247500D03*
X396000Y761000D03*
X261000Y682000D03*
X269000Y643000D03*
X261000Y608000D03*
X471000Y631000D03*
D31*
X713500Y629000D02*
X724500Y629000D01*
X724500Y656000D02*
X713500Y656000D01*
X724500Y656000D02*
X724500Y629000D01*
X713500Y633500D02*
X696200Y650800D01*
X713500Y660000D02*
X713500Y629000D01*
X696200Y650800D02*
X680500Y635100D01*
X680500Y617000D01*
X733900Y649400D02*
X733900Y768600D01*
X733900Y649400D02*
X713500Y629000D01*
D32*
X586600Y274150D02*
X549750Y274150D01*
X549400Y274500D01*
X539200Y174500D02*
X496500Y174500D01*
X713500Y633500D02*
X713500Y656000D01*
X713500Y633500D02*
X713500Y591000D01*
X549400Y274500D02*
X529000Y274500D01*
X515500Y261000D01*
X496500Y242000D01*
X496500Y174500D01*
X766000Y581000D02*
X696200Y650800D01*
X766000Y321500D02*
X595000Y321500D01*
X594500Y322000D01*
X766000Y321500D02*
X766000Y581000D01*
D33*
X594500Y322000D03*
X515500Y261000D03*
X596000Y638000D03*
X596000Y774000D03*
X549000Y637000D03*
X599000Y694000D03*
D32*
X537500Y107500D02*
X532500Y102500D01*
X520500Y127500D02*
X520500Y139100D01*
X537500Y107500D02*
X535000Y105000D01*
X520000Y105000D01*
X520000Y107000D02*
X491000Y107000D01*
X520000Y107000D02*
X520000Y105000D01*
X520000Y107000D02*
X520000Y138600D01*
X520500Y139100D01*
X258100Y65100D02*
X235000Y65100D01*
X230000Y60100D01*
X352550Y230500D02*
X355200Y233150D01*
X352550Y230500D02*
X319600Y230500D01*
D35*
X313700Y195500D02*
X286600Y195500D01*
X313700Y195500D02*
X321200Y203000D01*
X319600Y204600D02*
X319600Y230500D01*
X319600Y204600D02*
X321200Y203000D01*
D32*
X553650Y248750D02*
X586600Y248750D01*
X553650Y248750D02*
X549400Y244500D01*
D35*
X551800Y210200D02*
X549400Y209995D01*
X549400Y244500D01*
X529000Y210200D02*
X518700Y199900D01*
X529000Y210200D02*
X551800Y210200D01*
D31*
X158800Y740178D02*
X156000Y742978D01*
X158800Y740178D02*
X158800Y672646D01*
D32*
X83100Y50400D02*
X63100Y50400D01*
X83100Y50400D02*
X105904Y27596D01*
X578000Y81780D02*
X606000Y81780D01*
X612610Y75170D01*
X578000Y81780D02*
X578000Y52220D01*
X553376Y27596D02*
X105904Y27596D01*
X553376Y27596D02*
X574780Y49000D01*
X634000Y110220D02*
X635000Y111220D01*
X634000Y110220D02*
X606000Y110220D01*
X635220Y111000D02*
X658000Y111000D01*
X635220Y111000D02*
X635000Y111220D01*
X635000Y82780D02*
X656220Y82780D01*
X657000Y82000D01*
X633600Y248750D02*
X621750Y248750D01*
X570000Y197000D01*
X555000Y61000D02*
X547500Y53500D01*
X537500Y53500D01*
X570000Y169000D02*
X570000Y197000D01*
X555000Y122000D02*
X555000Y61000D01*
X551000Y126000D02*
X551000Y150000D01*
X551000Y126000D02*
X555000Y122000D01*
X551000Y150000D02*
X570000Y169000D01*
D33*
X656220Y82780D03*
D32*
X458850Y233150D02*
X402200Y233150D01*
X458850Y233150D02*
X470000Y222000D01*
X470000Y74000D02*
X491000Y53000D01*
X470000Y74000D02*
X470000Y222000D01*
X657000Y48220D02*
X658220Y47000D01*
X657000Y48220D02*
X657000Y65000D01*
D33*
X657000Y65000D03*
X503000Y80000D03*
D32*
X491000Y68000D01*
X491000Y53000D01*
X605220Y47000D02*
X629780Y47000D01*
X605220Y47000D02*
X603220Y49000D01*
X627000Y44220D02*
X629780Y47000D01*
X630000Y29000D02*
X679000Y29000D01*
X688000Y38000D01*
X629780Y29220D02*
X629780Y47000D01*
X629780Y29220D02*
X630000Y29000D01*
X65100Y28000D02*
X63100Y26000D01*
X63100Y25000D01*
X65100Y28000D02*
X86401Y28000D01*
X99102Y15299D01*
X692000Y15299D01*
X752000Y35780D02*
X780000Y35780D01*
X752000Y35780D02*
X751000Y34780D01*
X720000Y34780D01*
X700519Y15299D01*
X692000Y15299D01*
X720000Y63220D02*
X717000Y66220D01*
X680000Y92019D02*
X680000Y101500D01*
X680000Y92019D02*
X673491Y85509D01*
D33*
X673491Y85509D03*
X728456Y83544D03*
D32*
X720000Y75088D01*
X720000Y63220D01*
X753500Y65720D02*
X753500Y94000D01*
X753500Y65720D02*
X751000Y63220D01*
X727000Y102000D02*
X727000Y108780D01*
X697500Y72500D02*
X697500Y60000D01*
X697500Y72500D02*
X727000Y102000D01*
X734220Y116000D02*
X763000Y116000D01*
X734220Y116000D02*
X727000Y108780D01*
D33*
X607000Y869000D03*
M02*
