G04 EAGLE Gerber RS-274X export*
G75*
%MOMM*%
%FSLAX34Y34*%
%LPD*%
%INBottom Copper*%
%IPPOS*%
%AMOC8*
5,1,8,0,0,1.08239X$1,22.5*%
G01*
%ADD10C,2.540000*%
%ADD11P,2.749271X8X22.500000*%
%ADD12C,1.676400*%
%ADD13C,1.524000*%
%ADD14R,1.500000X1.500000*%
%ADD15R,2.000000X1.600000*%
%ADD16C,1.981200*%
%ADD17C,1.676400*%
%ADD18P,2.749271X8X112.500000*%
%ADD19C,2.540000*%
%ADD20C,1.006400*%
%ADD21C,0.609600*%
%ADD22C,1.270000*%
%ADD23C,0.600000*%

G36*
X44905Y10927D02*
X44905Y10927D01*
X44937Y10925D01*
X45044Y10947D01*
X45152Y10963D01*
X45181Y10976D01*
X45213Y10982D01*
X45309Y11034D01*
X45409Y11079D01*
X45433Y11100D01*
X45462Y11115D01*
X45540Y11191D01*
X45623Y11262D01*
X45641Y11289D01*
X45664Y11312D01*
X45718Y11407D01*
X45778Y11498D01*
X45787Y11529D01*
X45803Y11557D01*
X45828Y11663D01*
X45860Y11768D01*
X45861Y11800D01*
X45868Y11831D01*
X45862Y11941D01*
X45864Y12050D01*
X45855Y12081D01*
X45854Y12113D01*
X45818Y12216D01*
X45789Y12322D01*
X45772Y12349D01*
X45761Y12380D01*
X45708Y12453D01*
X45640Y12562D01*
X45604Y12594D01*
X45579Y12629D01*
X42129Y16079D01*
X39731Y21867D01*
X39731Y28133D01*
X42129Y33921D01*
X45201Y36993D01*
X45240Y37045D01*
X45286Y37090D01*
X45324Y37157D01*
X45371Y37219D01*
X45393Y37279D01*
X45425Y37335D01*
X45443Y37410D01*
X45470Y37483D01*
X45475Y37547D01*
X45490Y37609D01*
X45486Y37687D01*
X45492Y37764D01*
X45479Y37827D01*
X45476Y37891D01*
X45450Y37964D01*
X45434Y38040D01*
X45404Y38097D01*
X45383Y38158D01*
X45342Y38214D01*
X45302Y38289D01*
X45243Y38350D01*
X45201Y38407D01*
X42129Y41479D01*
X39731Y47267D01*
X39731Y53533D01*
X42129Y59321D01*
X46559Y63751D01*
X50176Y65249D01*
X50291Y65317D01*
X50407Y65384D01*
X50412Y65389D01*
X50418Y65393D01*
X50510Y65490D01*
X50603Y65587D01*
X50606Y65593D01*
X50611Y65599D01*
X50672Y65717D01*
X50734Y65836D01*
X50736Y65843D01*
X50739Y65850D01*
X50764Y65982D01*
X50791Y66113D01*
X50790Y66120D01*
X50792Y66127D01*
X50779Y66260D01*
X50768Y66394D01*
X50765Y66401D01*
X50764Y66408D01*
X50715Y66532D01*
X50667Y66657D01*
X50663Y66663D01*
X50660Y66670D01*
X50578Y66774D01*
X50497Y66882D01*
X50491Y66886D01*
X50486Y66892D01*
X50258Y67057D01*
X50252Y67059D01*
X50247Y67063D01*
X50155Y67110D01*
X48861Y68050D01*
X47730Y69181D01*
X46790Y70475D01*
X46064Y71900D01*
X45569Y73421D01*
X45509Y73801D01*
X62100Y73801D01*
X62163Y73810D01*
X62228Y73809D01*
X62302Y73830D01*
X62379Y73841D01*
X62438Y73867D01*
X62500Y73884D01*
X62566Y73925D01*
X62636Y73957D01*
X62685Y73999D01*
X62740Y74032D01*
X62791Y74090D01*
X62850Y74140D01*
X62886Y74194D01*
X62929Y74242D01*
X62962Y74311D01*
X63005Y74376D01*
X63024Y74438D01*
X63052Y74495D01*
X63062Y74565D01*
X63087Y74646D01*
X63088Y74731D01*
X63099Y74800D01*
X63099Y75801D01*
X63101Y75801D01*
X63101Y74800D01*
X63110Y74736D01*
X63109Y74672D01*
X63130Y74597D01*
X63141Y74521D01*
X63167Y74462D01*
X63184Y74400D01*
X63225Y74334D01*
X63257Y74264D01*
X63299Y74215D01*
X63332Y74160D01*
X63390Y74108D01*
X63440Y74050D01*
X63494Y74014D01*
X63542Y73971D01*
X63611Y73938D01*
X63676Y73895D01*
X63738Y73876D01*
X63796Y73848D01*
X63865Y73837D01*
X63946Y73813D01*
X64031Y73812D01*
X64100Y73801D01*
X80691Y73801D01*
X80631Y73421D01*
X80136Y71900D01*
X79410Y70475D01*
X78470Y69181D01*
X77339Y68050D01*
X76045Y67110D01*
X75953Y67063D01*
X75843Y66986D01*
X75733Y66910D01*
X75728Y66905D01*
X75722Y66900D01*
X75639Y66796D01*
X75554Y66693D01*
X75551Y66686D01*
X75546Y66680D01*
X75495Y66557D01*
X75442Y66433D01*
X75441Y66426D01*
X75439Y66420D01*
X75424Y66287D01*
X75408Y66154D01*
X75409Y66146D01*
X75408Y66139D01*
X75431Y66007D01*
X75453Y65875D01*
X75456Y65869D01*
X75457Y65861D01*
X75516Y65742D01*
X75574Y65620D01*
X75579Y65615D01*
X75582Y65609D01*
X75672Y65510D01*
X75761Y65410D01*
X75767Y65406D01*
X75772Y65400D01*
X76013Y65254D01*
X76019Y65252D01*
X76024Y65249D01*
X79641Y63751D01*
X84071Y59321D01*
X86469Y53533D01*
X86469Y47267D01*
X84071Y41479D01*
X80999Y38407D01*
X80960Y38355D01*
X80914Y38310D01*
X80876Y38243D01*
X80829Y38181D01*
X80807Y38121D01*
X80775Y38065D01*
X80757Y37990D01*
X80730Y37917D01*
X80725Y37853D01*
X80710Y37790D01*
X80714Y37713D01*
X80708Y37636D01*
X80721Y37573D01*
X80724Y37509D01*
X80750Y37436D01*
X80766Y37360D01*
X80796Y37303D01*
X80817Y37242D01*
X80858Y37186D01*
X80898Y37111D01*
X80957Y37050D01*
X80999Y36993D01*
X84071Y33921D01*
X86469Y28133D01*
X86469Y21867D01*
X84071Y16079D01*
X80621Y12629D01*
X80601Y12603D01*
X80577Y12582D01*
X80517Y12490D01*
X80451Y12403D01*
X80440Y12373D01*
X80422Y12346D01*
X80390Y12241D01*
X80352Y12139D01*
X80349Y12107D01*
X80340Y12076D01*
X80338Y11967D01*
X80330Y11858D01*
X80337Y11826D01*
X80336Y11794D01*
X80365Y11689D01*
X80388Y11582D01*
X80403Y11553D01*
X80411Y11522D01*
X80469Y11429D01*
X80520Y11333D01*
X80543Y11310D01*
X80560Y11282D01*
X80641Y11209D01*
X80717Y11131D01*
X80745Y11115D01*
X80769Y11093D01*
X80867Y11046D01*
X80962Y10992D01*
X80994Y10984D01*
X81023Y10970D01*
X81112Y10956D01*
X81237Y10927D01*
X81285Y10929D01*
X81327Y10923D01*
X788078Y10923D01*
X788142Y10932D01*
X788206Y10931D01*
X788281Y10952D01*
X788357Y10963D01*
X788416Y10989D01*
X788478Y11006D01*
X788544Y11047D01*
X788614Y11079D01*
X788663Y11121D01*
X788718Y11154D01*
X788770Y11212D01*
X788828Y11262D01*
X788864Y11316D01*
X788907Y11364D01*
X788940Y11433D01*
X788983Y11498D01*
X789002Y11560D01*
X789030Y11617D01*
X789041Y11687D01*
X789065Y11768D01*
X789066Y11853D01*
X789077Y11922D01*
X789077Y359000D01*
X789068Y359064D01*
X789069Y359128D01*
X789048Y359203D01*
X789037Y359279D01*
X789011Y359338D01*
X788994Y359400D01*
X788953Y359466D01*
X788921Y359536D01*
X788879Y359585D01*
X788846Y359640D01*
X788788Y359692D01*
X788738Y359750D01*
X788684Y359786D01*
X788636Y359829D01*
X788567Y359862D01*
X788502Y359905D01*
X788440Y359924D01*
X788383Y359952D01*
X788313Y359963D01*
X788232Y359987D01*
X788147Y359988D01*
X788078Y359999D01*
X312117Y359999D01*
X312031Y359987D01*
X311944Y359984D01*
X311892Y359967D01*
X311838Y359959D01*
X311759Y359924D01*
X311676Y359897D01*
X311631Y359866D01*
X311581Y359843D01*
X311515Y359787D01*
X311443Y359738D01*
X311408Y359696D01*
X311367Y359660D01*
X311319Y359587D01*
X311264Y359520D01*
X311242Y359470D01*
X311212Y359424D01*
X311187Y359341D01*
X311153Y359261D01*
X311146Y359207D01*
X311130Y359154D01*
X311129Y359067D01*
X311118Y358981D01*
X311127Y358927D01*
X311126Y358872D01*
X311149Y358788D01*
X311163Y358703D01*
X311187Y358653D01*
X311201Y358600D01*
X311247Y358526D01*
X311284Y358448D01*
X311321Y358407D01*
X311349Y358360D01*
X311414Y358302D01*
X311471Y358237D01*
X311515Y358211D01*
X311559Y358171D01*
X311661Y358122D01*
X311735Y358077D01*
X313955Y357157D01*
X317657Y353455D01*
X319661Y348618D01*
X319661Y343382D01*
X317753Y338776D01*
X317742Y338736D01*
X317724Y338698D01*
X317711Y338613D01*
X317683Y338503D01*
X317685Y338444D01*
X317677Y338394D01*
X317677Y283777D01*
X315975Y279669D01*
X297469Y261163D01*
X297412Y261086D01*
X297347Y261015D01*
X297327Y260974D01*
X297300Y260938D01*
X297266Y260848D01*
X297224Y260761D01*
X297218Y260719D01*
X297201Y260674D01*
X297191Y260546D01*
X297177Y260457D01*
X297177Y255106D01*
X297183Y255065D01*
X297180Y255024D01*
X297200Y254940D01*
X297217Y254827D01*
X297241Y254774D01*
X297253Y254724D01*
X299161Y250118D01*
X299161Y244882D01*
X297157Y240045D01*
X293455Y236343D01*
X288618Y234339D01*
X283382Y234339D01*
X278545Y236343D01*
X274843Y240045D01*
X272839Y244882D01*
X272839Y250118D01*
X274747Y254724D01*
X274758Y254764D01*
X274776Y254802D01*
X274789Y254887D01*
X274817Y254997D01*
X274815Y255056D01*
X274823Y255106D01*
X274823Y267723D01*
X276525Y271831D01*
X279809Y275116D01*
X283649Y278956D01*
X283721Y279051D01*
X283796Y279142D01*
X283805Y279163D01*
X283819Y279181D01*
X283861Y279292D01*
X283907Y279401D01*
X283910Y279424D01*
X283918Y279445D01*
X283927Y279563D01*
X283942Y279681D01*
X283938Y279703D01*
X283940Y279726D01*
X283916Y279842D01*
X283897Y279959D01*
X283887Y279980D01*
X283882Y280002D01*
X283827Y280107D01*
X283776Y280214D01*
X283761Y280231D01*
X283750Y280251D01*
X283667Y280336D01*
X283588Y280425D01*
X283570Y280436D01*
X283553Y280453D01*
X283391Y280545D01*
X283325Y280585D01*
X277247Y283103D01*
X272603Y287747D01*
X270089Y293816D01*
X270089Y300384D01*
X272603Y306453D01*
X277247Y311097D01*
X283316Y313611D01*
X289884Y313611D01*
X293942Y311930D01*
X294056Y311901D01*
X294170Y311866D01*
X294193Y311866D01*
X294215Y311860D01*
X294333Y311864D01*
X294452Y311862D01*
X294474Y311868D01*
X294497Y311869D01*
X294609Y311906D01*
X294724Y311937D01*
X294743Y311949D01*
X294765Y311956D01*
X294863Y312023D01*
X294964Y312086D01*
X294979Y312103D01*
X294998Y312115D01*
X295073Y312207D01*
X295153Y312295D01*
X295163Y312315D01*
X295177Y312333D01*
X295224Y312442D01*
X295276Y312549D01*
X295279Y312570D01*
X295289Y312592D01*
X295311Y312777D01*
X295323Y312853D01*
X295323Y338394D01*
X295317Y338435D01*
X295320Y338476D01*
X295300Y338560D01*
X295283Y338673D01*
X295259Y338726D01*
X295247Y338776D01*
X293339Y343382D01*
X293339Y348618D01*
X295343Y353455D01*
X299045Y357157D01*
X301265Y358077D01*
X301340Y358121D01*
X301419Y358157D01*
X301461Y358192D01*
X301508Y358220D01*
X301567Y358284D01*
X301633Y358340D01*
X301664Y358386D01*
X301701Y358426D01*
X301740Y358503D01*
X301788Y358576D01*
X301804Y358629D01*
X301829Y358678D01*
X301845Y358763D01*
X301870Y358846D01*
X301871Y358901D01*
X301881Y358955D01*
X301873Y359041D01*
X301874Y359128D01*
X301859Y359181D01*
X301854Y359235D01*
X301822Y359316D01*
X301799Y359400D01*
X301770Y359447D01*
X301750Y359497D01*
X301696Y359566D01*
X301651Y359640D01*
X301610Y359676D01*
X301576Y359720D01*
X301506Y359771D01*
X301441Y359829D01*
X301392Y359853D01*
X301347Y359885D01*
X301266Y359914D01*
X301188Y359952D01*
X301137Y359960D01*
X301082Y359979D01*
X300968Y359986D01*
X300883Y359999D01*
X257261Y359999D01*
X257261Y370001D01*
X788078Y370001D01*
X788142Y370010D01*
X788206Y370009D01*
X788281Y370030D01*
X788357Y370041D01*
X788416Y370067D01*
X788478Y370084D01*
X788544Y370125D01*
X788614Y370157D01*
X788663Y370199D01*
X788718Y370232D01*
X788770Y370290D01*
X788828Y370340D01*
X788864Y370394D01*
X788907Y370442D01*
X788940Y370511D01*
X788983Y370576D01*
X789002Y370638D01*
X789030Y370695D01*
X789041Y370765D01*
X789065Y370846D01*
X789066Y370931D01*
X789077Y371000D01*
X789077Y546000D01*
X789068Y546064D01*
X789069Y546128D01*
X789048Y546203D01*
X789037Y546279D01*
X789011Y546338D01*
X788994Y546400D01*
X788953Y546466D01*
X788921Y546536D01*
X788879Y546585D01*
X788846Y546640D01*
X788788Y546692D01*
X788738Y546750D01*
X788684Y546786D01*
X788636Y546829D01*
X788567Y546862D01*
X788502Y546905D01*
X788440Y546924D01*
X788383Y546952D01*
X788313Y546963D01*
X788232Y546987D01*
X788147Y546988D01*
X788078Y546999D01*
X226499Y546999D01*
X226499Y988000D01*
X226490Y988064D01*
X226491Y988128D01*
X226470Y988203D01*
X226459Y988279D01*
X226433Y988338D01*
X226416Y988400D01*
X226375Y988466D01*
X226343Y988536D01*
X226301Y988585D01*
X226268Y988640D01*
X226210Y988692D01*
X226160Y988750D01*
X226106Y988786D01*
X226058Y988829D01*
X225989Y988862D01*
X225924Y988905D01*
X225862Y988924D01*
X225805Y988952D01*
X225735Y988963D01*
X225654Y988987D01*
X225569Y988988D01*
X225500Y988999D01*
X12500Y988999D01*
X12436Y988990D01*
X12372Y988991D01*
X12297Y988970D01*
X12221Y988959D01*
X12162Y988933D01*
X12100Y988916D01*
X12034Y988875D01*
X11964Y988843D01*
X11915Y988801D01*
X11860Y988768D01*
X11808Y988710D01*
X11750Y988660D01*
X11714Y988606D01*
X11671Y988558D01*
X11638Y988489D01*
X11595Y988424D01*
X11576Y988362D01*
X11548Y988305D01*
X11537Y988235D01*
X11513Y988154D01*
X11512Y988069D01*
X11501Y988000D01*
X11501Y371000D01*
X11510Y370936D01*
X11509Y370872D01*
X11530Y370797D01*
X11541Y370721D01*
X11567Y370662D01*
X11584Y370600D01*
X11625Y370534D01*
X11657Y370464D01*
X11699Y370415D01*
X11732Y370360D01*
X11790Y370308D01*
X11840Y370250D01*
X11894Y370214D01*
X11942Y370171D01*
X12011Y370138D01*
X12076Y370095D01*
X12138Y370076D01*
X12195Y370048D01*
X12265Y370037D01*
X12346Y370013D01*
X12431Y370012D01*
X12500Y370001D01*
X168739Y370001D01*
X168739Y359999D01*
X12500Y359999D01*
X12436Y359990D01*
X12372Y359991D01*
X12297Y359970D01*
X12221Y359959D01*
X12162Y359933D01*
X12100Y359916D01*
X12034Y359875D01*
X11964Y359843D01*
X11915Y359801D01*
X11860Y359768D01*
X11808Y359710D01*
X11750Y359660D01*
X11714Y359606D01*
X11671Y359558D01*
X11638Y359489D01*
X11595Y359424D01*
X11576Y359362D01*
X11548Y359305D01*
X11537Y359235D01*
X11513Y359154D01*
X11512Y359069D01*
X11501Y359000D01*
X11501Y11922D01*
X11510Y11858D01*
X11509Y11794D01*
X11530Y11719D01*
X11541Y11643D01*
X11567Y11584D01*
X11584Y11522D01*
X11625Y11456D01*
X11657Y11386D01*
X11699Y11337D01*
X11732Y11282D01*
X11790Y11230D01*
X11840Y11172D01*
X11894Y11136D01*
X11942Y11093D01*
X12011Y11060D01*
X12076Y11017D01*
X12138Y10998D01*
X12195Y10970D01*
X12265Y10959D01*
X12346Y10935D01*
X12431Y10934D01*
X12500Y10923D01*
X44873Y10923D01*
X44905Y10927D01*
G37*
G36*
X788336Y563242D02*
X788336Y563242D01*
X788355Y563240D01*
X788457Y563262D01*
X788559Y563279D01*
X788576Y563288D01*
X788596Y563292D01*
X788685Y563345D01*
X788776Y563394D01*
X788790Y563408D01*
X788807Y563418D01*
X788874Y563497D01*
X788946Y563572D01*
X788954Y563590D01*
X788967Y563605D01*
X789006Y563701D01*
X789049Y563795D01*
X789051Y563815D01*
X789059Y563833D01*
X789077Y564000D01*
X789077Y988316D01*
X789074Y988336D01*
X789076Y988355D01*
X789054Y988457D01*
X789038Y988559D01*
X789028Y988576D01*
X789024Y988596D01*
X788971Y988685D01*
X788922Y988776D01*
X788908Y988790D01*
X788898Y988807D01*
X788819Y988874D01*
X788744Y988946D01*
X788726Y988954D01*
X788711Y988967D01*
X788615Y989006D01*
X788521Y989049D01*
X788501Y989051D01*
X788483Y989059D01*
X788316Y989077D01*
X511500Y989077D01*
X511480Y989074D01*
X511461Y989076D01*
X511359Y989054D01*
X511257Y989038D01*
X511240Y989028D01*
X511220Y989024D01*
X511131Y988971D01*
X511040Y988922D01*
X511026Y988908D01*
X511009Y988898D01*
X510942Y988819D01*
X510871Y988744D01*
X510862Y988726D01*
X510849Y988711D01*
X510810Y988615D01*
X510767Y988521D01*
X510765Y988501D01*
X510757Y988483D01*
X510739Y988316D01*
X510739Y728422D01*
X510741Y728406D01*
X510740Y728391D01*
X510740Y728388D01*
X510740Y728383D01*
X510762Y728281D01*
X510779Y728179D01*
X510788Y728162D01*
X510792Y728142D01*
X510845Y728053D01*
X510894Y727962D01*
X510908Y727948D01*
X510918Y727931D01*
X510997Y727864D01*
X511072Y727792D01*
X511090Y727784D01*
X511105Y727771D01*
X511201Y727732D01*
X511295Y727689D01*
X511315Y727687D01*
X511333Y727679D01*
X511500Y727661D01*
X526721Y727661D01*
X530456Y726114D01*
X533314Y723256D01*
X534861Y719521D01*
X534861Y700479D01*
X533314Y696744D01*
X531184Y694614D01*
X531131Y694540D01*
X531071Y694471D01*
X531059Y694441D01*
X531040Y694414D01*
X531013Y694328D01*
X530979Y694243D01*
X530975Y694202D01*
X530968Y694179D01*
X530969Y694147D01*
X530961Y694076D01*
X530961Y694024D01*
X530974Y693944D01*
X530974Y693934D01*
X530976Y693929D01*
X530983Y693843D01*
X530995Y693813D01*
X531000Y693781D01*
X531043Y693701D01*
X531079Y693617D01*
X531105Y693585D01*
X531116Y693564D01*
X531139Y693542D01*
X531184Y693486D01*
X533914Y690756D01*
X535461Y687021D01*
X535461Y667979D01*
X533914Y664244D01*
X531056Y661386D01*
X527321Y659839D01*
X511500Y659839D01*
X511480Y659836D01*
X511461Y659838D01*
X511359Y659816D01*
X511257Y659800D01*
X511240Y659790D01*
X511220Y659786D01*
X511131Y659733D01*
X511040Y659684D01*
X511026Y659670D01*
X511009Y659660D01*
X510942Y659581D01*
X510871Y659506D01*
X510862Y659488D01*
X510849Y659473D01*
X510810Y659377D01*
X510767Y659283D01*
X510765Y659263D01*
X510757Y659245D01*
X510739Y659078D01*
X510739Y564000D01*
X510742Y563980D01*
X510740Y563961D01*
X510762Y563859D01*
X510779Y563757D01*
X510788Y563740D01*
X510792Y563720D01*
X510845Y563631D01*
X510894Y563540D01*
X510908Y563526D01*
X510918Y563509D01*
X510997Y563442D01*
X511072Y563371D01*
X511090Y563362D01*
X511105Y563349D01*
X511201Y563310D01*
X511295Y563267D01*
X511315Y563265D01*
X511333Y563257D01*
X511500Y563239D01*
X788316Y563239D01*
X788336Y563242D01*
G37*
G36*
X503020Y559242D02*
X503020Y559242D01*
X503039Y559240D01*
X503141Y559262D01*
X503243Y559279D01*
X503260Y559288D01*
X503280Y559292D01*
X503369Y559345D01*
X503460Y559394D01*
X503474Y559408D01*
X503491Y559418D01*
X503558Y559497D01*
X503630Y559572D01*
X503638Y559590D01*
X503651Y559605D01*
X503690Y559701D01*
X503733Y559795D01*
X503735Y559815D01*
X503743Y559833D01*
X503761Y560000D01*
X503761Y661854D01*
X503747Y661944D01*
X503739Y662035D01*
X503727Y662065D01*
X503722Y662097D01*
X503679Y662177D01*
X503643Y662261D01*
X503617Y662293D01*
X503606Y662314D01*
X503583Y662336D01*
X503538Y662392D01*
X501686Y664244D01*
X500139Y667979D01*
X500139Y668698D01*
X500136Y668718D01*
X500138Y668737D01*
X500116Y668839D01*
X500100Y668941D01*
X500090Y668958D01*
X500086Y668978D01*
X500033Y669067D01*
X499984Y669158D01*
X499970Y669172D01*
X499960Y669189D01*
X499881Y669256D01*
X499806Y669328D01*
X499788Y669336D01*
X499773Y669349D01*
X499677Y669388D01*
X499583Y669431D01*
X499563Y669433D01*
X499545Y669441D01*
X499378Y669459D01*
X490523Y669459D01*
X490523Y679238D01*
X490520Y679258D01*
X490522Y679277D01*
X490500Y679379D01*
X490483Y679481D01*
X490474Y679498D01*
X490470Y679518D01*
X490417Y679607D01*
X490368Y679698D01*
X490354Y679712D01*
X490344Y679729D01*
X490265Y679796D01*
X490190Y679867D01*
X490172Y679876D01*
X490157Y679889D01*
X490061Y679928D01*
X489967Y679971D01*
X489947Y679973D01*
X489929Y679981D01*
X489762Y679999D01*
X488999Y679999D01*
X488999Y680762D01*
X488996Y680782D01*
X488998Y680801D01*
X488976Y680903D01*
X488959Y681005D01*
X488950Y681022D01*
X488946Y681042D01*
X488893Y681131D01*
X488844Y681222D01*
X488830Y681236D01*
X488820Y681253D01*
X488741Y681320D01*
X488666Y681391D01*
X488648Y681400D01*
X488633Y681413D01*
X488537Y681452D01*
X488443Y681495D01*
X488423Y681497D01*
X488405Y681505D01*
X488238Y681523D01*
X476459Y681523D01*
X476459Y688334D01*
X476632Y688981D01*
X476665Y689038D01*
X476690Y689103D01*
X476724Y689164D01*
X476729Y689192D01*
X476736Y689208D01*
X476738Y689231D01*
X476752Y689268D01*
X476755Y689337D01*
X476767Y689406D01*
X476762Y689442D01*
X476763Y689452D01*
X476760Y689467D01*
X476761Y689514D01*
X476742Y689580D01*
X476731Y689649D01*
X476712Y689688D01*
X476711Y689692D01*
X476706Y689700D01*
X476692Y689749D01*
X476652Y689806D01*
X476620Y689868D01*
X476585Y689903D01*
X476582Y689905D01*
X476581Y689906D01*
X476550Y689951D01*
X476494Y689992D01*
X476444Y690041D01*
X476378Y690077D01*
X476352Y690096D01*
X476331Y690103D01*
X476297Y690122D01*
X473244Y691386D01*
X470386Y694244D01*
X468839Y697979D01*
X468839Y718021D01*
X470386Y721756D01*
X473244Y724614D01*
X476979Y726161D01*
X501021Y726161D01*
X502651Y725485D01*
X502765Y725459D01*
X502879Y725430D01*
X502885Y725431D01*
X502891Y725429D01*
X503007Y725440D01*
X503124Y725449D01*
X503129Y725452D01*
X503136Y725452D01*
X503243Y725500D01*
X503350Y725546D01*
X503356Y725550D01*
X503360Y725552D01*
X503374Y725565D01*
X503481Y725650D01*
X503538Y725708D01*
X503591Y725782D01*
X503651Y725851D01*
X503663Y725881D01*
X503682Y725907D01*
X503709Y725994D01*
X503743Y726079D01*
X503747Y726120D01*
X503754Y726143D01*
X503753Y726175D01*
X503761Y726246D01*
X503761Y988316D01*
X503758Y988336D01*
X503760Y988355D01*
X503738Y988457D01*
X503722Y988559D01*
X503712Y988576D01*
X503708Y988596D01*
X503655Y988685D01*
X503606Y988776D01*
X503592Y988790D01*
X503582Y988807D01*
X503503Y988874D01*
X503428Y988946D01*
X503410Y988954D01*
X503395Y988967D01*
X503299Y989006D01*
X503205Y989049D01*
X503185Y989051D01*
X503167Y989059D01*
X503000Y989077D01*
X236816Y989077D01*
X236726Y989063D01*
X236635Y989055D01*
X236605Y989043D01*
X236573Y989038D01*
X236493Y988995D01*
X236409Y988959D01*
X236377Y988933D01*
X236356Y988922D01*
X236334Y988899D01*
X236278Y988854D01*
X233962Y986538D01*
X233909Y986464D01*
X233849Y986395D01*
X233837Y986365D01*
X233818Y986339D01*
X233791Y986252D01*
X233757Y986167D01*
X233753Y986126D01*
X233746Y986103D01*
X233747Y986071D01*
X233739Y986000D01*
X233739Y967062D01*
X233750Y966992D01*
X233752Y966920D01*
X233770Y966871D01*
X233779Y966820D01*
X233812Y966756D01*
X233837Y966689D01*
X233869Y966648D01*
X233894Y966602D01*
X233946Y966553D01*
X233990Y966497D01*
X234034Y966469D01*
X234072Y966433D01*
X234137Y966403D01*
X234197Y966364D01*
X234248Y966351D01*
X234295Y966329D01*
X234366Y966321D01*
X234436Y966304D01*
X234488Y966308D01*
X234539Y966302D01*
X234610Y966317D01*
X234681Y966323D01*
X234729Y966343D01*
X234780Y966354D01*
X234841Y966391D01*
X234907Y966419D01*
X234963Y966464D01*
X234991Y966481D01*
X235006Y966498D01*
X235038Y966524D01*
X235394Y966880D01*
X240978Y969193D01*
X247022Y969193D01*
X252606Y966880D01*
X256880Y962606D01*
X259193Y957022D01*
X259193Y950978D01*
X256880Y945394D01*
X252606Y941120D01*
X247022Y938807D01*
X240978Y938807D01*
X235394Y941120D01*
X235038Y941476D01*
X234980Y941518D01*
X234928Y941567D01*
X234881Y941589D01*
X234839Y941619D01*
X234770Y941641D01*
X234705Y941671D01*
X234653Y941677D01*
X234604Y941692D01*
X234532Y941690D01*
X234461Y941698D01*
X234410Y941687D01*
X234358Y941685D01*
X234290Y941661D01*
X234220Y941646D01*
X234175Y941619D01*
X234127Y941601D01*
X234071Y941556D01*
X234009Y941519D01*
X233975Y941480D01*
X233935Y941447D01*
X233896Y941387D01*
X233849Y941333D01*
X233830Y941284D01*
X233802Y941240D01*
X233784Y941171D01*
X233757Y941104D01*
X233749Y941033D01*
X233741Y941002D01*
X233743Y940979D01*
X233739Y940938D01*
X233739Y912062D01*
X233750Y911992D01*
X233752Y911920D01*
X233770Y911871D01*
X233779Y911820D01*
X233812Y911756D01*
X233837Y911689D01*
X233869Y911648D01*
X233894Y911602D01*
X233946Y911553D01*
X233990Y911497D01*
X234034Y911469D01*
X234072Y911433D01*
X234137Y911403D01*
X234197Y911364D01*
X234248Y911351D01*
X234295Y911329D01*
X234366Y911321D01*
X234436Y911304D01*
X234488Y911308D01*
X234539Y911302D01*
X234610Y911317D01*
X234681Y911323D01*
X234729Y911343D01*
X234780Y911354D01*
X234841Y911391D01*
X234907Y911419D01*
X234963Y911464D01*
X234991Y911481D01*
X235006Y911498D01*
X235038Y911524D01*
X237394Y913880D01*
X242978Y916193D01*
X249022Y916193D01*
X254606Y913880D01*
X258880Y909606D01*
X261193Y904022D01*
X261193Y897978D01*
X258880Y892394D01*
X254606Y888120D01*
X249022Y885807D01*
X242978Y885807D01*
X237394Y888120D01*
X235038Y890476D01*
X234980Y890518D01*
X234928Y890567D01*
X234881Y890589D01*
X234839Y890619D01*
X234770Y890641D01*
X234705Y890671D01*
X234653Y890677D01*
X234603Y890692D01*
X234532Y890690D01*
X234461Y890698D01*
X234410Y890687D01*
X234358Y890685D01*
X234290Y890661D01*
X234220Y890646D01*
X234176Y890619D01*
X234127Y890601D01*
X234071Y890556D01*
X234009Y890519D01*
X233975Y890480D01*
X233935Y890447D01*
X233896Y890387D01*
X233849Y890333D01*
X233830Y890284D01*
X233802Y890240D01*
X233784Y890171D01*
X233757Y890104D01*
X233749Y890033D01*
X233741Y890002D01*
X233743Y889979D01*
X233739Y889938D01*
X233739Y854062D01*
X233750Y853992D01*
X233752Y853920D01*
X233770Y853871D01*
X233779Y853820D01*
X233812Y853756D01*
X233837Y853689D01*
X233869Y853648D01*
X233894Y853602D01*
X233946Y853553D01*
X233990Y853497D01*
X234034Y853469D01*
X234072Y853433D01*
X234137Y853403D01*
X234197Y853364D01*
X234248Y853351D01*
X234295Y853329D01*
X234366Y853321D01*
X234436Y853304D01*
X234488Y853308D01*
X234539Y853302D01*
X234610Y853317D01*
X234681Y853323D01*
X234729Y853343D01*
X234780Y853354D01*
X234841Y853391D01*
X234907Y853419D01*
X234963Y853464D01*
X234991Y853481D01*
X235006Y853498D01*
X235038Y853524D01*
X239394Y857880D01*
X244978Y860193D01*
X251022Y860193D01*
X256606Y857880D01*
X260880Y853606D01*
X263193Y848022D01*
X263193Y841978D01*
X260880Y836394D01*
X256606Y832120D01*
X251022Y829807D01*
X244978Y829807D01*
X239394Y832120D01*
X235038Y836476D01*
X234980Y836518D01*
X234928Y836567D01*
X234881Y836589D01*
X234839Y836619D01*
X234770Y836641D01*
X234705Y836671D01*
X234653Y836677D01*
X234603Y836692D01*
X234532Y836690D01*
X234461Y836698D01*
X234410Y836687D01*
X234358Y836685D01*
X234290Y836661D01*
X234220Y836646D01*
X234176Y836619D01*
X234127Y836601D01*
X234071Y836556D01*
X234009Y836519D01*
X233975Y836480D01*
X233935Y836447D01*
X233896Y836387D01*
X233849Y836333D01*
X233830Y836284D01*
X233802Y836240D01*
X233784Y836171D01*
X233757Y836104D01*
X233749Y836033D01*
X233741Y836002D01*
X233743Y835979D01*
X233739Y835938D01*
X233739Y560000D01*
X233742Y559980D01*
X233740Y559961D01*
X233762Y559859D01*
X233779Y559757D01*
X233788Y559740D01*
X233792Y559720D01*
X233845Y559631D01*
X233894Y559540D01*
X233908Y559526D01*
X233918Y559509D01*
X233997Y559442D01*
X234072Y559371D01*
X234090Y559362D01*
X234105Y559349D01*
X234201Y559310D01*
X234295Y559267D01*
X234315Y559265D01*
X234333Y559257D01*
X234500Y559239D01*
X503000Y559239D01*
X503020Y559242D01*
G37*
%LPC*%
G36*
X293882Y101839D02*
X293882Y101839D01*
X289045Y103843D01*
X285343Y107545D01*
X283339Y112382D01*
X283339Y117618D01*
X285343Y122455D01*
X289045Y126157D01*
X293882Y128161D01*
X299118Y128161D01*
X301426Y127205D01*
X301466Y127194D01*
X301503Y127176D01*
X301589Y127163D01*
X301699Y127135D01*
X301758Y127137D01*
X301808Y127129D01*
X438191Y127129D01*
X438309Y127145D01*
X438427Y127157D01*
X438448Y127165D01*
X438471Y127169D01*
X438578Y127217D01*
X438689Y127261D01*
X438707Y127275D01*
X438728Y127285D01*
X438818Y127362D01*
X438911Y127435D01*
X438925Y127453D01*
X438942Y127468D01*
X439007Y127568D01*
X439076Y127664D01*
X439084Y127685D01*
X439096Y127704D01*
X439131Y127818D01*
X439171Y127929D01*
X439172Y127952D01*
X439179Y127974D01*
X439180Y128092D01*
X439187Y128211D01*
X439182Y128232D01*
X439182Y128256D01*
X439133Y128435D01*
X439115Y128510D01*
X438339Y130382D01*
X438339Y135618D01*
X440343Y140455D01*
X444045Y144157D01*
X448767Y146113D01*
X448803Y146134D01*
X448842Y146148D01*
X448912Y146199D01*
X449010Y146257D01*
X449050Y146300D01*
X449091Y146330D01*
X457196Y154434D01*
X461286Y156129D01*
X527002Y156129D01*
X527088Y156141D01*
X527175Y156144D01*
X527227Y156161D01*
X527281Y156169D01*
X527360Y156204D01*
X527443Y156231D01*
X527488Y156262D01*
X527538Y156285D01*
X527604Y156341D01*
X527676Y156390D01*
X527711Y156432D01*
X527752Y156468D01*
X527800Y156541D01*
X527855Y156608D01*
X527877Y156658D01*
X527907Y156704D01*
X527932Y156787D01*
X527967Y156867D01*
X527973Y156921D01*
X527989Y156974D01*
X527990Y157061D01*
X528001Y157147D01*
X527992Y157201D01*
X527993Y157256D01*
X527970Y157340D01*
X527956Y157425D01*
X527933Y157475D01*
X527918Y157528D01*
X527872Y157602D01*
X527835Y157680D01*
X527799Y157721D01*
X527770Y157768D01*
X527705Y157826D01*
X527648Y157891D01*
X527604Y157917D01*
X527560Y157957D01*
X527458Y158006D01*
X527384Y158051D01*
X521465Y160503D01*
X516821Y165147D01*
X514307Y171216D01*
X514307Y177784D01*
X516069Y182037D01*
X516085Y182099D01*
X516110Y182158D01*
X516120Y182235D01*
X516139Y182310D01*
X516137Y182375D01*
X516145Y182438D01*
X516132Y182515D01*
X516130Y182592D01*
X516110Y182653D01*
X516100Y182717D01*
X516067Y182787D01*
X516043Y182860D01*
X516006Y182913D01*
X515979Y182972D01*
X515927Y183029D01*
X515884Y183093D01*
X515834Y183134D01*
X515791Y183182D01*
X515731Y183219D01*
X515666Y183273D01*
X515588Y183306D01*
X515528Y183343D01*
X509347Y185903D01*
X504703Y190547D01*
X502189Y196616D01*
X502189Y203184D01*
X504703Y209253D01*
X509347Y213897D01*
X515416Y216411D01*
X521984Y216411D01*
X528053Y213897D01*
X532697Y209253D01*
X533367Y207636D01*
X533411Y207561D01*
X533447Y207482D01*
X533483Y207440D01*
X533510Y207393D01*
X533574Y207334D01*
X533630Y207268D01*
X533676Y207238D01*
X533716Y207200D01*
X533793Y207161D01*
X533866Y207113D01*
X533919Y207097D01*
X533968Y207072D01*
X534053Y207056D01*
X534136Y207031D01*
X534191Y207030D01*
X534245Y207020D01*
X534331Y207028D01*
X534418Y207027D01*
X534471Y207042D01*
X534525Y207047D01*
X534606Y207079D01*
X534690Y207102D01*
X534737Y207131D01*
X534787Y207151D01*
X534856Y207205D01*
X534930Y207250D01*
X534966Y207291D01*
X535010Y207325D01*
X535061Y207395D01*
X535119Y207460D01*
X535143Y207509D01*
X535175Y207554D01*
X535204Y207636D01*
X535242Y207714D01*
X535250Y207764D01*
X535269Y207819D01*
X535276Y207933D01*
X535289Y208018D01*
X535289Y213484D01*
X537803Y219553D01*
X539368Y221117D01*
X539387Y221143D01*
X539412Y221164D01*
X539472Y221256D01*
X539537Y221343D01*
X539548Y221373D01*
X539566Y221400D01*
X539598Y221505D01*
X539637Y221607D01*
X539639Y221639D01*
X539648Y221670D01*
X539650Y221779D01*
X539658Y221888D01*
X539652Y221920D01*
X539652Y221952D01*
X539623Y222057D01*
X539601Y222164D01*
X539586Y222193D01*
X539577Y222224D01*
X539520Y222317D01*
X539468Y222413D01*
X539446Y222436D01*
X539429Y222464D01*
X539348Y222537D01*
X539272Y222615D01*
X539243Y222631D01*
X539220Y222653D01*
X539121Y222700D01*
X539026Y222754D01*
X538995Y222762D01*
X538966Y222776D01*
X538877Y222790D01*
X538752Y222819D01*
X538703Y222817D01*
X538661Y222823D01*
X486777Y222823D01*
X482669Y224525D01*
X479525Y227669D01*
X477823Y231777D01*
X477823Y284824D01*
X477814Y284888D01*
X477815Y284952D01*
X477794Y285027D01*
X477783Y285103D01*
X477757Y285162D01*
X477740Y285224D01*
X477699Y285290D01*
X477667Y285360D01*
X477625Y285409D01*
X477592Y285464D01*
X477534Y285516D01*
X477484Y285574D01*
X477430Y285610D01*
X477382Y285653D01*
X477313Y285686D01*
X477248Y285729D01*
X477186Y285748D01*
X477129Y285776D01*
X477059Y285787D01*
X476978Y285811D01*
X476893Y285812D01*
X476824Y285823D01*
X394676Y285823D01*
X394612Y285814D01*
X394548Y285815D01*
X394473Y285794D01*
X394397Y285783D01*
X394338Y285757D01*
X394276Y285740D01*
X394210Y285699D01*
X394140Y285667D01*
X394091Y285625D01*
X394036Y285592D01*
X393984Y285534D01*
X393926Y285484D01*
X393890Y285430D01*
X393847Y285382D01*
X393814Y285313D01*
X393771Y285248D01*
X393752Y285186D01*
X393724Y285129D01*
X393713Y285059D01*
X393689Y284978D01*
X393688Y284893D01*
X393677Y284824D01*
X393677Y215606D01*
X393683Y215565D01*
X393680Y215524D01*
X393700Y215440D01*
X393717Y215327D01*
X393741Y215274D01*
X393753Y215224D01*
X395661Y210618D01*
X395661Y205382D01*
X393657Y200545D01*
X389955Y196843D01*
X385118Y194839D01*
X379882Y194839D01*
X375045Y196843D01*
X371343Y200545D01*
X369339Y205382D01*
X369339Y210618D01*
X371247Y215224D01*
X371258Y215264D01*
X371276Y215302D01*
X371289Y215387D01*
X371317Y215497D01*
X371315Y215556D01*
X371323Y215606D01*
X371323Y284824D01*
X371314Y284888D01*
X371315Y284952D01*
X371294Y285027D01*
X371283Y285103D01*
X371257Y285162D01*
X371240Y285224D01*
X371199Y285290D01*
X371167Y285360D01*
X371125Y285409D01*
X371092Y285464D01*
X371034Y285516D01*
X370984Y285574D01*
X370930Y285610D01*
X370882Y285653D01*
X370813Y285686D01*
X370748Y285729D01*
X370686Y285748D01*
X370629Y285776D01*
X370559Y285787D01*
X370478Y285811D01*
X370393Y285812D01*
X370324Y285823D01*
X361349Y285823D01*
X361254Y285810D01*
X361158Y285805D01*
X361115Y285790D01*
X361070Y285783D01*
X360983Y285744D01*
X360892Y285712D01*
X360857Y285687D01*
X360813Y285667D01*
X360716Y285584D01*
X360643Y285531D01*
X358955Y283843D01*
X354118Y281839D01*
X348882Y281839D01*
X344045Y283843D01*
X340343Y287545D01*
X338339Y292382D01*
X338339Y297618D01*
X340343Y302455D01*
X344045Y306157D01*
X348882Y308161D01*
X351039Y308161D01*
X351081Y308167D01*
X351123Y308164D01*
X351174Y308177D01*
X483651Y308177D01*
X483746Y308190D01*
X483842Y308195D01*
X483885Y308210D01*
X483930Y308217D01*
X484017Y308256D01*
X484108Y308288D01*
X484143Y308313D01*
X484187Y308333D01*
X484284Y308416D01*
X484357Y308469D01*
X486045Y310157D01*
X490882Y312161D01*
X496118Y312161D01*
X500955Y310157D01*
X502344Y308768D01*
X502439Y308697D01*
X502530Y308622D01*
X502551Y308612D01*
X502570Y308599D01*
X502680Y308557D01*
X502789Y308510D01*
X502812Y308507D01*
X502833Y308499D01*
X502952Y308490D01*
X503069Y308476D01*
X503092Y308479D01*
X503115Y308477D01*
X503231Y308502D01*
X503348Y308521D01*
X503368Y308530D01*
X503391Y308535D01*
X503495Y308591D01*
X503602Y308642D01*
X503620Y308657D01*
X503640Y308668D01*
X503725Y308750D01*
X503813Y308829D01*
X503824Y308847D01*
X503842Y308864D01*
X503934Y309027D01*
X503974Y309092D01*
X504703Y310853D01*
X509347Y315497D01*
X515416Y318011D01*
X521984Y318011D01*
X525250Y316658D01*
X525313Y316642D01*
X525372Y316617D01*
X525448Y316607D01*
X525523Y316588D01*
X525588Y316590D01*
X525651Y316582D01*
X525728Y316594D01*
X525805Y316597D01*
X525866Y316617D01*
X525930Y316627D01*
X526000Y316660D01*
X526073Y316684D01*
X526127Y316721D01*
X526185Y316748D01*
X526242Y316800D01*
X526306Y316843D01*
X526347Y316893D01*
X526395Y316936D01*
X526432Y316995D01*
X526486Y317061D01*
X526519Y317139D01*
X526556Y317199D01*
X527025Y318331D01*
X537169Y328475D01*
X541277Y330177D01*
X583651Y330177D01*
X583746Y330190D01*
X583842Y330195D01*
X583885Y330210D01*
X583930Y330217D01*
X584017Y330256D01*
X584108Y330288D01*
X584143Y330313D01*
X584187Y330333D01*
X584284Y330416D01*
X584357Y330469D01*
X587045Y333157D01*
X591882Y335161D01*
X597118Y335161D01*
X601955Y333157D01*
X605657Y329455D01*
X607661Y324618D01*
X607661Y319382D01*
X605657Y314545D01*
X601955Y310843D01*
X597118Y308839D01*
X596375Y308839D01*
X596334Y308833D01*
X596292Y308836D01*
X596208Y308816D01*
X596096Y308799D01*
X596042Y308775D01*
X595992Y308763D01*
X593723Y307823D01*
X548676Y307823D01*
X548612Y307814D01*
X548548Y307815D01*
X548473Y307794D01*
X548397Y307783D01*
X548338Y307757D01*
X548276Y307740D01*
X548210Y307699D01*
X548140Y307667D01*
X548091Y307625D01*
X548036Y307592D01*
X547984Y307534D01*
X547926Y307484D01*
X547890Y307430D01*
X547847Y307382D01*
X547814Y307313D01*
X547771Y307248D01*
X547752Y307186D01*
X547724Y307129D01*
X547713Y307059D01*
X547689Y306978D01*
X547688Y306893D01*
X547677Y306824D01*
X547677Y273777D01*
X545975Y269669D01*
X527831Y251525D01*
X523723Y249823D01*
X523106Y249823D01*
X523065Y249817D01*
X523024Y249820D01*
X522940Y249800D01*
X522827Y249783D01*
X522774Y249759D01*
X522724Y249747D01*
X518118Y247839D01*
X512882Y247839D01*
X508045Y249843D01*
X504343Y253545D01*
X502339Y258382D01*
X502339Y263618D01*
X504343Y268455D01*
X508045Y272157D01*
X512882Y274161D01*
X518177Y274161D01*
X518295Y274130D01*
X518304Y274131D01*
X518314Y274129D01*
X518446Y274135D01*
X518577Y274139D01*
X518586Y274142D01*
X518595Y274143D01*
X518721Y274186D01*
X518845Y274227D01*
X518853Y274232D01*
X518862Y274235D01*
X518924Y274281D01*
X519078Y274386D01*
X519093Y274404D01*
X519111Y274417D01*
X525031Y280337D01*
X525088Y280414D01*
X525153Y280485D01*
X525173Y280526D01*
X525200Y280562D01*
X525234Y280652D01*
X525276Y280739D01*
X525282Y280781D01*
X525299Y280826D01*
X525309Y280954D01*
X525323Y281043D01*
X525323Y284877D01*
X525307Y284994D01*
X525295Y285112D01*
X525287Y285134D01*
X525283Y285156D01*
X525235Y285264D01*
X525191Y285374D01*
X525177Y285392D01*
X525167Y285413D01*
X525090Y285503D01*
X525017Y285597D01*
X524999Y285610D01*
X524984Y285627D01*
X524884Y285692D01*
X524788Y285762D01*
X524767Y285769D01*
X524748Y285782D01*
X524634Y285817D01*
X524523Y285856D01*
X524500Y285858D01*
X524478Y285864D01*
X524360Y285866D01*
X524241Y285873D01*
X524220Y285868D01*
X524196Y285868D01*
X524017Y285818D01*
X523942Y285800D01*
X521984Y284989D01*
X515416Y284989D01*
X509347Y287503D01*
X505688Y291163D01*
X505636Y291201D01*
X505592Y291247D01*
X505524Y291285D01*
X505462Y291332D01*
X505402Y291355D01*
X505346Y291386D01*
X505271Y291404D01*
X505198Y291431D01*
X505134Y291436D01*
X505072Y291451D01*
X504994Y291447D01*
X504917Y291453D01*
X504854Y291440D01*
X504790Y291437D01*
X504717Y291411D01*
X504641Y291396D01*
X504584Y291365D01*
X504524Y291344D01*
X504467Y291303D01*
X504392Y291263D01*
X504331Y291204D01*
X504275Y291163D01*
X500955Y287843D01*
X500794Y287776D01*
X500785Y287771D01*
X500776Y287769D01*
X500664Y287699D01*
X500551Y287632D01*
X500544Y287625D01*
X500536Y287621D01*
X500448Y287523D01*
X500358Y287427D01*
X500354Y287418D01*
X500347Y287411D01*
X500290Y287293D01*
X500230Y287175D01*
X500228Y287166D01*
X500224Y287157D01*
X500212Y287081D01*
X500178Y286898D01*
X500180Y286874D01*
X500177Y286853D01*
X500177Y246176D01*
X500186Y246112D01*
X500185Y246048D01*
X500206Y245973D01*
X500217Y245897D01*
X500243Y245838D01*
X500260Y245776D01*
X500301Y245710D01*
X500333Y245640D01*
X500375Y245591D01*
X500408Y245536D01*
X500466Y245484D01*
X500516Y245426D01*
X500570Y245390D01*
X500618Y245347D01*
X500687Y245314D01*
X500752Y245271D01*
X500814Y245252D01*
X500871Y245224D01*
X500941Y245213D01*
X501022Y245189D01*
X501107Y245188D01*
X501176Y245177D01*
X671223Y245177D01*
X675331Y243475D01*
X684475Y234331D01*
X686177Y230223D01*
X686177Y162043D01*
X686190Y161949D01*
X686195Y161852D01*
X686210Y161809D01*
X686217Y161764D01*
X686256Y161677D01*
X686288Y161586D01*
X686313Y161551D01*
X686333Y161507D01*
X686416Y161410D01*
X686469Y161337D01*
X697525Y150282D01*
X697558Y150257D01*
X697586Y150226D01*
X697659Y150181D01*
X697750Y150112D01*
X697805Y150092D01*
X697849Y150065D01*
X702455Y148157D01*
X706157Y144455D01*
X708161Y139618D01*
X708161Y134382D01*
X706157Y129545D01*
X702455Y125843D01*
X697618Y123839D01*
X692382Y123839D01*
X687545Y125843D01*
X683843Y129545D01*
X681935Y134151D01*
X681914Y134187D01*
X681900Y134226D01*
X681849Y134296D01*
X681791Y134394D01*
X681748Y134434D01*
X681718Y134475D01*
X668809Y147384D01*
X665525Y150669D01*
X663823Y154777D01*
X663823Y163379D01*
X663819Y163411D01*
X663821Y163443D01*
X663799Y163550D01*
X663783Y163658D01*
X663770Y163688D01*
X663764Y163719D01*
X663712Y163816D01*
X663667Y163915D01*
X663646Y163940D01*
X663631Y163968D01*
X663555Y164046D01*
X663484Y164130D01*
X663457Y164147D01*
X663434Y164170D01*
X663339Y164224D01*
X663248Y164284D01*
X663217Y164294D01*
X663189Y164309D01*
X663083Y164335D01*
X662978Y164366D01*
X662946Y164367D01*
X662915Y164374D01*
X662805Y164369D01*
X662696Y164370D01*
X662665Y164362D01*
X662633Y164360D01*
X662530Y164324D01*
X662424Y164295D01*
X662397Y164278D01*
X662366Y164267D01*
X662293Y164214D01*
X662184Y164147D01*
X662152Y164111D01*
X662117Y164086D01*
X658535Y160503D01*
X652466Y157989D01*
X629134Y157989D01*
X623065Y160503D01*
X618421Y165147D01*
X615907Y171216D01*
X615907Y177784D01*
X618421Y183853D01*
X623065Y188497D01*
X629134Y191011D01*
X652466Y191011D01*
X658535Y188497D01*
X662117Y184914D01*
X662143Y184895D01*
X662164Y184870D01*
X662256Y184811D01*
X662343Y184745D01*
X662373Y184734D01*
X662400Y184716D01*
X662505Y184684D01*
X662607Y184645D01*
X662639Y184643D01*
X662670Y184634D01*
X662779Y184632D01*
X662888Y184624D01*
X662920Y184630D01*
X662952Y184630D01*
X663057Y184659D01*
X663164Y184681D01*
X663193Y184696D01*
X663224Y184705D01*
X663317Y184762D01*
X663413Y184814D01*
X663436Y184836D01*
X663464Y184853D01*
X663537Y184934D01*
X663615Y185010D01*
X663631Y185039D01*
X663653Y185062D01*
X663700Y185161D01*
X663754Y185256D01*
X663762Y185287D01*
X663776Y185316D01*
X663790Y185405D01*
X663819Y185530D01*
X663817Y185579D01*
X663823Y185621D01*
X663823Y195151D01*
X663807Y195268D01*
X663795Y195386D01*
X663787Y195408D01*
X663783Y195430D01*
X663735Y195538D01*
X663691Y195648D01*
X663677Y195666D01*
X663667Y195687D01*
X663590Y195777D01*
X663517Y195871D01*
X663499Y195884D01*
X663484Y195901D01*
X663384Y195966D01*
X663288Y196036D01*
X663267Y196043D01*
X663248Y196056D01*
X663134Y196090D01*
X663023Y196130D01*
X663000Y196132D01*
X662978Y196138D01*
X662860Y196140D01*
X662741Y196147D01*
X662720Y196142D01*
X662696Y196142D01*
X662517Y196092D01*
X662442Y196074D01*
X656684Y193689D01*
X650116Y193689D01*
X644047Y196203D01*
X639403Y200847D01*
X636889Y206916D01*
X636889Y213484D01*
X639403Y219553D01*
X640968Y221117D01*
X640987Y221143D01*
X641012Y221164D01*
X641072Y221256D01*
X641137Y221343D01*
X641148Y221373D01*
X641166Y221400D01*
X641198Y221505D01*
X641237Y221607D01*
X641239Y221639D01*
X641248Y221670D01*
X641250Y221779D01*
X641258Y221888D01*
X641252Y221920D01*
X641252Y221952D01*
X641223Y222057D01*
X641201Y222164D01*
X641186Y222193D01*
X641177Y222224D01*
X641120Y222317D01*
X641068Y222413D01*
X641046Y222436D01*
X641029Y222464D01*
X640948Y222537D01*
X640872Y222615D01*
X640843Y222631D01*
X640820Y222653D01*
X640721Y222700D01*
X640626Y222754D01*
X640595Y222762D01*
X640566Y222776D01*
X640477Y222790D01*
X640352Y222819D01*
X640303Y222817D01*
X640261Y222823D01*
X564939Y222823D01*
X564907Y222819D01*
X564875Y222821D01*
X564768Y222799D01*
X564660Y222783D01*
X564630Y222770D01*
X564599Y222764D01*
X564502Y222712D01*
X564403Y222667D01*
X564378Y222646D01*
X564350Y222631D01*
X564272Y222555D01*
X564188Y222484D01*
X564171Y222457D01*
X564148Y222434D01*
X564094Y222339D01*
X564034Y222248D01*
X564024Y222217D01*
X564009Y222189D01*
X563983Y222083D01*
X563952Y221978D01*
X563951Y221946D01*
X563944Y221915D01*
X563949Y221805D01*
X563948Y221696D01*
X563956Y221665D01*
X563958Y221633D01*
X563994Y221530D01*
X564023Y221424D01*
X564040Y221397D01*
X564051Y221366D01*
X564104Y221293D01*
X564171Y221184D01*
X564207Y221152D01*
X564232Y221117D01*
X565797Y219553D01*
X568311Y213484D01*
X568311Y206916D01*
X565797Y200847D01*
X561153Y196203D01*
X555084Y193689D01*
X548516Y193689D01*
X542447Y196203D01*
X537803Y200847D01*
X537133Y202464D01*
X537089Y202539D01*
X537053Y202618D01*
X537017Y202660D01*
X536990Y202707D01*
X536926Y202766D01*
X536870Y202832D01*
X536824Y202862D01*
X536784Y202900D01*
X536707Y202939D01*
X536634Y202987D01*
X536581Y203003D01*
X536532Y203028D01*
X536447Y203044D01*
X536364Y203069D01*
X536309Y203070D01*
X536255Y203080D01*
X536169Y203072D01*
X536082Y203073D01*
X536029Y203058D01*
X535975Y203053D01*
X535894Y203021D01*
X535810Y202998D01*
X535763Y202969D01*
X535713Y202949D01*
X535644Y202895D01*
X535570Y202850D01*
X535534Y202809D01*
X535490Y202775D01*
X535439Y202705D01*
X535381Y202640D01*
X535357Y202591D01*
X535325Y202546D01*
X535296Y202464D01*
X535258Y202386D01*
X535250Y202336D01*
X535231Y202281D01*
X535224Y202167D01*
X535211Y202082D01*
X535211Y196616D01*
X533461Y192392D01*
X533432Y192278D01*
X533397Y192164D01*
X533397Y192141D01*
X533391Y192119D01*
X533395Y192001D01*
X533393Y191882D01*
X533400Y191860D01*
X533400Y191837D01*
X533437Y191725D01*
X533469Y191610D01*
X533481Y191591D01*
X533488Y191569D01*
X533555Y191471D01*
X533617Y191370D01*
X533634Y191355D01*
X533647Y191336D01*
X533738Y191261D01*
X533826Y191181D01*
X533847Y191171D01*
X533864Y191157D01*
X533973Y191110D01*
X534080Y191058D01*
X534101Y191055D01*
X534123Y191045D01*
X534308Y191023D01*
X534385Y191011D01*
X550866Y191011D01*
X556935Y188497D01*
X561579Y183853D01*
X564093Y177784D01*
X564093Y171216D01*
X561579Y165147D01*
X556935Y160503D01*
X551016Y158051D01*
X550941Y158007D01*
X550862Y157971D01*
X550820Y157936D01*
X550773Y157908D01*
X550714Y157844D01*
X550648Y157788D01*
X550617Y157742D01*
X550580Y157702D01*
X550541Y157625D01*
X550493Y157552D01*
X550477Y157499D01*
X550452Y157450D01*
X550436Y157365D01*
X550411Y157282D01*
X550410Y157227D01*
X550400Y157173D01*
X550408Y157087D01*
X550407Y157000D01*
X550422Y156947D01*
X550427Y156893D01*
X550459Y156812D01*
X550482Y156728D01*
X550511Y156681D01*
X550531Y156631D01*
X550585Y156562D01*
X550630Y156488D01*
X550671Y156451D01*
X550705Y156408D01*
X550775Y156358D01*
X550840Y156299D01*
X550889Y156275D01*
X550934Y156243D01*
X551015Y156214D01*
X551093Y156176D01*
X551144Y156168D01*
X551199Y156149D01*
X551313Y156142D01*
X551398Y156129D01*
X580778Y156129D01*
X580819Y156135D01*
X580861Y156132D01*
X580944Y156152D01*
X581057Y156169D01*
X581110Y156193D01*
X581160Y156205D01*
X585882Y158161D01*
X591118Y158161D01*
X595955Y156157D01*
X599657Y152455D01*
X601661Y147618D01*
X601661Y142382D01*
X599657Y137545D01*
X595955Y133843D01*
X591118Y131839D01*
X585882Y131839D01*
X581160Y133795D01*
X581120Y133806D01*
X581082Y133824D01*
X580997Y133837D01*
X580887Y133865D01*
X580828Y133863D01*
X580778Y133871D01*
X468524Y133871D01*
X468429Y133858D01*
X468332Y133853D01*
X468289Y133838D01*
X468244Y133831D01*
X468157Y133792D01*
X468066Y133760D01*
X468032Y133735D01*
X467987Y133715D01*
X467890Y133632D01*
X467817Y133579D01*
X464830Y130591D01*
X464805Y130558D01*
X464774Y130530D01*
X464729Y130457D01*
X464660Y130366D01*
X464640Y130311D01*
X464613Y130267D01*
X462657Y125545D01*
X460810Y123698D01*
X460804Y123690D01*
X460797Y123684D01*
X460720Y123578D01*
X460641Y123472D01*
X460637Y123463D01*
X460632Y123456D01*
X460588Y123332D01*
X460541Y123208D01*
X460540Y123199D01*
X460537Y123190D01*
X460530Y123059D01*
X460519Y122927D01*
X460521Y122918D01*
X460521Y122908D01*
X460539Y122833D01*
X460577Y122651D01*
X460588Y122630D01*
X460593Y122609D01*
X462661Y117618D01*
X462661Y112382D01*
X460657Y107545D01*
X456955Y103843D01*
X452118Y101839D01*
X446882Y101839D01*
X442045Y103843D01*
X441309Y104579D01*
X441233Y104636D01*
X441161Y104701D01*
X441120Y104721D01*
X441084Y104748D01*
X440994Y104782D01*
X440907Y104824D01*
X440865Y104830D01*
X440820Y104847D01*
X440692Y104857D01*
X440603Y104871D01*
X305397Y104871D01*
X305302Y104858D01*
X305206Y104853D01*
X305163Y104838D01*
X305118Y104831D01*
X305031Y104792D01*
X304940Y104760D01*
X304905Y104735D01*
X304861Y104715D01*
X304764Y104632D01*
X304691Y104579D01*
X303955Y103843D01*
X299118Y101839D01*
X293882Y101839D01*
G37*
%LPD*%
%LPC*%
G36*
X654382Y51839D02*
X654382Y51839D01*
X649776Y53747D01*
X649736Y53758D01*
X649698Y53776D01*
X649613Y53789D01*
X649503Y53817D01*
X649444Y53815D01*
X649394Y53823D01*
X515777Y53823D01*
X511669Y55525D01*
X500475Y66718D01*
X500442Y66743D01*
X500414Y66774D01*
X500341Y66819D01*
X500250Y66888D01*
X500195Y66908D01*
X500151Y66935D01*
X495545Y68843D01*
X491843Y72545D01*
X489839Y77382D01*
X489839Y82618D01*
X491843Y87455D01*
X495545Y91157D01*
X500382Y93161D01*
X505618Y93161D01*
X510455Y91157D01*
X514157Y87455D01*
X516065Y82849D01*
X516086Y82813D01*
X516100Y82774D01*
X516151Y82704D01*
X516209Y82606D01*
X516252Y82566D01*
X516282Y82525D01*
X522337Y76469D01*
X522414Y76412D01*
X522485Y76347D01*
X522526Y76327D01*
X522562Y76300D01*
X522652Y76266D01*
X522739Y76224D01*
X522781Y76218D01*
X522826Y76201D01*
X522954Y76191D01*
X523043Y76177D01*
X643215Y76177D01*
X643332Y76193D01*
X643450Y76205D01*
X643471Y76213D01*
X643494Y76217D01*
X643602Y76265D01*
X643712Y76309D01*
X643730Y76323D01*
X643751Y76333D01*
X643841Y76410D01*
X643934Y76483D01*
X643948Y76501D01*
X643965Y76516D01*
X644030Y76616D01*
X644099Y76712D01*
X644107Y76733D01*
X644120Y76752D01*
X644154Y76866D01*
X644194Y76977D01*
X644195Y77000D01*
X644202Y77022D01*
X644203Y77140D01*
X644210Y77259D01*
X644205Y77280D01*
X644206Y77304D01*
X644156Y77483D01*
X644138Y77558D01*
X643059Y80162D01*
X643059Y85398D01*
X645063Y90235D01*
X648765Y93937D01*
X653602Y95941D01*
X658838Y95941D01*
X662798Y94301D01*
X662807Y94298D01*
X662815Y94294D01*
X662944Y94263D01*
X663071Y94230D01*
X663080Y94231D01*
X663089Y94229D01*
X663221Y94235D01*
X663353Y94240D01*
X663362Y94242D01*
X663371Y94243D01*
X663495Y94286D01*
X663621Y94327D01*
X663629Y94332D01*
X663638Y94335D01*
X663700Y94381D01*
X663854Y94486D01*
X663869Y94504D01*
X663887Y94517D01*
X666036Y96666D01*
X670873Y98670D01*
X676109Y98670D01*
X680715Y96762D01*
X680755Y96752D01*
X680793Y96734D01*
X680878Y96720D01*
X680988Y96692D01*
X681047Y96694D01*
X681097Y96686D01*
X725595Y96686D01*
X725636Y96692D01*
X725678Y96689D01*
X725740Y96705D01*
X731074Y96705D01*
X735911Y94701D01*
X739613Y90999D01*
X741617Y86162D01*
X741617Y80926D01*
X739613Y76089D01*
X735911Y72387D01*
X731074Y70383D01*
X725838Y70383D01*
X721001Y72387D01*
X719348Y74040D01*
X719271Y74097D01*
X719200Y74162D01*
X719159Y74182D01*
X719122Y74209D01*
X719032Y74243D01*
X718946Y74285D01*
X718904Y74292D01*
X718859Y74309D01*
X718731Y74319D01*
X718641Y74333D01*
X681097Y74333D01*
X681056Y74327D01*
X681014Y74329D01*
X680930Y74309D01*
X680818Y74293D01*
X680764Y74269D01*
X680715Y74256D01*
X676109Y72349D01*
X670873Y72349D01*
X669877Y72761D01*
X669845Y72769D01*
X669817Y72784D01*
X669709Y72804D01*
X669603Y72831D01*
X669571Y72830D01*
X669540Y72836D01*
X669431Y72826D01*
X669322Y72822D01*
X669291Y72812D01*
X669259Y72809D01*
X669157Y72769D01*
X669053Y72735D01*
X669027Y72717D01*
X668997Y72705D01*
X668911Y72638D01*
X668820Y72576D01*
X668800Y72551D01*
X668775Y72531D01*
X668711Y72443D01*
X668641Y72358D01*
X668628Y72329D01*
X668610Y72302D01*
X668573Y72200D01*
X668530Y72099D01*
X668526Y72067D01*
X668515Y72037D01*
X668509Y71928D01*
X668495Y71819D01*
X668500Y71787D01*
X668498Y71755D01*
X668520Y71667D01*
X668540Y71541D01*
X668561Y71497D01*
X668571Y71456D01*
X670161Y67618D01*
X670161Y62382D01*
X668157Y57545D01*
X664455Y53843D01*
X659618Y51839D01*
X654382Y51839D01*
G37*
%LPD*%
%LPC*%
G36*
X293534Y155489D02*
X293534Y155489D01*
X287465Y158003D01*
X282821Y162647D01*
X280307Y168716D01*
X280307Y175284D01*
X281675Y178587D01*
X281691Y178649D01*
X281717Y178708D01*
X281726Y178785D01*
X281745Y178860D01*
X281743Y178925D01*
X281751Y178988D01*
X281739Y179065D01*
X281736Y179142D01*
X281717Y179203D01*
X281706Y179267D01*
X281673Y179337D01*
X281649Y179410D01*
X281613Y179463D01*
X281585Y179522D01*
X281534Y179579D01*
X281490Y179643D01*
X281441Y179684D01*
X281398Y179732D01*
X281338Y179769D01*
X281272Y179823D01*
X281195Y179856D01*
X281135Y179893D01*
X277247Y181503D01*
X272603Y186147D01*
X270089Y192216D01*
X270089Y198784D01*
X272603Y204853D01*
X277247Y209497D01*
X283316Y212011D01*
X289884Y212011D01*
X295953Y209497D01*
X300597Y204853D01*
X302767Y199614D01*
X302811Y199540D01*
X302847Y199461D01*
X302882Y199419D01*
X302910Y199372D01*
X302974Y199312D01*
X303030Y199246D01*
X303076Y199216D01*
X303116Y199179D01*
X303193Y199140D01*
X303266Y199092D01*
X303319Y199076D01*
X303368Y199051D01*
X303453Y199035D01*
X303536Y199010D01*
X303591Y199009D01*
X303645Y198999D01*
X303731Y199007D01*
X303818Y199006D01*
X303871Y199020D01*
X303925Y199026D01*
X304006Y199058D01*
X304090Y199081D01*
X304137Y199110D01*
X304187Y199130D01*
X304256Y199183D01*
X304330Y199229D01*
X304367Y199270D01*
X304410Y199304D01*
X304460Y199374D01*
X304519Y199438D01*
X304543Y199488D01*
X304575Y199532D01*
X304604Y199614D01*
X304642Y199692D01*
X304650Y199743D01*
X304669Y199798D01*
X304676Y199912D01*
X304689Y199997D01*
X304689Y206284D01*
X307203Y212353D01*
X311847Y216997D01*
X317916Y219511D01*
X324484Y219511D01*
X330553Y216997D01*
X335197Y212353D01*
X337711Y206284D01*
X337711Y199716D01*
X335197Y193647D01*
X330553Y189003D01*
X324422Y186464D01*
X324320Y186403D01*
X324215Y186347D01*
X324199Y186332D01*
X324179Y186320D01*
X324098Y186233D01*
X324013Y186151D01*
X324002Y186131D01*
X323986Y186114D01*
X323933Y186009D01*
X323874Y185905D01*
X323869Y185883D01*
X323859Y185863D01*
X323837Y185746D01*
X323809Y185631D01*
X323810Y185608D01*
X323806Y185586D01*
X323818Y185468D01*
X323824Y185349D01*
X323831Y185328D01*
X323833Y185305D01*
X323877Y185195D01*
X323916Y185083D01*
X323929Y185065D01*
X323938Y185043D01*
X324052Y184897D01*
X324098Y184834D01*
X327579Y181353D01*
X330093Y175284D01*
X330093Y168716D01*
X327579Y162647D01*
X322935Y158003D01*
X316866Y155489D01*
X293534Y155489D01*
G37*
%LPD*%
%LPC*%
G36*
X395134Y155489D02*
X395134Y155489D01*
X389065Y158003D01*
X384421Y162647D01*
X381907Y168716D01*
X381907Y175284D01*
X384421Y181353D01*
X389065Y185997D01*
X395134Y188511D01*
X411527Y188511D01*
X411559Y188515D01*
X411591Y188513D01*
X411698Y188535D01*
X411806Y188551D01*
X411836Y188564D01*
X411867Y188570D01*
X411964Y188622D01*
X412063Y188667D01*
X412088Y188688D01*
X412116Y188703D01*
X412194Y188779D01*
X412278Y188850D01*
X412295Y188877D01*
X412318Y188900D01*
X412372Y188995D01*
X412432Y189086D01*
X412442Y189117D01*
X412457Y189145D01*
X412483Y189251D01*
X412514Y189356D01*
X412515Y189388D01*
X412522Y189419D01*
X412517Y189529D01*
X412518Y189638D01*
X412510Y189669D01*
X412508Y189701D01*
X412472Y189804D01*
X412443Y189910D01*
X412426Y189937D01*
X412415Y189968D01*
X412362Y190041D01*
X412295Y190150D01*
X412259Y190182D01*
X412234Y190217D01*
X408803Y193647D01*
X406289Y199716D01*
X406289Y206284D01*
X408803Y212353D01*
X413447Y216997D01*
X419516Y219511D01*
X426084Y219511D01*
X432153Y216997D01*
X436797Y212353D01*
X439311Y206284D01*
X439311Y199716D01*
X436797Y193647D01*
X432153Y189003D01*
X426022Y186464D01*
X425920Y186403D01*
X425815Y186347D01*
X425799Y186332D01*
X425779Y186320D01*
X425698Y186233D01*
X425613Y186151D01*
X425602Y186131D01*
X425586Y186114D01*
X425533Y186009D01*
X425474Y185905D01*
X425469Y185883D01*
X425459Y185863D01*
X425437Y185746D01*
X425409Y185631D01*
X425410Y185608D01*
X425406Y185586D01*
X425418Y185468D01*
X425424Y185349D01*
X425431Y185328D01*
X425433Y185305D01*
X425477Y185195D01*
X425516Y185083D01*
X425529Y185065D01*
X425538Y185043D01*
X425652Y184897D01*
X425698Y184834D01*
X429179Y181353D01*
X431693Y175284D01*
X431693Y168716D01*
X429179Y162647D01*
X424535Y158003D01*
X418466Y155489D01*
X395134Y155489D01*
G37*
%LPD*%
%LPC*%
G36*
X119789Y243289D02*
X119789Y243289D01*
X113006Y245107D01*
X106924Y248618D01*
X101958Y253584D01*
X98447Y259666D01*
X96629Y266449D01*
X96629Y273471D01*
X98447Y280254D01*
X101958Y286336D01*
X106924Y291302D01*
X113006Y294813D01*
X119789Y296631D01*
X126811Y296631D01*
X133594Y294813D01*
X139676Y291302D01*
X144642Y286336D01*
X148153Y280254D01*
X149971Y273471D01*
X149971Y266449D01*
X148153Y259666D01*
X144642Y253584D01*
X139676Y248618D01*
X133594Y245107D01*
X126811Y243289D01*
X119789Y243289D01*
G37*
%LPD*%
%LPC*%
G36*
X704989Y917189D02*
X704989Y917189D01*
X698205Y919007D01*
X692124Y922518D01*
X687158Y927484D01*
X683647Y933565D01*
X681829Y940349D01*
X681829Y947371D01*
X683647Y954155D01*
X687158Y960236D01*
X692124Y965202D01*
X698205Y968713D01*
X704989Y970531D01*
X712011Y970531D01*
X718795Y968713D01*
X724876Y965202D01*
X729842Y960236D01*
X733353Y954155D01*
X735171Y947371D01*
X735171Y940349D01*
X733353Y933565D01*
X729842Y927484D01*
X724876Y922518D01*
X718795Y919007D01*
X712011Y917189D01*
X704989Y917189D01*
G37*
%LPD*%
%LPC*%
G36*
X368489Y914589D02*
X368489Y914589D01*
X361705Y916407D01*
X355624Y919918D01*
X350658Y924884D01*
X347147Y930965D01*
X345329Y937749D01*
X345329Y944771D01*
X347147Y951555D01*
X350658Y957636D01*
X355624Y962602D01*
X361705Y966113D01*
X368489Y967931D01*
X375511Y967931D01*
X382295Y966113D01*
X388376Y962602D01*
X393342Y957636D01*
X396853Y951555D01*
X398671Y944771D01*
X398671Y937749D01*
X396853Y930965D01*
X393342Y924884D01*
X388376Y919918D01*
X382295Y916407D01*
X375511Y914589D01*
X368489Y914589D01*
G37*
%LPD*%
%LPC*%
G36*
X692689Y665889D02*
X692689Y665889D01*
X685905Y667707D01*
X679824Y671218D01*
X674858Y676184D01*
X671347Y682265D01*
X669529Y689049D01*
X669529Y696071D01*
X671347Y702855D01*
X674858Y708936D01*
X679824Y713902D01*
X685905Y717413D01*
X692689Y719231D01*
X699711Y719231D01*
X706495Y717413D01*
X712576Y713902D01*
X717542Y708936D01*
X721053Y702855D01*
X722871Y696071D01*
X722871Y689049D01*
X721053Y682265D01*
X717542Y676184D01*
X712576Y671218D01*
X706495Y667707D01*
X699711Y665889D01*
X692689Y665889D01*
G37*
%LPD*%
%LPC*%
G36*
X375089Y661089D02*
X375089Y661089D01*
X368305Y662907D01*
X362224Y666418D01*
X357258Y671384D01*
X353747Y677465D01*
X351929Y684249D01*
X351929Y691271D01*
X353747Y698055D01*
X357258Y704136D01*
X362224Y709102D01*
X368305Y712613D01*
X375089Y714431D01*
X382111Y714431D01*
X388895Y712613D01*
X394976Y709102D01*
X399942Y704136D01*
X403453Y698055D01*
X405271Y691271D01*
X405271Y684249D01*
X403453Y677465D01*
X399942Y671384D01*
X394976Y666418D01*
X388895Y662907D01*
X382111Y661089D01*
X375089Y661089D01*
G37*
%LPD*%
%LPC*%
G36*
X139580Y949321D02*
X139580Y949321D01*
X132707Y952168D01*
X127446Y957429D01*
X124599Y964302D01*
X124599Y971742D01*
X127446Y978615D01*
X132707Y983876D01*
X139580Y986723D01*
X172420Y986723D01*
X179293Y983876D01*
X184554Y978615D01*
X187401Y971742D01*
X187401Y964302D01*
X184554Y957429D01*
X179293Y952168D01*
X172420Y949321D01*
X139580Y949321D01*
G37*
%LPD*%
%LPC*%
G36*
X139580Y724277D02*
X139580Y724277D01*
X132707Y727124D01*
X127446Y732385D01*
X124599Y739258D01*
X124599Y746698D01*
X127446Y753571D01*
X132707Y758832D01*
X139580Y761679D01*
X172420Y761679D01*
X179293Y758832D01*
X184554Y753571D01*
X187401Y746698D01*
X187401Y739258D01*
X184554Y732385D01*
X179293Y727124D01*
X172420Y724277D01*
X139580Y724277D01*
G37*
%LPD*%
%LPC*%
G36*
X651882Y280839D02*
X651882Y280839D01*
X647045Y282843D01*
X643343Y286545D01*
X641435Y291151D01*
X641414Y291187D01*
X641400Y291226D01*
X641349Y291296D01*
X641291Y291394D01*
X641248Y291434D01*
X641218Y291475D01*
X640025Y292669D01*
X638323Y296777D01*
X638323Y327394D01*
X638317Y327435D01*
X638320Y327476D01*
X638300Y327560D01*
X638283Y327673D01*
X638259Y327726D01*
X638247Y327776D01*
X636339Y332382D01*
X636339Y337618D01*
X638343Y342455D01*
X642045Y346157D01*
X646882Y348161D01*
X652118Y348161D01*
X656955Y346157D01*
X660657Y342455D01*
X662661Y337618D01*
X662661Y332382D01*
X660753Y327776D01*
X660742Y327736D01*
X660724Y327698D01*
X660711Y327613D01*
X660683Y327503D01*
X660685Y327444D01*
X660677Y327394D01*
X660677Y306354D01*
X660678Y306345D01*
X660677Y306335D01*
X660698Y306205D01*
X660717Y306075D01*
X660720Y306066D01*
X660722Y306057D01*
X660779Y305937D01*
X660833Y305818D01*
X660839Y305811D01*
X660843Y305802D01*
X660931Y305703D01*
X661016Y305604D01*
X661024Y305599D01*
X661030Y305592D01*
X661096Y305551D01*
X661252Y305449D01*
X661275Y305442D01*
X661294Y305431D01*
X661955Y305157D01*
X665657Y301455D01*
X667661Y296618D01*
X667661Y291382D01*
X665657Y286545D01*
X661955Y282843D01*
X657118Y280839D01*
X651882Y280839D01*
G37*
%LPD*%
%LPC*%
G36*
X145730Y656739D02*
X145730Y656739D01*
X139883Y659161D01*
X135409Y663635D01*
X132987Y669482D01*
X132987Y675810D01*
X135409Y681657D01*
X139883Y686131D01*
X145730Y688553D01*
X171870Y688553D01*
X177717Y686131D01*
X182191Y681657D01*
X184613Y675810D01*
X184613Y669482D01*
X182191Y663635D01*
X177717Y659161D01*
X171870Y656739D01*
X145730Y656739D01*
G37*
%LPD*%
%LPC*%
G36*
X33557Y314871D02*
X33557Y314871D01*
X25901Y318042D01*
X20042Y323901D01*
X16871Y331557D01*
X16871Y339843D01*
X20042Y347499D01*
X25901Y353358D01*
X33557Y356529D01*
X41843Y356529D01*
X49499Y353358D01*
X55358Y347499D01*
X58529Y339843D01*
X58529Y331557D01*
X55358Y323901D01*
X49499Y318042D01*
X41843Y314871D01*
X33557Y314871D01*
G37*
%LPD*%
%LPC*%
G36*
X213357Y116271D02*
X213357Y116271D01*
X205701Y119442D01*
X199842Y125301D01*
X196671Y132957D01*
X196671Y141243D01*
X199842Y148899D01*
X205701Y154758D01*
X213357Y157929D01*
X221643Y157929D01*
X229299Y154758D01*
X235158Y148899D01*
X238329Y141243D01*
X238329Y132957D01*
X235158Y125301D01*
X229299Y119442D01*
X221643Y116271D01*
X213357Y116271D01*
G37*
%LPD*%
%LPC*%
G36*
X538812Y833257D02*
X538812Y833257D01*
X531996Y836080D01*
X526780Y841296D01*
X523957Y848112D01*
X523957Y855488D01*
X526780Y862304D01*
X531996Y867520D01*
X538812Y870343D01*
X546188Y870343D01*
X553004Y867520D01*
X558220Y862304D01*
X561043Y855488D01*
X561043Y848112D01*
X558220Y841296D01*
X553004Y836080D01*
X546188Y833257D01*
X538812Y833257D01*
G37*
%LPD*%
%LPC*%
G36*
X461812Y830257D02*
X461812Y830257D01*
X454996Y833080D01*
X449780Y838296D01*
X446957Y845112D01*
X446957Y852488D01*
X449780Y859304D01*
X454996Y864520D01*
X461812Y867343D01*
X469188Y867343D01*
X476004Y864520D01*
X481220Y859304D01*
X484043Y852488D01*
X484043Y845112D01*
X481220Y838296D01*
X476004Y833080D01*
X469188Y830257D01*
X461812Y830257D01*
G37*
%LPD*%
%LPC*%
G36*
X598978Y941807D02*
X598978Y941807D01*
X593394Y944120D01*
X589120Y948394D01*
X586807Y953978D01*
X586807Y960022D01*
X589120Y965606D01*
X593394Y969880D01*
X598978Y972193D01*
X605022Y972193D01*
X610606Y969880D01*
X614880Y965606D01*
X617193Y960022D01*
X617193Y953978D01*
X614880Y948394D01*
X610606Y944120D01*
X605022Y941807D01*
X598978Y941807D01*
G37*
%LPD*%
%LPC*%
G36*
X603978Y853807D02*
X603978Y853807D01*
X598394Y856120D01*
X594120Y860394D01*
X591807Y865978D01*
X591807Y872022D01*
X594120Y877606D01*
X598394Y881880D01*
X603978Y884193D01*
X610022Y884193D01*
X615606Y881880D01*
X619880Y877606D01*
X622193Y872022D01*
X622193Y865978D01*
X619880Y860394D01*
X615606Y856120D01*
X610022Y853807D01*
X603978Y853807D01*
G37*
%LPD*%
%LPC*%
G36*
X607978Y898807D02*
X607978Y898807D01*
X602394Y901120D01*
X598120Y905394D01*
X595807Y910978D01*
X595807Y917022D01*
X598120Y922606D01*
X602394Y926880D01*
X607978Y929193D01*
X614022Y929193D01*
X619606Y926880D01*
X623880Y922606D01*
X626193Y917022D01*
X626193Y910978D01*
X623880Y905394D01*
X619606Y901120D01*
X614022Y898807D01*
X607978Y898807D01*
G37*
%LPD*%
%LPC*%
G36*
X532415Y932823D02*
X532415Y932823D01*
X532415Y953567D01*
X533807Y953346D01*
X535670Y952741D01*
X537415Y951851D01*
X539001Y950700D01*
X540386Y949315D01*
X541537Y947729D01*
X542427Y945984D01*
X543032Y944121D01*
X543339Y942186D01*
X543339Y932823D01*
X532415Y932823D01*
G37*
%LPD*%
%LPC*%
G36*
X482377Y932823D02*
X482377Y932823D01*
X482377Y953567D01*
X483769Y953346D01*
X485632Y952741D01*
X487377Y951851D01*
X488963Y950700D01*
X490348Y949315D01*
X491499Y947729D01*
X492389Y945984D01*
X492994Y944121D01*
X493301Y942186D01*
X493301Y932823D01*
X482377Y932823D01*
G37*
%LPD*%
%LPC*%
G36*
X532415Y929777D02*
X532415Y929777D01*
X543339Y929777D01*
X543339Y920414D01*
X543032Y918479D01*
X542427Y916616D01*
X541537Y914871D01*
X540386Y913285D01*
X539001Y911900D01*
X537415Y910749D01*
X535670Y909859D01*
X533807Y909254D01*
X532415Y909033D01*
X532415Y929777D01*
G37*
%LPD*%
%LPC*%
G36*
X482377Y929777D02*
X482377Y929777D01*
X493301Y929777D01*
X493301Y920414D01*
X492994Y918479D01*
X492389Y916616D01*
X491499Y914871D01*
X490348Y913285D01*
X488963Y911900D01*
X487377Y910749D01*
X485632Y909859D01*
X483769Y909254D01*
X482377Y909033D01*
X482377Y929777D01*
G37*
%LPD*%
%LPC*%
G36*
X518445Y932823D02*
X518445Y932823D01*
X518445Y942186D01*
X518752Y944121D01*
X519357Y945984D01*
X520247Y947729D01*
X521398Y949315D01*
X522783Y950700D01*
X524369Y951851D01*
X526114Y952741D01*
X527977Y953346D01*
X529369Y953567D01*
X529369Y932823D01*
X518445Y932823D01*
G37*
%LPD*%
%LPC*%
G36*
X468407Y932823D02*
X468407Y932823D01*
X468407Y942186D01*
X468714Y944121D01*
X469319Y945984D01*
X470209Y947729D01*
X471360Y949315D01*
X472745Y950700D01*
X474331Y951851D01*
X476076Y952741D01*
X477939Y953346D01*
X479331Y953567D01*
X479331Y932823D01*
X468407Y932823D01*
G37*
%LPD*%
%LPC*%
G36*
X477939Y909254D02*
X477939Y909254D01*
X476076Y909859D01*
X474331Y910749D01*
X472745Y911900D01*
X471360Y913285D01*
X470209Y914871D01*
X469319Y916616D01*
X468714Y918479D01*
X468407Y920414D01*
X468407Y929777D01*
X479331Y929777D01*
X479331Y909033D01*
X477939Y909254D01*
G37*
%LPD*%
%LPC*%
G36*
X527977Y909254D02*
X527977Y909254D01*
X526114Y909859D01*
X524369Y910749D01*
X522783Y911900D01*
X521398Y913285D01*
X520247Y914871D01*
X519357Y916616D01*
X518752Y918479D01*
X518445Y920414D01*
X518445Y929777D01*
X529369Y929777D01*
X529369Y909033D01*
X527977Y909254D01*
G37*
%LPD*%
%LPC*%
G36*
X160799Y624607D02*
X160799Y624607D01*
X160799Y635055D01*
X169686Y635055D01*
X171621Y634748D01*
X173484Y634143D01*
X175229Y633253D01*
X176815Y632102D01*
X178200Y630717D01*
X179351Y629131D01*
X180241Y627386D01*
X180846Y625523D01*
X180991Y624607D01*
X160799Y624607D01*
G37*
%LPD*%
%LPC*%
G36*
X136609Y624607D02*
X136609Y624607D01*
X136754Y625523D01*
X137359Y627386D01*
X138249Y629131D01*
X139400Y630717D01*
X140785Y632102D01*
X142371Y633253D01*
X144116Y634143D01*
X145979Y634748D01*
X147914Y635055D01*
X156801Y635055D01*
X156801Y624607D01*
X136609Y624607D01*
G37*
%LPD*%
%LPC*%
G36*
X160799Y610161D02*
X160799Y610161D01*
X160799Y620609D01*
X180991Y620609D01*
X180846Y619693D01*
X180241Y617830D01*
X179351Y616085D01*
X178200Y614499D01*
X176815Y613114D01*
X175229Y611963D01*
X173484Y611073D01*
X171621Y610468D01*
X169686Y610161D01*
X160799Y610161D01*
G37*
%LPD*%
%LPC*%
G36*
X147914Y610161D02*
X147914Y610161D01*
X145979Y610468D01*
X144116Y611073D01*
X142371Y611963D01*
X140785Y613114D01*
X139400Y614499D01*
X138249Y616085D01*
X137359Y617830D01*
X136754Y619693D01*
X136609Y620609D01*
X156801Y620609D01*
X156801Y610161D01*
X147914Y610161D01*
G37*
%LPD*%
%LPC*%
G36*
X90499Y337699D02*
X90499Y337699D01*
X90499Y350941D01*
X94813Y350941D01*
X103741Y342013D01*
X103741Y337699D01*
X90499Y337699D01*
G37*
%LPD*%
%LPC*%
G36*
X219499Y189899D02*
X219499Y189899D01*
X219499Y203141D01*
X223813Y203141D01*
X232741Y194213D01*
X232741Y189899D01*
X219499Y189899D01*
G37*
%LPD*%
%LPC*%
G36*
X73259Y337699D02*
X73259Y337699D01*
X73259Y342013D01*
X82187Y350941D01*
X86501Y350941D01*
X86501Y337699D01*
X73259Y337699D01*
G37*
%LPD*%
%LPC*%
G36*
X90499Y320459D02*
X90499Y320459D01*
X90499Y333701D01*
X103741Y333701D01*
X103741Y329387D01*
X94813Y320459D01*
X90499Y320459D01*
G37*
%LPD*%
%LPC*%
G36*
X202259Y189899D02*
X202259Y189899D01*
X202259Y194213D01*
X211187Y203141D01*
X215501Y203141D01*
X215501Y189899D01*
X202259Y189899D01*
G37*
%LPD*%
%LPC*%
G36*
X219499Y172659D02*
X219499Y172659D01*
X219499Y185901D01*
X232741Y185901D01*
X232741Y183910D01*
X232741Y181587D01*
X224692Y173538D01*
X223813Y172659D01*
X219499Y172659D01*
G37*
%LPD*%
%LPC*%
G36*
X82187Y320459D02*
X82187Y320459D01*
X73259Y329387D01*
X73259Y333701D01*
X86501Y333701D01*
X86501Y320459D01*
X82187Y320459D01*
G37*
%LPD*%
%LPC*%
G36*
X211187Y172659D02*
X211187Y172659D01*
X210308Y173538D01*
X202259Y181587D01*
X202259Y185901D01*
X215501Y185901D01*
X215501Y172659D01*
X211187Y172659D01*
G37*
%LPD*%
%LPC*%
G36*
X65099Y77799D02*
X65099Y77799D01*
X65099Y85961D01*
X71520Y85961D01*
X73099Y85711D01*
X74620Y85216D01*
X76045Y84490D01*
X77339Y83550D01*
X78470Y82419D01*
X79410Y81125D01*
X80136Y79700D01*
X80631Y78179D01*
X80691Y77799D01*
X65099Y77799D01*
G37*
%LPD*%
%LPC*%
G36*
X45509Y77799D02*
X45509Y77799D01*
X45569Y78179D01*
X46064Y79700D01*
X46790Y81125D01*
X47730Y82419D01*
X48861Y83550D01*
X50155Y84490D01*
X51580Y85216D01*
X53101Y85711D01*
X54680Y85961D01*
X61101Y85961D01*
X61101Y77799D01*
X45509Y77799D01*
G37*
%LPD*%
%LPC*%
G36*
X478666Y669459D02*
X478666Y669459D01*
X478019Y669632D01*
X477440Y669967D01*
X476967Y670440D01*
X476632Y671019D01*
X476459Y671666D01*
X476459Y678477D01*
X487477Y678477D01*
X487477Y669459D01*
X478666Y669459D01*
G37*
%LPD*%
%LPC*%
G36*
X554323Y679023D02*
X554323Y679023D01*
X554323Y687541D01*
X560634Y687541D01*
X561281Y687368D01*
X561860Y687033D01*
X562333Y686560D01*
X562668Y685981D01*
X562841Y685334D01*
X562841Y679023D01*
X554323Y679023D01*
G37*
%LPD*%
%LPC*%
G36*
X553723Y711523D02*
X553723Y711523D01*
X553723Y720041D01*
X560034Y720041D01*
X560681Y719868D01*
X561260Y719533D01*
X561733Y719060D01*
X562068Y718481D01*
X562241Y717834D01*
X562241Y711523D01*
X553723Y711523D01*
G37*
%LPD*%
%LPC*%
G36*
X553723Y699959D02*
X553723Y699959D01*
X553723Y708477D01*
X562241Y708477D01*
X562241Y702166D01*
X562068Y701519D01*
X561733Y700940D01*
X561260Y700467D01*
X560681Y700132D01*
X560034Y699959D01*
X553723Y699959D01*
G37*
%LPD*%
%LPC*%
G36*
X554323Y667459D02*
X554323Y667459D01*
X554323Y675977D01*
X562841Y675977D01*
X562841Y669666D01*
X562668Y669019D01*
X562333Y668440D01*
X561860Y667967D01*
X561281Y667632D01*
X560634Y667459D01*
X554323Y667459D01*
G37*
%LPD*%
%LPC*%
G36*
X542759Y679023D02*
X542759Y679023D01*
X542759Y685334D01*
X542932Y685981D01*
X543267Y686560D01*
X543740Y687033D01*
X544319Y687368D01*
X544966Y687541D01*
X551277Y687541D01*
X551277Y679023D01*
X542759Y679023D01*
G37*
%LPD*%
%LPC*%
G36*
X542159Y711523D02*
X542159Y711523D01*
X542159Y717834D01*
X542332Y718481D01*
X542667Y719060D01*
X543140Y719533D01*
X543719Y719868D01*
X544366Y720041D01*
X550677Y720041D01*
X550677Y711523D01*
X542159Y711523D01*
G37*
%LPD*%
%LPC*%
G36*
X544366Y699959D02*
X544366Y699959D01*
X543719Y700132D01*
X543140Y700467D01*
X542667Y700940D01*
X542332Y701519D01*
X542159Y702166D01*
X542159Y708477D01*
X550677Y708477D01*
X550677Y699959D01*
X544366Y699959D01*
G37*
%LPD*%
%LPC*%
G36*
X544966Y667459D02*
X544966Y667459D01*
X544319Y667632D01*
X543740Y667967D01*
X543267Y668440D01*
X542932Y669019D01*
X542759Y669666D01*
X542759Y675977D01*
X551277Y675977D01*
X551277Y667459D01*
X544966Y667459D01*
G37*
%LPD*%
%LPC*%
G36*
X533023Y595323D02*
X533023Y595323D01*
X533023Y604618D01*
X534058Y604454D01*
X535693Y603922D01*
X537225Y603142D01*
X538616Y602131D01*
X539831Y600916D01*
X540842Y599525D01*
X541622Y597993D01*
X542154Y596358D01*
X542318Y595323D01*
X533023Y595323D01*
G37*
%LPD*%
%LPC*%
G36*
X544023Y751723D02*
X544023Y751723D01*
X544023Y761018D01*
X545058Y760854D01*
X546693Y760322D01*
X548225Y759542D01*
X549616Y758531D01*
X550831Y757316D01*
X551842Y755925D01*
X552622Y754393D01*
X553154Y752758D01*
X553318Y751723D01*
X544023Y751723D01*
G37*
%LPD*%
%LPC*%
G36*
X467023Y748723D02*
X467023Y748723D01*
X467023Y758018D01*
X468058Y757854D01*
X469693Y757322D01*
X471225Y756542D01*
X472616Y755531D01*
X473831Y754316D01*
X474842Y752925D01*
X475622Y751393D01*
X476154Y749758D01*
X476318Y748723D01*
X467023Y748723D01*
G37*
%LPD*%
%LPC*%
G36*
X486023Y597323D02*
X486023Y597323D01*
X486023Y606618D01*
X487058Y606454D01*
X488693Y605922D01*
X490225Y605142D01*
X491616Y604131D01*
X492831Y602916D01*
X493842Y601525D01*
X494622Y599993D01*
X495154Y598358D01*
X495318Y597323D01*
X486023Y597323D01*
G37*
%LPD*%
%LPC*%
G36*
X544023Y748677D02*
X544023Y748677D01*
X553318Y748677D01*
X553154Y747642D01*
X552622Y746007D01*
X551842Y744475D01*
X550831Y743084D01*
X549616Y741869D01*
X548225Y740858D01*
X546693Y740078D01*
X545058Y739546D01*
X544023Y739382D01*
X544023Y748677D01*
G37*
%LPD*%
%LPC*%
G36*
X454682Y748723D02*
X454682Y748723D01*
X454846Y749758D01*
X455378Y751393D01*
X456158Y752925D01*
X457169Y754316D01*
X458384Y755531D01*
X459775Y756542D01*
X461307Y757322D01*
X462942Y757854D01*
X463977Y758018D01*
X463977Y748723D01*
X454682Y748723D01*
G37*
%LPD*%
%LPC*%
G36*
X486023Y594277D02*
X486023Y594277D01*
X495318Y594277D01*
X495154Y593242D01*
X494622Y591607D01*
X493842Y590075D01*
X492831Y588684D01*
X491616Y587469D01*
X490225Y586458D01*
X488693Y585678D01*
X487058Y585146D01*
X486023Y584982D01*
X486023Y594277D01*
G37*
%LPD*%
%LPC*%
G36*
X531682Y751723D02*
X531682Y751723D01*
X531846Y752758D01*
X532378Y754393D01*
X533158Y755925D01*
X534169Y757316D01*
X535384Y758531D01*
X536775Y759542D01*
X538307Y760322D01*
X539942Y760854D01*
X540977Y761018D01*
X540977Y751723D01*
X531682Y751723D01*
G37*
%LPD*%
%LPC*%
G36*
X467023Y745677D02*
X467023Y745677D01*
X476318Y745677D01*
X476154Y744642D01*
X475622Y743007D01*
X474842Y741475D01*
X473831Y740084D01*
X472616Y738869D01*
X471225Y737858D01*
X469693Y737078D01*
X468058Y736546D01*
X467023Y736382D01*
X467023Y745677D01*
G37*
%LPD*%
%LPC*%
G36*
X533023Y592277D02*
X533023Y592277D01*
X542318Y592277D01*
X542154Y591242D01*
X541622Y589607D01*
X540842Y588075D01*
X539831Y586684D01*
X538616Y585469D01*
X537225Y584458D01*
X535693Y583678D01*
X534058Y583146D01*
X533023Y582982D01*
X533023Y592277D01*
G37*
%LPD*%
%LPC*%
G36*
X473682Y597323D02*
X473682Y597323D01*
X473846Y598358D01*
X474378Y599993D01*
X475158Y601525D01*
X476169Y602916D01*
X477384Y604131D01*
X478775Y605142D01*
X480307Y605922D01*
X481942Y606454D01*
X482977Y606618D01*
X482977Y597323D01*
X473682Y597323D01*
G37*
%LPD*%
%LPC*%
G36*
X520682Y595323D02*
X520682Y595323D01*
X520846Y596358D01*
X521378Y597993D01*
X522158Y599525D01*
X523169Y600916D01*
X524384Y602131D01*
X525775Y603142D01*
X527307Y603922D01*
X528942Y604454D01*
X529977Y604618D01*
X529977Y595323D01*
X520682Y595323D01*
G37*
%LPD*%
%LPC*%
G36*
X481942Y585146D02*
X481942Y585146D01*
X480307Y585678D01*
X478775Y586458D01*
X477384Y587469D01*
X476169Y588684D01*
X475158Y590075D01*
X474378Y591607D01*
X473846Y593242D01*
X473682Y594277D01*
X482977Y594277D01*
X482977Y584982D01*
X481942Y585146D01*
G37*
%LPD*%
%LPC*%
G36*
X528942Y583146D02*
X528942Y583146D01*
X527307Y583678D01*
X525775Y584458D01*
X524384Y585469D01*
X523169Y586684D01*
X522158Y588075D01*
X521378Y589607D01*
X520846Y591242D01*
X520682Y592277D01*
X529977Y592277D01*
X529977Y582982D01*
X528942Y583146D01*
G37*
%LPD*%
%LPC*%
G36*
X539942Y739546D02*
X539942Y739546D01*
X538307Y740078D01*
X536775Y740858D01*
X535384Y741869D01*
X534169Y743084D01*
X533158Y744475D01*
X532378Y746007D01*
X531846Y747642D01*
X531682Y748677D01*
X540977Y748677D01*
X540977Y739382D01*
X539942Y739546D01*
G37*
%LPD*%
%LPC*%
G36*
X462942Y736546D02*
X462942Y736546D01*
X461307Y737078D01*
X459775Y737858D01*
X458384Y738869D01*
X457169Y740084D01*
X456158Y741475D01*
X455378Y743007D01*
X454846Y744642D01*
X454682Y745677D01*
X463977Y745677D01*
X463977Y736382D01*
X462942Y736546D01*
G37*
%LPD*%
%LPC*%
G36*
X486499Y496199D02*
X486499Y496199D01*
X486499Y504942D01*
X487058Y504854D01*
X488693Y504323D01*
X490225Y503542D01*
X491616Y502531D01*
X492831Y501316D01*
X493842Y499925D01*
X494623Y498393D01*
X495154Y496758D01*
X495242Y496199D01*
X486499Y496199D01*
G37*
%LPD*%
%LPC*%
G36*
X533499Y494199D02*
X533499Y494199D01*
X533499Y502942D01*
X534058Y502854D01*
X535693Y502323D01*
X537225Y501542D01*
X538616Y500531D01*
X539831Y499316D01*
X540842Y497925D01*
X541623Y496393D01*
X542154Y494758D01*
X542242Y494199D01*
X533499Y494199D01*
G37*
%LPD*%
%LPC*%
G36*
X533499Y490201D02*
X533499Y490201D01*
X542242Y490201D01*
X542221Y490065D01*
X542154Y489642D01*
X541623Y488007D01*
X540842Y486475D01*
X539831Y485084D01*
X538616Y483869D01*
X537225Y482858D01*
X535693Y482077D01*
X534058Y481546D01*
X533499Y481458D01*
X533499Y490201D01*
G37*
%LPD*%
%LPC*%
G36*
X473758Y496199D02*
X473758Y496199D01*
X473846Y496758D01*
X474377Y498393D01*
X475158Y499925D01*
X476169Y501316D01*
X477384Y502531D01*
X478775Y503542D01*
X480307Y504323D01*
X481942Y504854D01*
X482501Y504942D01*
X482501Y496199D01*
X473758Y496199D01*
G37*
%LPD*%
%LPC*%
G36*
X520758Y494199D02*
X520758Y494199D01*
X520846Y494758D01*
X521377Y496393D01*
X522158Y497925D01*
X523169Y499316D01*
X524384Y500531D01*
X525775Y501542D01*
X527307Y502323D01*
X528942Y502854D01*
X529501Y502942D01*
X529501Y494199D01*
X520758Y494199D01*
G37*
%LPD*%
%LPC*%
G36*
X486499Y492201D02*
X486499Y492201D01*
X495242Y492201D01*
X495154Y491642D01*
X494623Y490007D01*
X493842Y488475D01*
X492831Y487084D01*
X491616Y485869D01*
X490225Y484858D01*
X488693Y484077D01*
X487058Y483546D01*
X486499Y483458D01*
X486499Y492201D01*
G37*
%LPD*%
%LPC*%
G36*
X528942Y481546D02*
X528942Y481546D01*
X527307Y482077D01*
X525775Y482858D01*
X524384Y483869D01*
X523169Y485084D01*
X522158Y486475D01*
X521377Y488007D01*
X520846Y489642D01*
X520758Y490201D01*
X529501Y490201D01*
X529501Y481458D01*
X528942Y481546D01*
G37*
%LPD*%
%LPC*%
G36*
X481942Y483546D02*
X481942Y483546D01*
X480307Y484077D01*
X478775Y484858D01*
X477384Y485869D01*
X476169Y487084D01*
X475158Y488475D01*
X474377Y490007D01*
X473846Y491642D01*
X473758Y492201D01*
X482501Y492201D01*
X482501Y483458D01*
X481942Y483546D01*
G37*
%LPD*%
%LPC*%
G36*
X484499Y595799D02*
X484499Y595799D01*
X484499Y595801D01*
X484501Y595801D01*
X484501Y595799D01*
X484499Y595799D01*
G37*
%LPD*%
%LPC*%
G36*
X531499Y593799D02*
X531499Y593799D01*
X531499Y593801D01*
X531501Y593801D01*
X531501Y593799D01*
X531499Y593799D01*
G37*
%LPD*%
%LPC*%
G36*
X484499Y494199D02*
X484499Y494199D01*
X484499Y494201D01*
X484501Y494201D01*
X484501Y494199D01*
X484499Y494199D01*
G37*
%LPD*%
%LPC*%
G36*
X531499Y492199D02*
X531499Y492199D01*
X531499Y492201D01*
X531501Y492201D01*
X531501Y492199D01*
X531499Y492199D01*
G37*
%LPD*%
%LPC*%
G36*
X465499Y747199D02*
X465499Y747199D01*
X465499Y747201D01*
X465501Y747201D01*
X465501Y747199D01*
X465499Y747199D01*
G37*
%LPD*%
%LPC*%
G36*
X530891Y931299D02*
X530891Y931299D01*
X530891Y931301D01*
X530893Y931301D01*
X530893Y931299D01*
X530891Y931299D01*
G37*
%LPD*%
%LPC*%
G36*
X480853Y931299D02*
X480853Y931299D01*
X480853Y931301D01*
X480855Y931301D01*
X480855Y931299D01*
X480853Y931299D01*
G37*
%LPD*%
%LPC*%
G36*
X158799Y622607D02*
X158799Y622607D01*
X158799Y622609D01*
X158801Y622609D01*
X158801Y622607D01*
X158799Y622607D01*
G37*
%LPD*%
%LPC*%
G36*
X217499Y187899D02*
X217499Y187899D01*
X217499Y187901D01*
X217501Y187901D01*
X217501Y187899D01*
X217499Y187899D01*
G37*
%LPD*%
%LPC*%
G36*
X88499Y335699D02*
X88499Y335699D01*
X88499Y335701D01*
X88501Y335701D01*
X88501Y335699D01*
X88499Y335699D01*
G37*
%LPD*%
%LPC*%
G36*
X542499Y750199D02*
X542499Y750199D01*
X542499Y750201D01*
X542501Y750201D01*
X542501Y750199D01*
X542499Y750199D01*
G37*
%LPD*%
%LPC*%
G36*
X552799Y677499D02*
X552799Y677499D01*
X552799Y677501D01*
X552801Y677501D01*
X552801Y677499D01*
X552799Y677499D01*
G37*
%LPD*%
%LPC*%
G36*
X552199Y709999D02*
X552199Y709999D01*
X552199Y710001D01*
X552201Y710001D01*
X552201Y709999D01*
X552199Y709999D01*
G37*
%LPD*%
D10*
X37700Y335700D03*
D11*
X88500Y335700D03*
D12*
X286600Y297100D03*
X286600Y195500D03*
X422800Y203000D03*
X321200Y203000D03*
X518700Y301500D03*
X518700Y199900D03*
X653400Y210200D03*
X551800Y210200D03*
D13*
X70720Y25000D02*
X55480Y25000D01*
X55480Y50400D02*
X70720Y50400D01*
X70720Y75800D02*
X55480Y75800D01*
D14*
X552200Y710000D03*
X517200Y710000D03*
X517800Y677500D03*
X552800Y677500D03*
D15*
X489000Y708000D03*
X489000Y680000D03*
D16*
X480854Y921394D02*
X480854Y941206D01*
X530892Y941206D02*
X530892Y921394D01*
X168706Y672646D02*
X148894Y672646D01*
X148894Y622608D02*
X168706Y622608D01*
D17*
X632418Y174500D02*
X649182Y174500D01*
X547582Y174500D02*
X530818Y174500D01*
X415182Y172000D02*
X398418Y172000D01*
X313582Y172000D02*
X296818Y172000D01*
D10*
X217500Y137100D03*
D18*
X217500Y187900D03*
D19*
X168700Y742978D02*
X143300Y742978D01*
X143300Y968022D02*
X168700Y968022D01*
D12*
X484500Y494200D03*
X484500Y595800D03*
X465500Y747200D03*
X465500Y848800D03*
X531500Y492200D03*
X531500Y593800D03*
X542500Y750200D03*
X542500Y851800D03*
D20*
X353500Y319000D03*
D21*
X474500Y319000D01*
X673000Y341500D02*
X673000Y286500D01*
X505500Y350000D02*
X474500Y319000D01*
X664500Y350000D02*
X673000Y341500D01*
X664500Y350000D02*
X505500Y350000D01*
D20*
X278500Y141000D03*
D21*
X323500Y141000D01*
X345500Y163000D01*
X345500Y259000D01*
X329500Y275000D02*
X329500Y312000D01*
X336500Y319000D01*
X353500Y319000D01*
X329500Y275000D02*
X345500Y259000D01*
D20*
X138000Y547000D03*
X252000Y466000D03*
X284000Y411000D03*
X640000Y466000D03*
X505000Y407000D03*
X703000Y468000D03*
X594000Y407000D03*
X470000Y341000D03*
X470000Y270000D03*
X290000Y55000D03*
X191000Y59000D03*
X30000Y39000D03*
X54000Y163000D03*
X47000Y218000D03*
X50000Y285000D03*
X712000Y205000D03*
X758000Y230000D03*
X712000Y257000D03*
D22*
X158800Y476200D02*
X158800Y622608D01*
X222000Y413000D02*
X222000Y183000D01*
X222000Y413000D02*
X158800Y476200D01*
D20*
X351500Y295000D03*
X493500Y299000D03*
D21*
X491500Y297000D01*
X381500Y297000D01*
X353500Y297000D01*
X351500Y295000D01*
D20*
X382500Y208000D03*
D21*
X382500Y296000D01*
X381500Y297000D01*
D20*
X695000Y137000D03*
D21*
X675000Y157000D01*
X675000Y228000D01*
X669000Y234000D01*
X489000Y234000D01*
X489000Y294500D01*
X493500Y299000D01*
D20*
X449500Y115000D03*
D23*
X297500Y116000D02*
X296500Y115000D01*
D20*
X296500Y115000D03*
D23*
X448500Y116000D02*
X449500Y115000D01*
X448500Y116000D02*
X297500Y116000D01*
D20*
X588500Y145000D03*
D23*
X463500Y145000D01*
X451500Y133000D01*
D20*
X451500Y133000D03*
X244000Y954000D03*
X246000Y901000D03*
X248000Y845000D03*
X611000Y914000D03*
X602000Y957000D03*
X654500Y294000D03*
D21*
X649500Y299000D02*
X649500Y335000D01*
X649500Y299000D02*
X654500Y294000D01*
D20*
X649500Y335000D03*
X306500Y346000D03*
D21*
X306500Y286000D02*
X286000Y265500D01*
X286000Y247500D01*
D20*
X286000Y247500D03*
D21*
X306500Y286000D02*
X306500Y346000D01*
D20*
X396000Y761000D03*
X261000Y682000D03*
X269000Y643000D03*
X261000Y608000D03*
X471000Y631000D03*
X594500Y322000D03*
D21*
X591500Y319000D01*
X543500Y319000D01*
X536500Y312000D01*
X536500Y276000D01*
X521500Y261000D01*
X515500Y261000D01*
D20*
X515500Y261000D03*
D23*
X552800Y677500D02*
X552800Y709400D01*
X552200Y710000D01*
D20*
X596000Y638000D03*
X596000Y774000D03*
X549000Y637000D03*
X599000Y694000D03*
D23*
X517800Y709400D02*
X517800Y677500D01*
X517800Y709400D02*
X517200Y710000D01*
X508500Y708000D02*
X489000Y708000D01*
X508500Y708000D02*
X512500Y712000D01*
X515200Y712000D01*
X517200Y710000D01*
D20*
X656220Y82780D03*
X657000Y65000D03*
D21*
X518000Y65000D01*
X503000Y80000D01*
D20*
X503000Y80000D03*
X673491Y85509D03*
D21*
X726491Y85509D01*
X728456Y83544D01*
D20*
X728456Y83544D03*
X607000Y869000D03*
M02*
