G04 EAGLE Gerber RS-274X export*
G75*
%MOMM*%
%FSLAX34Y34*%
%LPD*%
%INSoldermask Top*%
%IPPOS*%
%AMOC8*
5,1,8,0,0,1.08239X$1,22.5*%
G01*
%ADD10R,1.983200X0.923200*%
%ADD11C,3.505200*%
%ADD12R,13.203200X17.203200*%
%ADD13R,3.203200X4.203200*%
%ADD14R,2.403200X0.803200*%
%ADD15R,1.703200X2.203200*%
%ADD16R,2.203200X1.703200*%
%ADD17R,2.203200X1.803200*%
%ADD18R,1.803200X2.203200*%
%ADD19C,2.743200*%
%ADD20P,2.969212X8X22.500000*%
%ADD21R,1.703200X1.703200*%
%ADD22C,1.879600*%
%ADD23C,1.727200*%
%ADD24C,2.184400*%
%ADD25C,1.879600*%
%ADD26P,2.969212X8X112.500000*%
%ADD27C,2.743200*%
%ADD28R,2.006200X1.803200*%
%ADD29R,1.803200X2.006200*%
%ADD30R,1.603200X1.203200*%
%ADD31R,1.203200X1.603200*%
%ADD32C,1.209600*%


D10*
X402200Y245850D03*
X355200Y245850D03*
X402200Y233150D03*
X402200Y258550D03*
X402200Y271250D03*
X355200Y233150D03*
X355200Y258550D03*
X355200Y271250D03*
D11*
X372000Y941260D03*
D12*
X372000Y899500D03*
D13*
X397400Y766000D03*
X346600Y764730D03*
D14*
X409500Y101550D03*
X357500Y101550D03*
X409500Y88850D03*
X409500Y114250D03*
X409500Y126950D03*
X357500Y88850D03*
X357500Y114250D03*
X357500Y126950D03*
D15*
X327700Y139000D03*
X297700Y139000D03*
D16*
X448000Y97500D03*
X448000Y67500D03*
D17*
X319800Y86200D03*
X319800Y114200D03*
D18*
X352800Y62600D03*
X324800Y62600D03*
D17*
X258100Y65100D03*
X258100Y93100D03*
D19*
X37700Y335700D03*
D20*
X88500Y335700D03*
D21*
X230000Y60100D03*
X230000Y95100D03*
D11*
X378600Y687760D03*
D12*
X378600Y646000D03*
D13*
X404000Y512500D03*
X353200Y511230D03*
D17*
X305600Y762200D03*
X305600Y790200D03*
X305100Y513200D03*
X305100Y541200D03*
D16*
X319600Y230500D03*
X319600Y260500D03*
X328200Y285000D03*
X328200Y315000D03*
D22*
X286600Y297100D03*
X286600Y195500D03*
X422800Y203000D03*
X321200Y203000D03*
D16*
X450700Y160900D03*
X450700Y190900D03*
D10*
X633600Y261450D03*
X586600Y261450D03*
X633600Y248750D03*
X633600Y274150D03*
X633600Y286850D03*
X586600Y248750D03*
X586600Y274150D03*
X586600Y286850D03*
D11*
X708500Y943860D03*
D12*
X708500Y902100D03*
D13*
X733900Y768600D03*
X683100Y767330D03*
D11*
X696200Y692560D03*
D12*
X696200Y650800D03*
D13*
X721600Y517300D03*
X670800Y516030D03*
D18*
G36*
X645365Y782624D02*
X663396Y782655D01*
X663435Y760624D01*
X645404Y760593D01*
X645365Y782624D01*
G37*
G36*
X617365Y782576D02*
X635396Y782607D01*
X635435Y760576D01*
X617404Y760545D01*
X617365Y782576D01*
G37*
D17*
X634500Y526100D03*
X634500Y554100D03*
D16*
X549400Y244500D03*
X549400Y274500D03*
X558300Y303400D03*
X558300Y333400D03*
D22*
X518700Y301500D03*
X518700Y199900D03*
X653400Y210200D03*
X551800Y210200D03*
D15*
X613000Y139200D03*
X643000Y139200D03*
D11*
X123300Y269960D03*
D12*
X123300Y228200D03*
D13*
X147430Y97240D03*
X96630Y97240D03*
D16*
X46200Y101600D03*
X46200Y131600D03*
X186700Y120400D03*
X186700Y90400D03*
D23*
X70720Y25000D02*
X55480Y25000D01*
X55480Y50400D02*
X70720Y50400D01*
X70720Y75800D02*
X55480Y75800D01*
D18*
X492500Y139100D03*
X520500Y139100D03*
D15*
X385000Y63000D03*
X415000Y63000D03*
D24*
X480854Y921394D02*
X480854Y941206D01*
X530892Y941206D02*
X530892Y921394D01*
X168706Y672646D02*
X148894Y672646D01*
X148894Y622608D02*
X168706Y622608D01*
D25*
X632418Y174500D02*
X649182Y174500D01*
X547582Y174500D02*
X530818Y174500D01*
X415182Y172000D02*
X398418Y172000D01*
X313582Y172000D02*
X296818Y172000D01*
D19*
X217500Y137100D03*
D26*
X217500Y187900D03*
D18*
X537500Y107500D03*
X537500Y53500D03*
X491000Y107000D03*
X491000Y53000D03*
D27*
X168700Y742978D02*
X143300Y742978D01*
X143300Y968022D02*
X168700Y968022D01*
D22*
X484500Y494200D03*
X484500Y595800D03*
X465500Y747200D03*
X465500Y848800D03*
X531500Y492200D03*
X531500Y593800D03*
X542500Y750200D03*
X542500Y851800D03*
D28*
X578000Y110220D03*
X578000Y81780D03*
X606000Y110220D03*
X606000Y81780D03*
X635000Y82780D03*
X635000Y111220D03*
D29*
X629780Y47000D03*
X658220Y47000D03*
X574780Y49000D03*
X603220Y49000D03*
D28*
X720000Y34780D03*
X720000Y63220D03*
X751000Y34780D03*
X751000Y63220D03*
X780000Y35780D03*
X780000Y64220D03*
X727000Y137220D03*
X727000Y108780D03*
D30*
X658000Y111000D03*
X680000Y120500D03*
X680000Y101500D03*
D31*
X763000Y116000D03*
X772500Y94000D03*
X753500Y94000D03*
X688000Y38000D03*
X678500Y60000D03*
X697500Y60000D03*
D32*
X353500Y319000D03*
X278500Y141000D03*
X138000Y547000D03*
X252000Y466000D03*
X284000Y411000D03*
X640000Y466000D03*
X505000Y407000D03*
X703000Y468000D03*
X594000Y407000D03*
X470000Y341000D03*
X470000Y270000D03*
X290000Y55000D03*
X191000Y59000D03*
X30000Y39000D03*
X54000Y163000D03*
X47000Y218000D03*
X50000Y285000D03*
X712000Y205000D03*
X758000Y230000D03*
X712000Y257000D03*
X351500Y295000D03*
X493500Y299000D03*
X382500Y208000D03*
X695000Y137000D03*
X449500Y115000D03*
X296500Y115000D03*
X588500Y145000D03*
X451500Y133000D03*
X244000Y954000D03*
X246000Y901000D03*
X248000Y845000D03*
X611000Y914000D03*
X602000Y957000D03*
X654500Y294000D03*
X649500Y335000D03*
X306500Y346000D03*
X286000Y247500D03*
X396000Y761000D03*
X261000Y682000D03*
X269000Y643000D03*
X261000Y608000D03*
X471000Y631000D03*
X594500Y322000D03*
X515500Y261000D03*
X596000Y638000D03*
X596000Y774000D03*
X549000Y637000D03*
X599000Y694000D03*
X656220Y82780D03*
X657000Y65000D03*
X503000Y80000D03*
X673491Y85509D03*
X728456Y83544D03*
X607000Y869000D03*
M02*
